<?xml version="1.0" encoding="utf-8"?>
<!-- Generator: Adobe Illustrator 26.3.1, SVG Export Plug-In . SVG Version: 6.00 Build 0)  -->
<svg version="1.1" xmlns="http://www.w3.org/2000/svg" xmlns:xlink="http://www.w3.org/1999/xlink" x="0px" y="0px" width="1000px"
	 height="1000px" viewBox="0 0 1000 1000" style="enable-background:new 0 0 1000 1000;" xml:space="preserve">
<style type="text/css">
	.career0{fill:none;stroke:#000000;stroke-width:30;stroke-miterlimit:10;}
	.career1{stroke:#000000;stroke-width:20;stroke-miterlimit:10;}
	.career2{fill:none;stroke:#000000;stroke-width:20;stroke-miterlimit:10;}
	.career3{display:none;}
	.career4{display:inline;fill:none;stroke:#6495ED;stroke-width:30;stroke-miterlimit:10;}
	.career5{display:inline;fill:#6495ED;stroke:#6495ED;stroke-width:20;stroke-miterlimit:10;}
	.career6{display:inline;fill:none;stroke:#6495ED;stroke-width:20;stroke-miterlimit:10;}
	.career7{display:inline;fill:none;stroke:#A6D785;stroke-width:30;stroke-miterlimit:10;}
	.career8{display:inline;fill:#A6D785;stroke:#A6D785;stroke-width:20;stroke-miterlimit:10;}
	.career9{display:inline;fill:none;stroke:#A6D785;stroke-width:20;stroke-miterlimit:10;}
	.career10{display:inline;fill:none;stroke:#7F7F7F;stroke-width:30;stroke-miterlimit:10;}
	.career11{display:inline;fill:#7F7F7F;stroke:#7F7F7F;stroke-width:20;stroke-miterlimit:10;}
	.career12{display:inline;fill:none;stroke:#7F7F7F;stroke-width:20;stroke-miterlimit:10;}
	.career13{display:inline;fill:none;stroke:#873A8A;stroke-width:30;stroke-miterlimit:10;}
	.career14{display:inline;fill:#873A8A;stroke:#873A8A;stroke-width:20;stroke-miterlimit:10;}
	.career15{display:inline;fill:none;stroke:#873A8A;stroke-width:20;stroke-miterlimit:10;}
	.career16{display:inline;fill:none;stroke:#FFFFFF;stroke-width:30;stroke-miterlimit:10;}
	.career17{display:inline;fill:#FFFFFF;stroke:#FFFFFF;stroke-width:20;stroke-miterlimit:10;}
	.career18{display:inline;fill:none;stroke:#FFFFFF;stroke-width:20;stroke-miterlimit:10;}
</style>
<g id="BLACK">
	<circle class="career0" cx="499.62" cy="499.62" r="474.14"/>
	<path class="career1" d="M608.33,751.84H390.67c-7.66,0-12.47-8.25-8.71-14.92l5.24-9.27c5.32-9.42,15.3-15.25,26.12-15.25h172.31
		c10.78,0,20.73,5.78,26.07,15.15l5.32,9.34C620.82,743.55,616.01,751.84,608.33,751.84z"/>
	<path class="career2" d="M519.12,273.34c0-13.16-8.83-19.79-20.11-19.79c-10.66,0-19.13,8.86-19.13,19.79c0,3.66,0,13.65,0,13.65v425.4
		h39.24v-425.4V273.34z"/>
	<path class="career2" d="M716.39,347.62l-30.11-21.81c-2.16-1.57-5.08-2.45-8.11-2.45H519.12v60.43h159.1c3.01,0,5.89-0.86,8.05-2.41
		l30.07-21.5C721.02,356.53,721.05,350.99,716.39,347.62z"/>
	<path class="career2" d="M282.61,408.05l30.11-21.81c2.16-1.57,5.08-2.45,8.11-2.45h159.05v60.43h-159.1c-3.01,0-5.89-0.86-8.05-2.41
		l-30.07-21.5C277.98,416.96,277.96,411.42,282.61,408.05z"/>
	<path class="career2" d="M716.39,468.48l-30.11-21.81c-2.16-1.57-5.08-2.45-8.11-2.45H519.12v60.43h159.1c3.01,0,5.89-0.86,8.05-2.41
		l30.07-21.5C721.02,477.39,721.05,471.85,716.39,468.48z"/>
</g>
<g id="BLUE" class="career3">
	<circle class="career4" cx="499.62" cy="499.62" r="474.14"/>
	<path class="career5" d="M608.33,751.84H390.67c-7.66,0-12.47-8.25-8.71-14.92l5.24-9.27c5.32-9.42,15.3-15.25,26.12-15.25h172.31
		c10.78,0,20.73,5.78,26.07,15.15l5.32,9.34C620.82,743.55,616.01,751.84,608.33,751.84z"/>
	<path class="career6" d="M519.12,273.34c0-13.16-8.83-19.79-20.11-19.79c-10.66,0-19.13,8.86-19.13,19.79c0,3.66,0,13.65,0,13.65v425.4
		h39.24v-425.4V273.34z"/>
	<path class="career6" d="M716.39,347.62l-30.11-21.81c-2.16-1.57-5.08-2.45-8.11-2.45H519.12v60.43h159.1c3.01,0,5.89-0.86,8.05-2.41
		l30.07-21.5C721.02,356.53,721.05,350.99,716.39,347.62z"/>
	<path class="career6" d="M282.61,408.05l30.11-21.81c2.16-1.57,5.08-2.45,8.11-2.45h159.05v60.43h-159.1c-3.01,0-5.89-0.86-8.05-2.41
		l-30.07-21.5C277.98,416.96,277.96,411.42,282.61,408.05z"/>
	<path class="career6" d="M716.39,468.48l-30.11-21.81c-2.16-1.57-5.08-2.45-8.11-2.45H519.12v60.43h159.1c3.01,0,5.89-0.86,8.05-2.41
		l30.07-21.5C721.02,477.39,721.05,471.85,716.39,468.48z"/>
</g>
<g id="GREEN" class="career3">
	<circle class="career7" cx="499.62" cy="499.62" r="474.14"/>
	<path class="career8" d="M608.33,751.84H390.67c-7.66,0-12.47-8.25-8.71-14.92l5.24-9.27c5.32-9.42,15.3-15.25,26.12-15.25h172.31
		c10.78,0,20.73,5.78,26.07,15.15l5.32,9.34C620.82,743.55,616.01,751.84,608.33,751.84z"/>
	<path class="career9" d="M519.12,273.34c0-13.16-8.83-19.79-20.11-19.79c-10.66,0-19.13,8.86-19.13,19.79c0,3.66,0,13.65,0,13.65v425.4
		h39.24v-425.4V273.34z"/>
	<path class="career9" d="M716.39,347.62l-30.11-21.81c-2.16-1.57-5.08-2.45-8.11-2.45H519.12v60.43h159.1c3.01,0,5.89-0.86,8.05-2.41
		l30.07-21.5C721.02,356.53,721.05,350.99,716.39,347.62z"/>
	<path class="career9" d="M282.61,408.05l30.11-21.81c2.16-1.57,5.08-2.45,8.11-2.45h159.05v60.43h-159.1c-3.01,0-5.89-0.86-8.05-2.41
		l-30.07-21.5C277.98,416.96,277.96,411.42,282.61,408.05z"/>
	<path class="career9" d="M716.39,468.48l-30.11-21.81c-2.16-1.57-5.08-2.45-8.11-2.45H519.12v60.43h159.1c3.01,0,5.89-0.86,8.05-2.41
		l30.07-21.5C721.02,477.39,721.05,471.85,716.39,468.48z"/>
</g>
<g id="GREY" class="career3">
	<circle class="career10" cx="499.62" cy="499.62" r="474.14"/>
	<path class="career11" d="M608.33,751.84H390.67c-7.66,0-12.47-8.25-8.71-14.92l5.24-9.27c5.32-9.42,15.3-15.25,26.12-15.25h172.31
		c10.78,0,20.73,5.78,26.07,15.15l5.32,9.34C620.82,743.55,616.01,751.84,608.33,751.84z"/>
	<path class="career12" d="M519.12,273.34c0-13.16-8.83-19.79-20.11-19.79c-10.66,0-19.13,8.86-19.13,19.79c0,3.66,0,13.65,0,13.65
		v425.4h39.24v-425.4V273.34z"/>
	<path class="career12" d="M716.39,347.62l-30.11-21.81c-2.16-1.57-5.08-2.45-8.11-2.45H519.12v60.43h159.1c3.01,0,5.89-0.86,8.05-2.41
		l30.07-21.5C721.02,356.53,721.05,350.99,716.39,347.62z"/>
	<path class="career12" d="M282.61,408.05l30.11-21.81c2.16-1.57,5.08-2.45,8.11-2.45h159.05v60.43h-159.1c-3.01,0-5.89-0.86-8.05-2.41
		l-30.07-21.5C277.98,416.96,277.96,411.42,282.61,408.05z"/>
	<path class="career12" d="M716.39,468.48l-30.11-21.81c-2.16-1.57-5.08-2.45-8.11-2.45H519.12v60.43h159.1c3.01,0,5.89-0.86,8.05-2.41
		l30.07-21.5C721.02,477.39,721.05,471.85,716.39,468.48z"/>
</g>
<g id="VIOLET" class="career3">
	<circle class="career13" cx="499.62" cy="499.62" r="474.14"/>
	<path class="career14" d="M608.33,751.84H390.67c-7.66,0-12.47-8.25-8.71-14.92l5.24-9.27c5.32-9.42,15.3-15.25,26.12-15.25h172.31
		c10.78,0,20.73,5.78,26.07,15.15l5.32,9.34C620.82,743.55,616.01,751.84,608.33,751.84z"/>
	<path class="career15" d="M519.12,273.34c0-13.16-8.83-19.79-20.11-19.79c-10.66,0-19.13,8.86-19.13,19.79c0,3.66,0,13.65,0,13.65
		v425.4h39.24v-425.4V273.34z"/>
	<path class="career15" d="M716.39,347.62l-30.11-21.81c-2.16-1.57-5.08-2.45-8.11-2.45H519.12v60.43h159.1c3.01,0,5.89-0.86,8.05-2.41
		l30.07-21.5C721.02,356.53,721.05,350.99,716.39,347.62z"/>
	<path class="career15" d="M282.61,408.05l30.11-21.81c2.16-1.57,5.08-2.45,8.11-2.45h159.05v60.43h-159.1c-3.01,0-5.89-0.86-8.05-2.41
		l-30.07-21.5C277.98,416.96,277.96,411.42,282.61,408.05z"/>
	<path class="career15" d="M716.39,468.48l-30.11-21.81c-2.16-1.57-5.08-2.45-8.11-2.45H519.12v60.43h159.1c3.01,0,5.89-0.86,8.05-2.41
		l30.07-21.5C721.02,477.39,721.05,471.85,716.39,468.48z"/>
</g>
<g id="WHITE" class="career3">
	<circle class="career16" cx="499.62" cy="499.62" r="474.14"/>
	<path class="career17" d="M608.33,751.84H390.67c-7.66,0-12.47-8.25-8.71-14.92l5.24-9.27c5.32-9.42,15.3-15.25,26.12-15.25h172.31
		c10.78,0,20.73,5.78,26.07,15.15l5.32,9.34C620.82,743.55,616.01,751.84,608.33,751.84z"/>
	<path class="career18" d="M519.12,273.34c0-13.16-8.83-19.79-20.11-19.79c-10.66,0-19.13,8.86-19.13,19.79c0,3.66,0,13.65,0,13.65
		v425.4h39.24v-425.4V273.34z"/>
	<path class="career18" d="M716.39,347.62l-30.11-21.81c-2.16-1.57-5.08-2.45-8.11-2.45H519.12v60.43h159.1c3.01,0,5.89-0.86,8.05-2.41
		l30.07-21.5C721.02,356.53,721.05,350.99,716.39,347.62z"/>
	<path class="career18" d="M282.61,408.05l30.11-21.81c2.16-1.57,5.08-2.45,8.11-2.45h159.05v60.43h-159.1c-3.01,0-5.89-0.86-8.05-2.41
		l-30.07-21.5C277.98,416.96,277.96,411.42,282.61,408.05z"/>
	<path class="career18" d="M716.39,468.48l-30.11-21.81c-2.16-1.57-5.08-2.45-8.11-2.45H519.12v60.43h159.1c3.01,0,5.89-0.86,8.05-2.41
		l30.07-21.5C721.02,477.39,721.05,471.85,716.39,468.48z"/>
</g>
</svg>
