<svg width="35" height="35" viewBox="0 0 35 35" fill="none" xmlns="http://www.w3.org/2000/svg">
<path d="M0 17.2346V3.28125C0 1.46904 1.46904 0 3.28125 0H17.2346C18.1049 4.55052e-06 18.9395 0.34571 19.5548 0.961065L34.039 15.4452C35.3203 16.7266 35.3203 18.8042 34.039 20.0856L20.0856 34.039C18.8042 35.3203 16.7266 35.3203 15.4452 34.039L0.961065 19.5548C0.34571 18.9395 4.55052e-06 18.1049 0 17.2346ZM7.65625 4.375C5.84405 4.375 4.375 5.84405 4.375 7.65625C4.375 9.46846 5.84405 10.9375 7.65625 10.9375C9.46846 10.9375 10.9375 9.46846 10.9375 7.65625C10.9375 5.84405 9.46846 4.375 7.65625 4.375Z" fill="black"/>
</svg>
