<svg width="35" height="35" viewBox="0 0 35 35" fill="none" xmlns="http://www.w3.org/2000/svg">
<path d="M31.3511 17.4945L34.4946 14.418C35.4316 13.5309 34.9947 11.9544 33.7656 11.6605L29.4829 10.5674L30.6902 6.32812C31.0314 5.10873 29.8816 3.95858 28.6626 4.29983L24.4247 5.50753L23.3321 1.22339C23.0429 0.0134972 21.4488 -0.428993 20.5755 0.494131L17.5 3.66204L14.4246 0.4942C13.5612 -0.418465 11.9604 -0.00031149 11.668 1.22346L10.5753 5.5076L6.33738 4.2999C5.11806 3.95851 3.96867 5.10907 4.30978 6.32819L5.51707 10.5675L1.23436 11.6606C0.00471446 11.9546 -0.431349 13.5313 0.50531 14.418L3.64881 17.4945L0.50531 20.571C-0.43176 21.4581 0.0051931 23.0346 1.23429 23.3285L5.517 24.4216L4.30971 28.6609C3.96853 29.8803 5.11833 31.0304 6.33732 30.6892L10.5752 29.4815L11.6678 33.7656C11.9713 35.0354 13.5611 35.4075 14.4244 34.4949L17.5 31.3503L20.5754 34.4949C21.4299 35.4169 23.0354 35.0066 23.332 33.7656L24.4246 29.4815L28.6625 30.6892C29.8818 31.0306 31.0312 29.88 30.6901 28.6609L29.4828 24.4216L33.7655 23.3285C34.9951 23.0344 35.4312 21.4577 34.4945 20.571L31.3511 17.4945Z" fill="black"/>
</svg>
