<?xml version="1.0" encoding="utf-8"?>
<!-- Generator: Adobe Illustrator 26.3.1, SVG Export Plug-In . SVG Version: 6.00 Build 0)  -->
<svg version="1.1" xmlns="http://www.w3.org/2000/svg" xmlns:xlink="http://www.w3.org/1999/xlink" x="0px" y="0px" width="1000px"
	 height="1000px" viewBox="0 0 1000 1000" style="enable-background:new 0 0 1000 1000;" xml:space="preserve">
<style type="text/css">
	.st0{fill:none;stroke:#000000;stroke-width:30;stroke-miterlimit:10;}
	.st1{fill:none;stroke:#000000;stroke-width:20;stroke-miterlimit:10;}
	.st2{stroke:#000000;stroke-width:20;stroke-miterlimit:10;}
	.st3{display:none;}
	.st4{display:inline;fill:none;stroke:#6495ED;stroke-width:30;stroke-miterlimit:10;}
	.st5{display:inline;fill:none;stroke:#6495ED;stroke-width:20;stroke-miterlimit:10;}
	.st6{display:inline;}
	.st7{fill:#6495ED;}
	.st8{display:inline;fill:#6495ED;}
	.st9{display:inline;fill:none;stroke:#A6D785;stroke-width:30;stroke-miterlimit:10;}
	.st10{display:inline;fill:none;stroke:#A6D785;stroke-width:20;stroke-miterlimit:10;}
	.st11{fill:#A6D785;}
	.st12{display:inline;fill:#A6D785;}
	.st13{display:inline;fill:none;stroke:#7F7F7F;stroke-width:30;stroke-miterlimit:10;}
	.st14{display:inline;fill:none;stroke:#7F7F7F;stroke-width:20;stroke-miterlimit:10;}
	.st15{fill:#7F7F7F;}
	.st16{display:inline;fill:#7F7F7F;}
	.st17{display:inline;fill:none;stroke:#873A8A;stroke-width:30;stroke-miterlimit:10;}
	.st18{display:inline;fill:none;stroke:#873A8A;stroke-width:20;stroke-miterlimit:10;}
	.st19{fill:#873A8A;}
	.st20{display:inline;fill:#873A8A;}
	.st21{display:inline;fill:none;stroke:#FFFFFF;stroke-width:30;stroke-miterlimit:10;}
	.st22{display:inline;fill:none;stroke:#FFFFFF;stroke-width:20;stroke-miterlimit:10;}
	.st23{fill:#FFFFFF;}
	.st24{display:inline;fill:#FFFFFF;}
</style>
<g id="BLACK">
	<circle class="st0" cx="499.62" cy="499.62" r="474.14"/>
	<circle class="st1" cx="416.93" cy="413.28" r="60.93"/>
	<path class="st1" d="M624.85,568.17c-1.89-16.74-16.5-25.82-33.24-23.93c-9.63,1.09-23.37,13.07-23.37,13.07l-28.94,23.61
		l-41.17-45.66c-8.49-8.67-17.68-16.69-28.16-21.07c-22.35-9.33-43.27-9.15-72.94-9.08c-48.27,0.12-71.08-2.44-115.73,27.54
		c-7.79,5.23-53.38,41.64-53.38,41.64l-33.38,25.72c-8.16,6.29-9.55,18.06-3.06,26.07l50.19,62c10.85,12.6,20.29,21.27,34.55,19.98
		c8.19-0.74,14.61-4.56,18.87-10.22v29.97c0,11.64,9.44,21.08,21.08,21.08h161.2c11.64,0,21.08-9.44,21.08-21.08V627.14l20.17,25.04
		c6.46,8.02,18.26,9.15,26.13,2.49l60.89-51.53C617.99,592.02,626.45,582.39,624.85,568.17z M295.09,628.26
		c-0.01,0.05-0.02,0.1-0.02,0.16v32.79c-3.3-5.35-6.78-9.52-6.78-9.52l-22.97-29.45l33.82-26.57c-2.66,10-4.08,20.51-4.08,31.35
		C295.08,627.43,295.09,627.85,295.09,628.26z"/>
	<path class="st1" d="M227.92,574.15l-33.38,25.72c-8.16,6.29-9.55,18.06-3.06,26.07l50.19,62c10.85,12.6,20.29,21.27,34.55,19.98
		c16.77-1.52,26.17-15.94,24.65-32.71c-0.88-9.65-12.56-23.65-12.56-23.65l-22.97-29.45"/>
	<g>
		<path d="M804.14,614.12H603.21l19.67-36.34l181.16-0.23c4.7-0.06,8.53,4.06,8.53,9.17v18.23
			C812.57,610.02,808.8,614.12,804.14,614.12z"/>
	</g>
	<path class="st1" d="M416.93,352.35v-81.18c0-5.06,4.11-9.17,9.17-9.17h347.43c5.06,0,9.17,4.11,9.17,9.17v316.36"/>
	<line class="st2" x1="416.93" y1="474.21" x2="416.93" y2="505.17"/>
	<g>
		<path d="M616.73,321.6h-55.02c-2.53,0-4.58-2.05-4.58-4.58v-9.17c0-2.53,2.05-4.58,4.58-4.58h55.02c2.53,0,4.58,2.05,4.58,4.58
			v9.17C621.31,319.55,619.26,321.6,616.73,321.6z"/>
	</g>
	<g>
		<path d="M730.89,321.6h-86.66c-2.53,0-4.58-2.05-4.58-4.58v-9.17c0-2.53,2.05-4.58,4.58-4.58h86.66c2.53,0,4.58,2.05,4.58,4.58
			v9.17C735.48,319.55,733.43,321.6,730.89,321.6z"/>
	</g>
	<g>
		<path d="M730.89,358.28H593.8c-2.53,0-4.58-2.05-4.58-4.58v-9.17c0-2.53,2.05-4.58,4.58-4.58h137.09c2.53,0,4.58,2.05,4.58,4.58
			v9.17C735.48,356.23,733.43,358.28,730.89,358.28z"/>
	</g>
	<path d="M605.55,546.21l15.68,15.68l21.3-21.3c1.79-1.79,1.79-4.69,0-6.48l-9.19-9.19c-1.79-1.79-4.69-1.79-6.48,0L605.55,546.21z"
		/>
	<path d="M712.14,460.62c0-3.09-2.49-5.6-5.56-5.6c-1.54,0-2.93,0.63-3.93,1.64l-79.92,80.32l7.99,8.04l79.81-80.44
		C711.51,463.56,712.14,462.16,712.14,460.62z"/>
</g>
<g id="BLUE" class="st3">
	<circle class="st4" cx="499.62" cy="499.62" r="474.14"/>
	<circle class="st5" cx="416.93" cy="413.28" r="60.93"/>
	<path class="st5" d="M624.85,568.17c-1.89-16.74-16.5-25.82-33.24-23.93c-9.63,1.09-23.37,13.07-23.37,13.07l-28.94,23.61
		l-41.17-45.66c-8.49-8.67-17.68-16.69-28.16-21.07c-22.35-9.33-43.27-9.15-72.94-9.08c-48.27,0.12-71.08-2.44-115.73,27.54
		c-7.79,5.23-53.38,41.64-53.38,41.64l-33.38,25.72c-8.16,6.29-9.55,18.06-3.06,26.07l50.19,62c10.85,12.6,20.29,21.27,34.55,19.98
		c8.19-0.74,14.61-4.56,18.87-10.22v29.97c0,11.64,9.44,21.08,21.08,21.08h161.2c11.64,0,21.08-9.44,21.08-21.08V627.14l20.17,25.04
		c6.46,8.02,18.26,9.15,26.13,2.49l60.89-51.53C617.99,592.02,626.45,582.39,624.85,568.17z M295.09,628.26
		c-0.01,0.05-0.02,0.1-0.02,0.16v32.79c-3.3-5.35-6.78-9.52-6.78-9.52l-22.97-29.45l33.82-26.57c-2.66,10-4.08,20.51-4.08,31.35
		C295.08,627.43,295.09,627.85,295.09,628.26z"/>
	<path class="st5" d="M227.92,574.15l-33.38,25.72c-8.16,6.29-9.55,18.06-3.06,26.07l50.19,62c10.85,12.6,20.29,21.27,34.55,19.98
		c16.77-1.52,26.17-15.94,24.65-32.71c-0.88-9.65-12.56-23.65-12.56-23.65l-22.97-29.45"/>
	<g class="st6">
		<path class="st7" d="M804.14,614.12H603.21l19.67-36.34l181.16-0.23c4.7-0.06,8.53,4.06,8.53,9.17v18.23
			C812.57,610.02,808.8,614.12,804.14,614.12z"/>
	</g>
	<path class="st5" d="M416.93,352.35v-81.18c0-5.06,4.11-9.17,9.17-9.17h347.43c5.06,0,9.17,4.11,9.17,9.17v316.36"/>
	<line class="st5" x1="416.93" y1="474.21" x2="416.93" y2="505.17"/>
	<g class="st6">
		<path class="st7" d="M616.73,321.6h-55.02c-2.53,0-4.58-2.05-4.58-4.58v-9.17c0-2.53,2.05-4.58,4.58-4.58h55.02
			c2.53,0,4.58,2.05,4.58,4.58v9.17C621.31,319.55,619.26,321.6,616.73,321.6z"/>
	</g>
	<g class="st6">
		<path class="st7" d="M730.89,321.6h-86.66c-2.53,0-4.58-2.05-4.58-4.58v-9.17c0-2.53,2.05-4.58,4.58-4.58h86.66
			c2.53,0,4.58,2.05,4.58,4.58v9.17C735.48,319.55,733.43,321.6,730.89,321.6z"/>
	</g>
	<g class="st6">
		<path class="st7" d="M730.89,358.28H593.8c-2.53,0-4.58-2.05-4.58-4.58v-9.17c0-2.53,2.05-4.58,4.58-4.58h137.09
			c2.53,0,4.58,2.05,4.58,4.58v9.17C735.48,356.23,733.43,358.28,730.89,358.28z"/>
	</g>
	<path class="st8" d="M605.55,546.21l15.68,15.68l21.3-21.3c1.79-1.79,1.79-4.69,0-6.48l-9.19-9.19c-1.79-1.79-4.69-1.79-6.48,0
		L605.55,546.21z"/>
	<path class="st8" d="M712.14,460.62c0-3.09-2.49-5.6-5.56-5.6c-1.54,0-2.93,0.63-3.93,1.64l-79.92,80.32l7.99,8.04l79.81-80.44
		C711.51,463.56,712.14,462.16,712.14,460.62z"/>
</g>
<g id="GREEN" class="st3">
	<circle class="st9" cx="499.62" cy="499.62" r="474.14"/>
	<circle class="st10" cx="416.93" cy="413.28" r="60.93"/>
	<path class="st10" d="M624.85,568.17c-1.89-16.74-16.5-25.82-33.24-23.93c-9.63,1.09-23.37,13.07-23.37,13.07l-28.94,23.61
		l-41.17-45.66c-8.49-8.67-17.68-16.69-28.16-21.07c-22.35-9.33-43.27-9.15-72.94-9.08c-48.27,0.12-71.08-2.44-115.73,27.54
		c-7.79,5.23-53.38,41.64-53.38,41.64l-33.38,25.72c-8.16,6.29-9.55,18.06-3.06,26.07l50.19,62c10.85,12.6,20.29,21.27,34.55,19.98
		c8.19-0.74,14.61-4.56,18.87-10.22v29.97c0,11.64,9.44,21.08,21.08,21.08h161.2c11.64,0,21.08-9.44,21.08-21.08V627.14l20.17,25.04
		c6.46,8.02,18.26,9.15,26.13,2.49l60.89-51.53C617.99,592.02,626.45,582.39,624.85,568.17z M295.09,628.26
		c-0.01,0.05-0.02,0.1-0.02,0.16v32.79c-3.3-5.35-6.78-9.52-6.78-9.52l-22.97-29.45l33.82-26.57c-2.66,10-4.08,20.51-4.08,31.35
		C295.08,627.43,295.09,627.85,295.09,628.26z"/>
	<path class="st10" d="M227.92,574.15l-33.38,25.72c-8.16,6.29-9.55,18.06-3.06,26.07l50.19,62c10.85,12.6,20.29,21.27,34.55,19.98
		c16.77-1.52,26.17-15.94,24.65-32.71c-0.88-9.65-12.56-23.65-12.56-23.65l-22.97-29.45"/>
	<g class="st6">
		<path class="st11" d="M804.14,614.12H603.21l19.67-36.34l181.16-0.23c4.7-0.06,8.53,4.06,8.53,9.17v18.23
			C812.57,610.02,808.8,614.12,804.14,614.12z"/>
	</g>
	<path class="st10" d="M416.93,352.35v-81.18c0-5.06,4.11-9.17,9.17-9.17h347.43c5.06,0,9.17,4.11,9.17,9.17v316.36"/>
	<line class="st10" x1="416.93" y1="474.21" x2="416.93" y2="505.17"/>
	<g class="st6">
		<path class="st11" d="M616.73,321.6h-55.02c-2.53,0-4.58-2.05-4.58-4.58v-9.17c0-2.53,2.05-4.58,4.58-4.58h55.02
			c2.53,0,4.58,2.05,4.58,4.58v9.17C621.31,319.55,619.26,321.6,616.73,321.6z"/>
	</g>
	<g class="st6">
		<path class="st11" d="M730.89,321.6h-86.66c-2.53,0-4.58-2.05-4.58-4.58v-9.17c0-2.53,2.05-4.58,4.58-4.58h86.66
			c2.53,0,4.58,2.05,4.58,4.58v9.17C735.48,319.55,733.43,321.6,730.89,321.6z"/>
	</g>
	<g class="st6">
		<path class="st11" d="M730.89,358.28H593.8c-2.53,0-4.58-2.05-4.58-4.58v-9.17c0-2.53,2.05-4.58,4.58-4.58h137.09
			c2.53,0,4.58,2.05,4.58,4.58v9.17C735.48,356.23,733.43,358.28,730.89,358.28z"/>
	</g>
	<path class="st12" d="M605.55,546.21l15.68,15.68l21.3-21.3c1.79-1.79,1.79-4.69,0-6.48l-9.19-9.19c-1.79-1.79-4.69-1.79-6.48,0
		L605.55,546.21z"/>
	<path class="st12" d="M712.14,460.62c0-3.09-2.49-5.6-5.56-5.6c-1.54,0-2.93,0.63-3.93,1.64l-79.92,80.32l7.99,8.04l79.81-80.44
		C711.51,463.56,712.14,462.16,712.14,460.62z"/>
</g>
<g id="GREY" class="st3">
	<circle class="st13" cx="499.62" cy="499.62" r="474.14"/>
	<circle class="st14" cx="416.93" cy="413.28" r="60.93"/>
	<path class="st14" d="M624.85,568.17c-1.89-16.74-16.5-25.82-33.24-23.93c-9.63,1.09-23.37,13.07-23.37,13.07l-28.94,23.61
		l-41.17-45.66c-8.49-8.67-17.68-16.69-28.16-21.07c-22.35-9.33-43.27-9.15-72.94-9.08c-48.27,0.12-71.08-2.44-115.73,27.54
		c-7.79,5.23-53.38,41.64-53.38,41.64l-33.38,25.72c-8.16,6.29-9.55,18.06-3.06,26.07l50.19,62c10.85,12.6,20.29,21.27,34.55,19.98
		c8.19-0.74,14.61-4.56,18.87-10.22v29.97c0,11.64,9.44,21.08,21.08,21.08h161.2c11.64,0,21.08-9.44,21.08-21.08V627.14l20.17,25.04
		c6.46,8.02,18.26,9.15,26.13,2.49l60.89-51.53C617.99,592.02,626.45,582.39,624.85,568.17z M295.09,628.26
		c-0.01,0.05-0.02,0.1-0.02,0.16v32.79c-3.3-5.35-6.78-9.52-6.78-9.52l-22.97-29.45l33.82-26.57c-2.66,10-4.08,20.51-4.08,31.35
		C295.08,627.43,295.09,627.85,295.09,628.26z"/>
	<path class="st14" d="M227.92,574.15l-33.38,25.72c-8.16,6.29-9.55,18.06-3.06,26.07l50.19,62c10.85,12.6,20.29,21.27,34.55,19.98
		c16.77-1.52,26.17-15.94,24.65-32.71c-0.88-9.65-12.56-23.65-12.56-23.65l-22.97-29.45"/>
	<g class="st6">
		<path class="st15" d="M804.14,614.12H603.21l19.67-36.34l181.16-0.23c4.7-0.06,8.53,4.06,8.53,9.17v18.23
			C812.57,610.02,808.8,614.12,804.14,614.12z"/>
	</g>
	<path class="st14" d="M416.93,352.35v-81.18c0-5.06,4.11-9.17,9.17-9.17h347.43c5.06,0,9.17,4.11,9.17,9.17v316.36"/>
	<line class="st14" x1="416.93" y1="474.21" x2="416.93" y2="505.17"/>
	<g class="st6">
		<path class="st15" d="M616.73,321.6h-55.02c-2.53,0-4.58-2.05-4.58-4.58v-9.17c0-2.53,2.05-4.58,4.58-4.58h55.02
			c2.53,0,4.58,2.05,4.58,4.58v9.17C621.31,319.55,619.26,321.6,616.73,321.6z"/>
	</g>
	<g class="st6">
		<path class="st15" d="M730.89,321.6h-86.66c-2.53,0-4.58-2.05-4.58-4.58v-9.17c0-2.53,2.05-4.58,4.58-4.58h86.66
			c2.53,0,4.58,2.05,4.58,4.58v9.17C735.48,319.55,733.43,321.6,730.89,321.6z"/>
	</g>
	<g class="st6">
		<path class="st15" d="M730.89,358.28H593.8c-2.53,0-4.58-2.05-4.58-4.58v-9.17c0-2.53,2.05-4.58,4.58-4.58h137.09
			c2.53,0,4.58,2.05,4.58,4.58v9.17C735.48,356.23,733.43,358.28,730.89,358.28z"/>
	</g>
	<path class="st16" d="M605.55,546.21l15.68,15.68l21.3-21.3c1.79-1.79,1.79-4.69,0-6.48l-9.19-9.19c-1.79-1.79-4.69-1.79-6.48,0
		L605.55,546.21z"/>
	<path class="st16" d="M712.14,460.62c0-3.09-2.49-5.6-5.56-5.6c-1.54,0-2.93,0.63-3.93,1.64l-79.92,80.32l7.99,8.04l79.81-80.44
		C711.51,463.56,712.14,462.16,712.14,460.62z"/>
</g>
<g id="VIOLET" class="st3">
	<circle class="st17" cx="499.62" cy="499.62" r="474.14"/>
	<circle class="st18" cx="416.93" cy="413.28" r="60.93"/>
	<path class="st18" d="M624.85,568.17c-1.89-16.74-16.5-25.82-33.24-23.93c-9.63,1.09-23.37,13.07-23.37,13.07l-28.94,23.61
		l-41.17-45.66c-8.49-8.67-17.68-16.69-28.16-21.07c-22.35-9.33-43.27-9.15-72.94-9.08c-48.27,0.12-71.08-2.44-115.73,27.54
		c-7.79,5.23-53.38,41.64-53.38,41.64l-33.38,25.72c-8.16,6.29-9.55,18.06-3.06,26.07l50.19,62c10.85,12.6,20.29,21.27,34.55,19.98
		c8.19-0.74,14.61-4.56,18.87-10.22v29.97c0,11.64,9.44,21.08,21.08,21.08h161.2c11.64,0,21.08-9.44,21.08-21.08V627.14l20.17,25.04
		c6.46,8.02,18.26,9.15,26.13,2.49l60.89-51.53C617.99,592.02,626.45,582.39,624.85,568.17z M295.09,628.26
		c-0.01,0.05-0.02,0.1-0.02,0.16v32.79c-3.3-5.35-6.78-9.52-6.78-9.52l-22.97-29.45l33.82-26.57c-2.66,10-4.08,20.51-4.08,31.35
		C295.08,627.43,295.09,627.85,295.09,628.26z"/>
	<path class="st18" d="M227.92,574.15l-33.38,25.72c-8.16,6.29-9.55,18.06-3.06,26.07l50.19,62c10.85,12.6,20.29,21.27,34.55,19.98
		c16.77-1.52,26.17-15.94,24.65-32.71c-0.88-9.65-12.56-23.65-12.56-23.65l-22.97-29.45"/>
	<g class="st6">
		<path class="st19" d="M804.14,614.12H603.21l19.67-36.34l181.16-0.23c4.7-0.06,8.53,4.06,8.53,9.17v18.23
			C812.57,610.02,808.8,614.12,804.14,614.12z"/>
	</g>
	<path class="st18" d="M416.93,352.35v-81.18c0-5.06,4.11-9.17,9.17-9.17h347.43c5.06,0,9.17,4.11,9.17,9.17v316.36"/>
	<line class="st18" x1="416.93" y1="474.21" x2="416.93" y2="505.17"/>
	<g class="st6">
		<path class="st19" d="M616.73,321.6h-55.02c-2.53,0-4.58-2.05-4.58-4.58v-9.17c0-2.53,2.05-4.58,4.58-4.58h55.02
			c2.53,0,4.58,2.05,4.58,4.58v9.17C621.31,319.55,619.26,321.6,616.73,321.6z"/>
	</g>
	<g class="st6">
		<path class="st19" d="M730.89,321.6h-86.66c-2.53,0-4.58-2.05-4.58-4.58v-9.17c0-2.53,2.05-4.58,4.58-4.58h86.66
			c2.53,0,4.58,2.05,4.58,4.58v9.17C735.48,319.55,733.43,321.6,730.89,321.6z"/>
	</g>
	<g class="st6">
		<path class="st19" d="M730.89,358.28H593.8c-2.53,0-4.58-2.05-4.58-4.58v-9.17c0-2.53,2.05-4.58,4.58-4.58h137.09
			c2.53,0,4.58,2.05,4.58,4.58v9.17C735.48,356.23,733.43,358.28,730.89,358.28z"/>
	</g>
	<path class="st20" d="M605.55,546.21l15.68,15.68l21.3-21.3c1.79-1.79,1.79-4.69,0-6.48l-9.19-9.19c-1.79-1.79-4.69-1.79-6.48,0
		L605.55,546.21z"/>
	<path class="st20" d="M712.14,460.62c0-3.09-2.49-5.6-5.56-5.6c-1.54,0-2.93,0.63-3.93,1.64l-79.92,80.32l7.99,8.04l79.81-80.44
		C711.51,463.56,712.14,462.16,712.14,460.62z"/>
</g>
<g id="WHITE" class="st3">
	<circle class="st21" cx="499.62" cy="499.62" r="474.14"/>
	<circle class="st22" cx="416.93" cy="413.28" r="60.93"/>
	<path class="st22" d="M624.85,568.17c-1.89-16.74-16.5-25.82-33.24-23.93c-9.63,1.09-23.37,13.07-23.37,13.07l-28.94,23.61
		l-41.17-45.66c-8.49-8.67-17.68-16.69-28.16-21.07c-22.35-9.33-43.27-9.15-72.94-9.08c-48.27,0.12-71.08-2.44-115.73,27.54
		c-7.79,5.23-53.38,41.64-53.38,41.64l-33.38,25.72c-8.16,6.29-9.55,18.06-3.06,26.07l50.19,62c10.85,12.6,20.29,21.27,34.55,19.98
		c8.19-0.74,14.61-4.56,18.87-10.22v29.97c0,11.64,9.44,21.08,21.08,21.08h161.2c11.64,0,21.08-9.44,21.08-21.08V627.14l20.17,25.04
		c6.46,8.02,18.26,9.15,26.13,2.49l60.89-51.53C617.99,592.02,626.45,582.39,624.85,568.17z M295.09,628.26
		c-0.01,0.05-0.02,0.1-0.02,0.16v32.79c-3.3-5.35-6.78-9.52-6.78-9.52l-22.97-29.45l33.82-26.57c-2.66,10-4.08,20.51-4.08,31.35
		C295.08,627.43,295.09,627.85,295.09,628.26z"/>
	<path class="st22" d="M227.92,574.15l-33.38,25.72c-8.16,6.29-9.55,18.06-3.06,26.07l50.19,62c10.85,12.6,20.29,21.27,34.55,19.98
		c16.77-1.52,26.17-15.94,24.65-32.71c-0.88-9.65-12.56-23.65-12.56-23.65l-22.97-29.45"/>
	<g class="st6">
		<path class="st23" d="M804.14,614.12H603.21l19.67-36.34l181.16-0.23c4.7-0.06,8.53,4.06,8.53,9.17v18.23
			C812.57,610.02,808.8,614.12,804.14,614.12z"/>
	</g>
	<path class="st22" d="M416.93,352.35v-81.18c0-5.06,4.11-9.17,9.17-9.17h347.43c5.06,0,9.17,4.11,9.17,9.17v316.36"/>
	<line class="st22" x1="416.93" y1="474.21" x2="416.93" y2="505.17"/>
	<g class="st6">
		<path class="st23" d="M616.73,321.6h-55.02c-2.53,0-4.58-2.05-4.58-4.58v-9.17c0-2.53,2.05-4.58,4.58-4.58h55.02
			c2.53,0,4.58,2.05,4.58,4.58v9.17C621.31,319.55,619.26,321.6,616.73,321.6z"/>
	</g>
	<g class="st6">
		<path class="st23" d="M730.89,321.6h-86.66c-2.53,0-4.58-2.05-4.58-4.58v-9.17c0-2.53,2.05-4.58,4.58-4.58h86.66
			c2.53,0,4.58,2.05,4.58,4.58v9.17C735.48,319.55,733.43,321.6,730.89,321.6z"/>
	</g>
	<g class="st6">
		<path class="st23" d="M730.89,358.28H593.8c-2.53,0-4.58-2.05-4.58-4.58v-9.17c0-2.53,2.05-4.58,4.58-4.58h137.09
			c2.53,0,4.58,2.05,4.58,4.58v9.17C735.48,356.23,733.43,358.28,730.89,358.28z"/>
	</g>
	<path class="st24" d="M605.55,546.21l15.68,15.68l21.3-21.3c1.79-1.79,1.79-4.69,0-6.48l-9.19-9.19c-1.79-1.79-4.69-1.79-6.48,0
		L605.55,546.21z"/>
	<path class="st24" d="M712.14,460.62c0-3.09-2.49-5.6-5.56-5.6c-1.54,0-2.93,0.63-3.93,1.64l-79.92,80.32l7.99,8.04l79.81-80.44
		C711.51,463.56,712.14,462.16,712.14,460.62z"/>
</g>
</svg>
