<svg width="96" height="128" viewBox="0 0 96 128" fill="none" xmlns="http://www.w3.org/2000/svg">
<path d="M71.5927 61.6493V68.6097C71.5927 70.2503 70.2503 71.5927 68.6097 71.5927H26.8473C25.2066 71.5927 23.8642 70.2503 23.8642 68.6097V61.6493C23.8642 60.0086 25.2066 58.6662 26.8473 58.6662H68.6097C70.2503 58.6662 71.5927 60.0086 71.5927 61.6493ZM68.6097 79.5474H26.8473C25.2066 79.5474 23.8642 80.8898 23.8642 82.5305V89.4909C23.8642 91.1315 25.2066 92.4739 26.8473 92.4739H68.6097C70.2503 92.4739 71.5927 91.1315 71.5927 89.4909V82.5305C71.5927 80.8898 70.2503 79.5474 68.6097 79.5474ZM95.4569 32.7885V115.344C95.4569 121.931 90.1123 127.276 83.5248 127.276H11.9321C5.34459 127.276 0 121.931 0 115.344V11.9321C0 5.34459 5.34459 0 11.9321 0H62.6685C65.8255 0 68.8582 1.26779 71.0955 3.50506L91.9519 24.3614C94.1891 26.5738 95.4569 29.6314 95.4569 32.7885ZM63.6379 12.9016V31.819H82.5553L63.6379 12.9016ZM83.5248 115.344V43.7511H57.6719C54.3657 43.7511 51.7058 41.0912 51.7058 37.785V11.9321H11.9321V115.344H83.5248Z" fill="black"/>
</svg>
