<?xml version="1.0" encoding="utf-8"?>
<!-- Generator: Adobe Illustrator 26.3.1, SVG Export Plug-In . SVG Version: 6.00 Build 0)  -->
<svg version="1.1" xmlns="http://www.w3.org/2000/svg" xmlns:xlink="http://www.w3.org/1999/xlink" x="0px" y="0px" width="1000px"
	 height="1000px" viewBox="0 0 1000 1000" style="enable-background:new 0 0 1000 1000;" xml:space="preserve">
<style type="text/css">
	.learner0{fill:none;stroke:#000000;stroke-width:30;stroke-miterlimit:10;}
	.learner1{fill:none;stroke:#000000;stroke-width:20;stroke-miterlimit:10;}
	.learner2{display:none;}
	.learner3{display:inline;fill:none;stroke:#6495ED;stroke-width:30;stroke-miterlimit:10;}
	.learner4{display:inline;fill:none;stroke:#6495ED;stroke-width:20;stroke-miterlimit:10;}
	.learner5{display:inline;fill:none;stroke:#A6D785;stroke-width:30;stroke-miterlimit:10;}
	.learner6{display:inline;fill:none;stroke:#A6D785;stroke-width:20;stroke-miterlimit:10;}
	.learner7{display:inline;fill:none;stroke:#7F7F7F;stroke-width:30;stroke-miterlimit:10;}
	.learner8{display:inline;fill:none;stroke:#7F7F7F;stroke-width:20;stroke-miterlimit:10;}
	.learner9{display:inline;fill:none;stroke:#873A8A;stroke-width:30;stroke-miterlimit:10;}
	.learner10{display:inline;fill:none;stroke:#873A8A;stroke-width:20;stroke-miterlimit:10;}
	.learner11{display:inline;fill:none;stroke:#FFFFFF;stroke-width:30;stroke-miterlimit:10;}
	.learner12{display:inline;fill:none;stroke:#FFFFFF;stroke-width:20;stroke-miterlimit:10;}
</style>
<g id="BLACK">
	<circle class="learner0" cx="499.62" cy="499.62" r="474.14"/>
	<circle class="learner1" cx="500" cy="436.29" r="79.65"/>
	<path class="learner1" d="M659.3,715.7c0-87.98-71.32-159.3-159.3-159.3s-159.3,71.32-159.3,159.3c0,0.54,0.02,1.08,0.02,1.62
		c-0.01,0.07-0.02,0.13-0.02,0.2v129.92c0,15.22,12.34,27.55,27.55,27.55h263.48c15.22,0,27.55-12.34,27.55-27.55V717.53
		c0-0.07-0.01-0.14-0.02-0.2C659.28,716.79,659.3,716.25,659.3,715.7z"/>
</g>
<g id="BLUE" class="learner2">
	<circle class="learner3" cx="499.62" cy="499.62" r="474.14"/>
	<circle class="learner4" cx="500" cy="436.29" r="79.65"/>
	<path class="learner4" d="M659.3,715.7c0-87.98-71.32-159.3-159.3-159.3s-159.3,71.32-159.3,159.3c0,0.54,0.02,1.08,0.02,1.62
		c-0.01,0.07-0.02,0.13-0.02,0.2v129.92c0,15.22,12.34,27.55,27.55,27.55h263.48c15.22,0,27.55-12.34,27.55-27.55V717.53
		c0-0.07-0.01-0.14-0.02-0.2C659.28,716.79,659.3,716.25,659.3,715.7z"/>
</g>
<g id="GREEN" class="learner2">
	<circle class="learner5" cx="499.62" cy="499.62" r="474.14"/>
	<circle class="learner6" cx="500" cy="436.29" r="79.65"/>
	<path class="learner6" d="M659.3,715.7c0-87.98-71.32-159.3-159.3-159.3s-159.3,71.32-159.3,159.3c0,0.54,0.02,1.08,0.02,1.62
		c-0.01,0.07-0.02,0.13-0.02,0.2v129.92c0,15.22,12.34,27.55,27.55,27.55h263.48c15.22,0,27.55-12.34,27.55-27.55V717.53
		c0-0.07-0.01-0.14-0.02-0.2C659.28,716.79,659.3,716.25,659.3,715.7z"/>
</g>
<g id="GREY" class="learner2">
	<circle class="learner7" cx="499.62" cy="499.62" r="474.14"/>
	<circle class="learner8" cx="500" cy="436.29" r="79.65"/>
	<path class="learner8" d="M659.3,715.7c0-87.98-71.32-159.3-159.3-159.3s-159.3,71.32-159.3,159.3c0,0.54,0.02,1.08,0.02,1.62
		c-0.01,0.07-0.02,0.13-0.02,0.2v129.92c0,15.22,12.34,27.55,27.55,27.55h263.48c15.22,0,27.55-12.34,27.55-27.55V717.53
		c0-0.07-0.01-0.14-0.02-0.2C659.28,716.79,659.3,716.25,659.3,715.7z"/>
</g>
<g id="VIOLET" class="learner2">
	<circle class="learner9" cx="499.62" cy="499.62" r="474.14"/>
	<circle class="learner10" cx="500" cy="436.29" r="79.65"/>
	<path class="learner10" d="M659.3,715.7c0-87.98-71.32-159.3-159.3-159.3s-159.3,71.32-159.3,159.3c0,0.54,0.02,1.08,0.02,1.62
		c-0.01,0.07-0.02,0.13-0.02,0.2v129.92c0,15.22,12.34,27.55,27.55,27.55h263.48c15.22,0,27.55-12.34,27.55-27.55V717.53
		c0-0.07-0.01-0.14-0.02-0.2C659.28,716.79,659.3,716.25,659.3,715.7z"/>
</g>
<g id="WHITE" class="learner2">
	<circle class="learner11" cx="499.62" cy="499.62" r="474.14"/>
	<circle class="learner12" cx="500" cy="436.29" r="79.65"/>
	<path class="learner12" d="M659.3,715.7c0-87.98-71.32-159.3-159.3-159.3s-159.3,71.32-159.3,159.3c0,0.54,0.02,1.08,0.02,1.62
		c-0.01,0.07-0.02,0.13-0.02,0.2v129.92c0,15.22,12.34,27.55,27.55,27.55h263.48c15.22,0,27.55-12.34,27.55-27.55V717.53
		c0-0.07-0.01-0.14-0.02-0.2C659.28,716.79,659.3,716.25,659.3,715.7z"/>
</g>
</svg>
