<svg width="34" height="34" viewBox="0 0 34 34" fill="black" xmlns="http://www.w3.org/2000/svg">
<path d="M23.4445 17L33.1104 7.33415C34.2965 6.14801 34.2965 4.22489 33.1104 3.03778L30.9622 0.889602C29.7761 -0.296534 27.853 -0.296534 26.6659 0.889602L17 10.5555L7.33415 0.889602C6.14801 -0.296534 4.22489 -0.296534 3.03778 0.889602L0.889602 3.03778C-0.296534 4.22392 -0.296534 6.14704 0.889602 7.33415L10.5555 17L0.889602 26.6659C-0.296534 27.852 -0.296534 29.7751 0.889602 30.9622L3.03778 33.1104C4.22392 34.2965 6.14801 34.2965 7.33415 33.1104L17 23.4445L26.6659 33.1104C27.852 34.2965 29.7761 34.2965 30.9622 33.1104L33.1104 30.9622C34.2965 29.7761 34.2965 27.853 33.1104 26.6659L23.4445 17Z"/>
</svg>
