<svg width="34" height="34" viewBox="0 0 34 34" fill="none" xmlns="http://www.w3.org/2000/svg">
<path d="M1.21429 6.2449H32.7857C33.4564 6.2449 34 5.62362 34 4.85714V1.38776C34 0.621281 33.4564 0 32.7857 0H1.21429C0.543621 0 0 0.621281 0 1.38776V4.85714C0 5.62362 0.543621 6.2449 1.21429 6.2449ZM1.21429 20.1224H32.7857C33.4564 20.1224 34 19.5012 34 18.7347V15.2653C34 14.4988 33.4564 13.8776 32.7857 13.8776H1.21429C0.543621 13.8776 0 14.4988 0 15.2653V18.7347C0 19.5012 0.543621 20.1224 1.21429 20.1224ZM1.21429 34H32.7857C33.4564 34 34 33.3787 34 32.6122V29.1429C34 28.3764 33.4564 27.7551 32.7857 27.7551H1.21429C0.543621 27.7551 0 28.3764 0 29.1429V32.6122C0 33.3787 0.543621 34 1.21429 34Z" fill="black"/>
</svg>
