<svg width="109" height="106" viewBox="0 0 109 106" fill="none" xmlns="http://www.w3.org/2000/svg">
<ellipse cx="54.5" cy="53" rx="54.5" ry="53" fill="#D9D9D9"/>
<path d="M48.9625 30.3211L52.4275 27.673C53.8947 26.5517 56.2671 26.5517 57.7186 27.673L88.0606 50.8497C89.5278 51.9709 89.5278 53.784 88.0606 54.8934L57.7186 78.082C56.2515 79.2033 53.879 79.2033 52.4275 78.082L48.9625 75.4339C47.4798 74.3007 47.511 72.4518 49.0249 71.3425L67.8326 57.6488H22.9752C20.8993 57.6488 19.2292 56.3725 19.2292 54.786V50.969C19.2292 49.3825 20.8993 48.1062 22.9752 48.1062H67.8326L49.0249 34.4125C47.4954 33.3031 47.4641 31.4543 48.9625 30.3211Z" fill="black"/>
</svg>
