<?xml version="1.0" encoding="utf-8"?>
<!-- Generator: Adobe Illustrator 26.3.1, SVG Export Plug-In . SVG Version: 6.00 Build 0)  -->
<svg version="1.1" xmlns="http://www.w3.org/2000/svg" xmlns:xlink="http://www.w3.org/1999/xlink" x="0px" y="0px"
	 width="1034.26px" height="850.39px" viewBox="100 120 730 400" style="enable-background:new 0 0 1034.26 850.39;"
	 xml:space="preserve">
<style type="text/css">
	.st0{display:none;}
	.st1{display:inline;}
	.st2{fill:none;}
	.st3{fill:#6495ED;}
	.st4{opacity:0.75;fill:#6495ED;}
	.st5{fill:none;stroke:#6495ED;stroke-width:20;stroke-miterlimit:10;}
	.st6{opacity:0.5;fill:none;stroke:#6495ED;stroke-width:10;stroke-miterlimit:10;}
	.st7{display:inline;opacity:0.75;fill:#6495ED;}
	.st8{display:inline;fill:none;stroke:#6495ED;stroke-width:20;stroke-miterlimit:10;}
	.st9{display:inline;opacity:0.5;fill:none;stroke:#6495ED;stroke-width:10;stroke-miterlimit:10;}
	.st10{opacity:0.75;fill:none;stroke:#6495ED;stroke-width:10;stroke-miterlimit:10;stroke-dasharray:12;}
	.st11{display:inline;opacity:0.75;}
	.st12{display:inline;opacity:0.75;fill:none;stroke:#000000;stroke-width:10;stroke-miterlimit:10;stroke-dasharray:12;}
	.st13{display:inline;fill:none;stroke:#000000;stroke-width:20;stroke-miterlimit:10;}
	.st14{display:inline;opacity:0.5;fill:none;stroke:#000000;stroke-width:10;stroke-miterlimit:10;}
	.st15{display:inline;opacity:0.75;fill:#7F7F7F;}
	.st16{display:inline;opacity:0.75;fill:none;stroke:#7F7F7F;stroke-width:10;stroke-miterlimit:10;stroke-dasharray:12;}
	.st17{display:inline;fill:none;stroke:#7F7F7F;stroke-width:20;stroke-miterlimit:10;}
	.st18{display:inline;fill:#7F7F7F;}
	.st19{display:inline;opacity:0.5;fill:none;stroke:#7F7F7F;stroke-width:10;stroke-miterlimit:10;}
	.st20{fill:#7F7F7F;}
	.st21{fill:#232323;}
	.st22{opacity:0.75;fill:#636363;}
	.st23{opacity:0.75;fill:none;stroke:#636363;stroke-width:10;stroke-miterlimit:10;stroke-dasharray:12;}
	.st24{fill:none;stroke:#232323;stroke-width:20;stroke-miterlimit:10;}
	.st25{opacity:0.5;fill:none;stroke:#828282;stroke-width:10;stroke-miterlimit:10;}
	.st26{display:inline;opacity:0.75;fill:none;stroke:#6495ED;stroke-width:10;stroke-miterlimit:10;stroke-dasharray:12;}
	.st27{display:inline;fill:#6495ED;}
	.st28{fill:#FFFFFF;}
	.st29{display:inline;opacity:0.75;fill:#FFFFFF;}
	.st30{display:inline;opacity:0.75;fill:none;stroke:#FFFFFF;stroke-width:10;stroke-miterlimit:10;stroke-dasharray:12;}
	.st31{display:inline;fill:none;stroke:#FFFFFF;stroke-width:20;stroke-miterlimit:10;}
	.st32{display:inline;fill:#FFFFFF;}
	.st33{display:inline;opacity:0.5;fill:none;stroke:#FFFFFF;stroke-width:10;stroke-miterlimit:10;}
</style>
<g id="Layer_3_copy" class="st0">
	<g class="st1">
		<rect x="267.51" y="315.63" class="st2" width="692.51" height="194"/>
		<path class="st3" d="M307.23,403.83c-6.2,0-11.79-1.07-16.77-3.21s-9.08-5.2-12.3-9.18c-3.22-3.98-5.31-8.71-6.27-14.19
			l13.08-1.98c1.32,5.28,4.08,9.39,8.28,12.33c4.2,2.94,9.1,4.41,14.7,4.41c3.48,0,6.68-0.55,9.6-1.65c2.92-1.1,5.27-2.68,7.05-4.74
			c1.78-2.06,2.67-4.53,2.67-7.41c0-1.56-0.27-2.94-0.81-4.14s-1.28-2.25-2.22-3.15c-0.94-0.9-2.08-1.68-3.42-2.34
			c-1.34-0.66-2.81-1.23-4.41-1.71l-22.14-6.54c-2.16-0.64-4.36-1.47-6.6-2.49c-2.24-1.02-4.29-2.36-6.15-4.02
			c-1.86-1.66-3.37-3.72-4.53-6.18c-1.16-2.46-1.74-5.45-1.74-8.97c0-5.32,1.37-9.83,4.11-13.53c2.74-3.7,6.45-6.5,11.13-8.4
			c4.68-1.9,9.92-2.85,15.72-2.85c5.84,0.08,11.07,1.12,15.69,3.12c4.62,2,8.46,4.87,11.52,8.61c3.06,3.74,5.17,8.27,6.33,13.59
			l-13.44,2.28c-0.6-3.24-1.88-6.03-3.84-8.37c-1.96-2.34-4.36-4.14-7.2-5.4c-2.84-1.26-5.92-1.91-9.24-1.95
			c-3.2-0.08-6.13,0.4-8.79,1.44c-2.66,1.04-4.78,2.5-6.36,4.38c-1.58,1.88-2.37,4.04-2.37,6.48c0,2.4,0.7,4.34,2.1,5.82
			c1.4,1.48,3.13,2.65,5.19,3.51c2.06,0.86,4.11,1.57,6.15,2.13l15.96,4.5c2,0.56,4.27,1.31,6.81,2.25c2.54,0.94,5,2.25,7.38,3.93
			c2.38,1.68,4.35,3.91,5.91,6.69s2.34,6.27,2.34,10.47c0,4.36-0.88,8.19-2.64,11.49c-1.76,3.3-4.17,6.06-7.23,8.28
			c-3.06,2.22-6.59,3.89-10.59,5.01C315.88,403.27,311.67,403.83,307.23,403.83z"/>
		<path class="st3" d="M353.66,402.03l0.06-86.4h12.72v52.8l25.44-31.2h15.96l-26.88,32.4l29.64,32.4h-17.04l-27.12-31.2v31.2
			H353.66z"/>
		<path class="st3" d="M418.4,326.61v-12.18h12.54v12.18H418.4z M418.4,402.03v-64.8h12.54v64.8H418.4z"/>
		<path class="st3" d="M450.74,402.03v-88.2h12.54v88.2H450.74z"/>
		<path class="st3" d="M483.08,402.03v-88.2h12.54v88.2H483.08z"/>
		<path class="st3" d="M539,403.77c-7.88,0-14.3-1.74-19.26-5.22c-4.96-3.48-8-8.38-9.12-14.7l12.84-1.98
			c0.8,3.36,2.65,6.01,5.55,7.95c2.9,1.94,6.51,2.91,10.83,2.91c3.92,0,6.99-0.8,9.21-2.4c2.22-1.6,3.33-3.8,3.33-6.6
			c0-1.64-0.39-2.97-1.17-3.99c-0.78-1.02-2.41-1.99-4.89-2.91c-2.48-0.92-6.26-2.06-11.34-3.42c-5.56-1.44-9.97-2.99-13.23-4.65
			c-3.26-1.66-5.58-3.6-6.96-5.82s-2.07-4.91-2.07-8.07c0-3.92,1.04-7.34,3.12-10.26s5.01-5.18,8.79-6.78
			c3.78-1.6,8.21-2.4,13.29-2.4c4.96,0,9.38,0.78,13.26,2.34c3.88,1.56,7.02,3.77,9.42,6.63c2.4,2.86,3.84,6.21,4.32,10.05
			l-12.84,2.34c-0.44-3.12-1.9-5.58-4.38-7.38c-2.48-1.8-5.7-2.78-9.66-2.94c-3.8-0.16-6.88,0.47-9.24,1.89
			c-2.36,1.42-3.54,3.37-3.54,5.85c0,1.44,0.45,2.66,1.35,3.66c0.9,1,2.65,1.96,5.25,2.88c2.6,0.92,6.44,2.02,11.52,3.3
			c5.44,1.4,9.76,2.95,12.96,4.65c3.2,1.7,5.49,3.72,6.87,6.06c1.38,2.34,2.07,5.17,2.07,8.49c0,6.4-2.33,11.42-6.99,15.06
			C553.63,401.95,547.2,403.77,539,403.77z"/>
		<path class="st3" d="M579.14,402.03v-86.4h11.34l31.32,64.98l31.14-64.98h11.46v86.34h-11.88v-59.1l-27.9,59.16h-5.7l-27.96-59.16
			v59.16H579.14z"/>
		<path class="st3" d="M700.1,403.83c-4.8,0-8.82-0.89-12.06-2.67c-3.24-1.78-5.69-4.14-7.35-7.08c-1.66-2.94-2.49-6.17-2.49-9.69
			c0-3.28,0.58-6.16,1.74-8.64c1.16-2.48,2.88-4.59,5.16-6.33c2.28-1.74,5.08-3.15,8.4-4.23c2.88-0.84,6.14-1.58,9.78-2.22
			c3.64-0.64,7.47-1.24,11.49-1.8c4.02-0.56,8.01-1.12,11.97-1.68l-4.56,2.52c0.08-5.08-0.99-8.85-3.21-11.31
			c-2.22-2.46-6.03-3.69-11.43-3.69c-3.4,0-6.52,0.79-9.36,2.37c-2.84,1.58-4.82,4.19-5.94,7.83l-11.7-3.6
			c1.6-5.56,4.65-9.98,9.15-13.26c4.5-3.28,10.49-4.92,17.97-4.92c5.8,0,10.85,0.99,15.15,2.97c4.3,1.98,7.45,5.11,9.45,9.39
			c1.04,2.12,1.68,4.36,1.92,6.72c0.24,2.36,0.36,4.9,0.36,7.62v39.9h-11.1v-14.82l2.16,1.92c-2.68,4.96-6.09,8.65-10.23,11.07
			C711.23,402.62,706.14,403.83,700.1,403.83z M702.32,393.57c3.56,0,6.62-0.63,9.18-1.89c2.56-1.26,4.62-2.87,6.18-4.83
			c1.56-1.96,2.58-4,3.06-6.12c0.68-1.92,1.07-4.08,1.17-6.48c0.1-2.4,0.15-4.32,0.15-5.76l4.08,1.5c-3.96,0.6-7.56,1.14-10.8,1.62
			c-3.24,0.48-6.17,0.95-8.79,1.41c-2.62,0.46-4.95,1.01-6.99,1.65c-1.72,0.6-3.25,1.32-4.59,2.16c-1.34,0.84-2.4,1.86-3.18,3.06
			c-0.78,1.2-1.17,2.66-1.17,4.38c0,1.68,0.42,3.23,1.26,4.65c0.84,1.42,2.12,2.55,3.84,3.39
			C697.44,393.15,699.64,393.57,702.32,393.57z"/>
		<path class="st3" d="M750.68,430.83v-93.6h11.16v46.62h1.44v46.98H750.68z M781.16,403.83c-6.2,0-11.4-1.51-15.6-4.53
			c-4.2-3.02-7.38-7.11-9.54-12.27s-3.24-10.98-3.24-17.46c0-6.48,1.07-12.3,3.21-17.46c2.14-5.16,5.3-9.23,9.48-12.21
			c4.18-2.98,9.33-4.47,15.45-4.47c6.08,0,11.33,1.49,15.75,4.47c4.42,2.98,7.83,7.04,10.23,12.18c2.4,5.14,3.6,10.97,3.6,17.49
			c0,6.48-1.19,12.31-3.57,17.49c-2.38,5.18-5.76,9.27-10.14,12.27S787.2,403.83,781.16,403.83z M779.42,392.49
			c4,0,7.31-1.02,9.93-3.06c2.62-2.04,4.58-4.79,5.88-8.25s1.95-7.33,1.95-11.61c0-4.24-0.65-8.08-1.95-11.52
			c-1.3-3.44-3.29-6.18-5.97-8.22c-2.68-2.04-6.1-3.06-10.26-3.06c-3.92,0-7.15,0.96-9.69,2.88s-4.42,4.6-5.64,8.04
			c-1.22,3.44-1.83,7.4-1.83,11.88c0,4.48,0.6,8.44,1.8,11.88c1.2,3.44,3.1,6.14,5.7,8.1C771.94,391.51,775.3,392.49,779.42,392.49z
			"/>
		<path class="st3" d="M891.98,407.85c-6.6,0-12.8-1.24-18.6-3.72c-5.8-2.48-10.89-5.92-15.27-10.32s-7.81-9.5-10.29-15.3
			c-2.48-5.8-3.72-12-3.72-18.6c0-6.64,1.24-12.85,3.72-18.63c2.48-5.78,5.91-10.87,10.29-15.27s9.47-7.84,15.27-10.32
			c5.8-2.48,12-3.72,18.6-3.72c6.68,0,12.91,1.25,18.69,3.75c5.78,2.5,10.86,5.94,15.24,10.32s7.81,9.46,10.29,15.24
			c2.48,5.78,3.72,11.99,3.72,18.63c0,6.6-1.24,12.8-3.72,18.6c-2.48,5.8-5.91,10.89-10.29,15.27s-9.46,7.82-15.24,10.32
			C904.89,406.6,898.66,407.85,891.98,407.85z M892.04,395.91c4.96,0,9.61-0.93,13.95-2.79c4.34-1.86,8.16-4.44,11.46-7.74
			c3.3-3.3,5.88-7.13,7.74-11.49c1.86-4.36,2.79-9.04,2.79-14.04c0-4.96-0.93-9.61-2.79-13.95c-1.86-4.34-4.44-8.16-7.74-11.46
			s-7.12-5.88-11.46-7.74c-4.34-1.86-8.99-2.79-13.95-2.79c-5,0-9.68,0.93-14.04,2.79c-4.36,1.86-8.19,4.44-11.49,7.74
			s-5.88,7.12-7.74,11.46c-1.86,4.34-2.79,8.99-2.79,13.95c0,5,0.93,9.68,2.79,14.04c1.86,4.36,4.44,8.19,7.74,11.49
			c3.3,3.3,7.13,5.88,11.49,7.74C882.36,394.98,887.04,395.91,892.04,395.91z M892.82,385.41c-3.88,0-7.26-0.64-10.14-1.92
			c-2.88-1.28-5.44-3.28-7.68-6c-2.08-2.64-3.55-5.45-4.41-8.43c-0.86-2.98-1.29-6.05-1.29-9.21c0.04-3.32,0.51-6.46,1.41-9.42
			s2.33-5.66,4.29-8.1c2.2-2.68,4.78-4.68,7.74-6c2.96-1.32,6.48-1.98,10.56-1.98c2.24,0,4.3,0.22,6.18,0.66
			c1.88,0.44,3.8,1.28,5.76,2.52c2.12,1.24,3.95,2.86,5.49,4.86c1.54,2,2.63,4.32,3.27,6.96l-9.78,2.7c-0.4-1.16-0.96-2.26-1.68-3.3
			c-0.72-1.04-1.62-1.98-2.7-2.82c-0.96-0.84-2.05-1.44-3.27-1.8c-1.22-0.36-2.49-0.54-3.81-0.54c-2.04,0-3.89,0.41-5.55,1.23
			c-1.66,0.82-3.09,1.99-4.29,3.51c-1.2,1.52-2.02,3.3-2.46,5.34c-0.44,2.04-0.66,4.08-0.66,6.12c0,2.16,0.25,4.24,0.75,6.24
			c0.5,2,1.29,3.78,2.37,5.34c1.12,1.52,2.52,2.68,4.2,3.48c1.68,0.8,3.6,1.2,5.76,1.2c2.96,0,5.36-0.72,7.2-2.16
			c0.96-0.8,1.74-1.66,2.34-2.58s1.14-1.96,1.62-3.12l9.96,2.28c-0.76,2.32-1.81,4.41-3.15,6.27s-2.87,3.43-4.59,4.71
			c-1.8,1.28-3.76,2.26-5.88,2.94C898.26,385.07,895.74,385.41,892.82,385.41z"/>
	</g>
</g>
<g id="Layer_1" class="st0">
	<g class="st1">
		<circle class="st4" cx="127.44" cy="215.41" r="45.1"/>
		<circle class="st5" cx="275.89" cy="202.89" r="59.69"/>
		<circle class="st6" cx="187.6" cy="313.98" r="32.35"/>
	</g>
</g>
<g id="Layer_5" class="st0">
	<circle class="st7" cx="697.56" cy="359.58" r="45.1"/>
	<circle class="st8" cx="846.02" cy="347.05" r="59.69"/>
	<circle class="st9" cx="590.48" cy="405.79" r="32.35"/>
</g>
<g id="Layer_6" class="st0">
	<circle class="st7" cx="235.51" cy="419.58" r="45.1"/>
	<circle class="st8" cx="383.97" cy="407.06" r="59.69"/>
	<circle class="st9" cx="128.43" cy="465.8" r="32.35"/>
</g>
<g id="Layer_4" class="st0">
	<g class="st1">
		<rect x="194.85" y="507.19" class="st2" width="692.51" height="194"/>
		<path class="st3" d="M234.57,595.39c-6.2,0-11.79-1.07-16.77-3.21s-9.08-5.2-12.3-9.18c-3.22-3.98-5.31-8.71-6.27-14.19
			l13.08-1.98c1.32,5.28,4.08,9.39,8.28,12.33c4.2,2.94,9.1,4.41,14.7,4.41c3.48,0,6.68-0.55,9.6-1.65c2.92-1.1,5.27-2.68,7.05-4.74
			c1.78-2.06,2.67-4.53,2.67-7.41c0-1.56-0.27-2.94-0.81-4.14s-1.28-2.25-2.22-3.15c-0.94-0.9-2.08-1.68-3.42-2.34
			c-1.34-0.66-2.81-1.23-4.41-1.71l-22.14-6.54c-2.16-0.64-4.36-1.47-6.6-2.49c-2.24-1.02-4.29-2.36-6.15-4.02
			c-1.86-1.66-3.37-3.72-4.53-6.18c-1.16-2.46-1.74-5.45-1.74-8.97c0-5.32,1.37-9.83,4.11-13.53c2.74-3.7,6.45-6.5,11.13-8.4
			c4.68-1.9,9.92-2.85,15.72-2.85c5.84,0.08,11.07,1.12,15.69,3.12c4.62,2,8.46,4.87,11.52,8.61c3.06,3.74,5.17,8.27,6.33,13.59
			l-13.44,2.28c-0.6-3.24-1.88-6.03-3.84-8.37c-1.96-2.34-4.36-4.14-7.2-5.4c-2.84-1.26-5.92-1.91-9.24-1.95
			c-3.2-0.08-6.13,0.4-8.79,1.44c-2.66,1.04-4.78,2.5-6.36,4.38c-1.58,1.88-2.37,4.04-2.37,6.48c0,2.4,0.7,4.34,2.1,5.82
			c1.4,1.48,3.13,2.65,5.19,3.51c2.06,0.86,4.11,1.57,6.15,2.13l15.96,4.5c2,0.56,4.27,1.31,6.81,2.25c2.54,0.94,5,2.25,7.38,3.93
			c2.38,1.68,4.35,3.91,5.91,6.69s2.34,6.27,2.34,10.47c0,4.36-0.88,8.19-2.64,11.49c-1.76,3.3-4.17,6.06-7.23,8.28
			c-3.06,2.22-6.59,3.89-10.59,5.01C243.23,594.83,239.01,595.39,234.57,595.39z"/>
		<path class="st3" d="M281.01,593.59l0.06-86.4h12.72v52.8l25.44-31.2h15.96l-26.88,32.4l29.64,32.4h-17.04l-27.12-31.2v31.2
			H281.01z"/>
		<path class="st3" d="M345.75,518.17v-12.18h12.54v12.18H345.75z M345.75,593.59v-64.8h12.54v64.8H345.75z"/>
		<path class="st3" d="M378.08,593.59v-88.2h12.54v88.2H378.08z"/>
		<path class="st3" d="M410.42,593.59v-88.2h12.54v88.2H410.42z"/>
		<path class="st3" d="M466.34,595.33c-7.88,0-14.3-1.74-19.26-5.22c-4.96-3.48-8-8.38-9.12-14.7l12.84-1.98
			c0.8,3.36,2.65,6.01,5.55,7.95c2.9,1.94,6.51,2.91,10.83,2.91c3.92,0,6.99-0.8,9.21-2.4c2.22-1.6,3.33-3.8,3.33-6.6
			c0-1.64-0.39-2.97-1.17-3.99c-0.78-1.02-2.41-1.99-4.89-2.91c-2.48-0.92-6.26-2.06-11.34-3.42c-5.56-1.44-9.97-2.99-13.23-4.65
			c-3.26-1.66-5.58-3.6-6.96-5.82s-2.07-4.91-2.07-8.07c0-3.92,1.04-7.34,3.12-10.26s5.01-5.18,8.79-6.78
			c3.78-1.6,8.21-2.4,13.29-2.4c4.96,0,9.38,0.78,13.26,2.34c3.88,1.56,7.02,3.77,9.42,6.63c2.4,2.86,3.84,6.21,4.32,10.05
			l-12.84,2.34c-0.44-3.12-1.9-5.58-4.38-7.38c-2.48-1.8-5.7-2.78-9.66-2.94c-3.8-0.16-6.88,0.47-9.24,1.89
			c-2.36,1.42-3.54,3.37-3.54,5.85c0,1.44,0.45,2.66,1.35,3.66c0.9,1,2.65,1.96,5.25,2.88c2.6,0.92,6.44,2.02,11.52,3.3
			c5.44,1.4,9.76,2.95,12.96,4.65c3.2,1.7,5.49,3.72,6.87,6.06c1.38,2.34,2.07,5.17,2.07,8.49c0,6.4-2.33,11.42-6.99,15.06
			C480.97,593.51,474.54,595.33,466.34,595.33z"/>
		<path class="st3" d="M506.48,593.59v-86.4h11.34l31.32,64.98l31.14-64.98h11.46v86.34h-11.88v-59.1l-27.9,59.16h-5.7l-27.96-59.16
			v59.16H506.48z"/>
		<path class="st3" d="M627.44,595.39c-4.8,0-8.82-0.89-12.06-2.67c-3.24-1.78-5.69-4.14-7.35-7.08c-1.66-2.94-2.49-6.17-2.49-9.69
			c0-3.28,0.58-6.16,1.74-8.64c1.16-2.48,2.88-4.59,5.16-6.33c2.28-1.74,5.08-3.15,8.4-4.23c2.88-0.84,6.14-1.58,9.78-2.22
			c3.64-0.64,7.47-1.24,11.49-1.8c4.02-0.56,8.01-1.12,11.97-1.68l-4.56,2.52c0.08-5.08-0.99-8.85-3.21-11.31
			c-2.22-2.46-6.03-3.69-11.43-3.69c-3.4,0-6.52,0.79-9.36,2.37c-2.84,1.58-4.82,4.19-5.94,7.83l-11.7-3.6
			c1.6-5.56,4.65-9.98,9.15-13.26c4.5-3.28,10.49-4.92,17.97-4.92c5.8,0,10.85,0.99,15.15,2.97c4.3,1.98,7.45,5.11,9.45,9.39
			c1.04,2.12,1.68,4.36,1.92,6.72c0.24,2.36,0.36,4.9,0.36,7.62v39.9h-11.1v-14.82l2.16,1.92c-2.68,4.96-6.09,8.65-10.23,11.07
			C638.57,594.18,633.48,595.39,627.44,595.39z M629.66,585.13c3.56,0,6.62-0.63,9.18-1.89c2.56-1.26,4.62-2.87,6.18-4.83
			c1.56-1.96,2.58-4,3.06-6.12c0.68-1.92,1.07-4.08,1.17-6.48c0.1-2.4,0.15-4.32,0.15-5.76l4.08,1.5c-3.96,0.6-7.56,1.14-10.8,1.62
			c-3.24,0.48-6.17,0.95-8.79,1.41c-2.62,0.46-4.95,1.01-6.99,1.65c-1.72,0.6-3.25,1.32-4.59,2.16c-1.34,0.84-2.4,1.86-3.18,3.06
			c-0.78,1.2-1.17,2.66-1.17,4.38c0,1.68,0.42,3.23,1.26,4.65c0.84,1.42,2.12,2.55,3.84,3.39
			C624.78,584.71,626.98,585.13,629.66,585.13z"/>
		<path class="st3" d="M678.02,622.39v-93.6h11.16v46.62h1.44v46.98H678.02z M708.5,595.39c-6.2,0-11.4-1.51-15.6-4.53
			c-4.2-3.02-7.38-7.11-9.54-12.27s-3.24-10.98-3.24-17.46c0-6.48,1.07-12.3,3.21-17.46c2.14-5.16,5.3-9.23,9.48-12.21
			c4.18-2.98,9.33-4.47,15.45-4.47c6.08,0,11.33,1.49,15.75,4.47c4.42,2.98,7.83,7.04,10.23,12.18c2.4,5.14,3.6,10.97,3.6,17.49
			c0,6.48-1.19,12.31-3.57,17.49c-2.38,5.18-5.76,9.27-10.14,12.27S714.54,595.39,708.5,595.39z M706.76,584.05
			c4,0,7.31-1.02,9.93-3.06c2.62-2.04,4.58-4.79,5.88-8.25s1.95-7.33,1.95-11.61c0-4.24-0.65-8.08-1.95-11.52
			c-1.3-3.44-3.29-6.18-5.97-8.22c-2.68-2.04-6.1-3.06-10.26-3.06c-3.92,0-7.15,0.96-9.69,2.88s-4.42,4.6-5.64,8.04
			c-1.22,3.44-1.83,7.4-1.83,11.88c0,4.48,0.6,8.44,1.8,11.88c1.2,3.44,3.1,6.14,5.7,8.1C699.28,583.07,702.64,584.05,706.76,584.05
			z"/>
		<path class="st3" d="M819.32,599.41c-6.6,0-12.8-1.24-18.6-3.72c-5.8-2.48-10.89-5.92-15.27-10.32s-7.81-9.5-10.29-15.3
			c-2.48-5.8-3.72-12-3.72-18.6c0-6.64,1.24-12.85,3.72-18.63c2.48-5.78,5.91-10.87,10.29-15.27s9.47-7.84,15.27-10.32
			c5.8-2.48,12-3.72,18.6-3.72c6.68,0,12.91,1.25,18.69,3.75c5.78,2.5,10.86,5.94,15.24,10.32s7.81,9.46,10.29,15.24
			c2.48,5.78,3.72,11.99,3.72,18.63c0,6.6-1.24,12.8-3.72,18.6c-2.48,5.8-5.91,10.89-10.29,15.27s-9.46,7.82-15.24,10.32
			C832.23,598.16,826,599.41,819.32,599.41z M819.38,587.47c4.96,0,9.61-0.93,13.95-2.79c4.34-1.86,8.16-4.44,11.46-7.74
			c3.3-3.3,5.88-7.13,7.74-11.49c1.86-4.36,2.79-9.04,2.79-14.04c0-4.96-0.93-9.61-2.79-13.95c-1.86-4.34-4.44-8.16-7.74-11.46
			s-7.12-5.88-11.46-7.74c-4.34-1.86-8.99-2.79-13.95-2.79c-5,0-9.68,0.93-14.04,2.79c-4.36,1.86-8.19,4.44-11.49,7.74
			s-5.88,7.12-7.74,11.46c-1.86,4.34-2.79,8.99-2.79,13.95c0,5,0.93,9.68,2.79,14.04c1.86,4.36,4.44,8.19,7.74,11.49
			c3.3,3.3,7.13,5.88,11.49,7.74C809.7,586.54,814.38,587.47,819.38,587.47z M820.16,576.97c-3.88,0-7.26-0.64-10.14-1.92
			c-2.88-1.28-5.44-3.28-7.68-6c-2.08-2.64-3.55-5.45-4.41-8.43c-0.86-2.98-1.29-6.05-1.29-9.21c0.04-3.32,0.51-6.46,1.41-9.42
			s2.33-5.66,4.29-8.1c2.2-2.68,4.78-4.68,7.74-6c2.96-1.32,6.48-1.98,10.56-1.98c2.24,0,4.3,0.22,6.18,0.66
			c1.88,0.44,3.8,1.28,5.76,2.52c2.12,1.24,3.95,2.86,5.49,4.86c1.54,2,2.63,4.32,3.27,6.96l-9.78,2.7c-0.4-1.16-0.96-2.26-1.68-3.3
			c-0.72-1.04-1.62-1.98-2.7-2.82c-0.96-0.84-2.05-1.44-3.27-1.8c-1.22-0.36-2.49-0.54-3.81-0.54c-2.04,0-3.89,0.41-5.55,1.23
			c-1.66,0.82-3.09,1.99-4.29,3.51c-1.2,1.52-2.02,3.3-2.46,5.34c-0.44,2.04-0.66,4.08-0.66,6.12c0,2.16,0.25,4.24,0.75,6.24
			c0.5,2,1.29,3.78,2.37,5.34c1.12,1.52,2.52,2.68,4.2,3.48c1.68,0.8,3.6,1.2,5.76,1.2c2.96,0,5.36-0.72,7.2-2.16
			c0.96-0.8,1.74-1.66,2.34-2.58s1.14-1.96,1.62-3.12l9.96,2.28c-0.76,2.32-1.81,4.41-3.15,6.27s-2.87,3.43-4.59,4.71
			c-1.8,1.28-3.76,2.26-5.88,2.94C825.6,576.63,823.08,576.97,820.16,576.97z"/>
	</g>
</g>
<g id="Final_2" class="st0">
	<g class="st1">
		<circle class="st4" cx="330.18" cy="391.52" r="45.1"/>
		<path class="st10" d="M633.58,333.3c0,0-129.6-81.26-258.18,24.69"/>
		<circle class="st5" cx="705.15" cy="378.99" r="59.69"/>
		<circle class="st3" cx="493.84" cy="439.01" r="29.84"/>
		<path class="st5" d="M651.54,405.32c0,0-72.8,98.43-137.16,47.31"/>
		<circle class="st6" cx="201.8" cy="437.73" r="32.35"/>
		<circle class="st6" cx="107.71" cy="406.83" r="22.16"/>
		<circle class="st6" cx="142.46" cy="524.71" r="22.16"/>
	</g>
</g>
<g id="Final_1" class="st0">
	<g class="st1">
		<rect x="193.77" y="528.87" class="st2" width="692.51" height="194"/>
		<path class="st3" d="M233.49,617.07c-6.2,0-11.79-1.07-16.77-3.21s-9.08-5.2-12.3-9.18c-3.22-3.98-5.31-8.71-6.27-14.19
			l13.08-1.98c1.32,5.28,4.08,9.39,8.28,12.33c4.2,2.94,9.1,4.41,14.7,4.41c3.48,0,6.68-0.55,9.6-1.65c2.92-1.1,5.27-2.68,7.05-4.74
			c1.78-2.06,2.67-4.53,2.67-7.41c0-1.56-0.27-2.94-0.81-4.14s-1.28-2.25-2.22-3.15c-0.94-0.9-2.08-1.68-3.42-2.34
			c-1.34-0.66-2.81-1.23-4.41-1.71l-22.14-6.54c-2.16-0.64-4.36-1.47-6.6-2.49c-2.24-1.02-4.29-2.36-6.15-4.02
			c-1.86-1.66-3.37-3.72-4.53-6.18c-1.16-2.46-1.74-5.45-1.74-8.97c0-5.32,1.37-9.83,4.11-13.53c2.74-3.7,6.45-6.5,11.13-8.4
			c4.68-1.9,9.92-2.85,15.72-2.85c5.84,0.08,11.07,1.12,15.69,3.12c4.62,2,8.46,4.87,11.52,8.61c3.06,3.74,5.17,8.27,6.33,13.59
			l-13.44,2.28c-0.6-3.24-1.88-6.03-3.84-8.37c-1.96-2.34-4.36-4.14-7.2-5.4c-2.84-1.26-5.92-1.91-9.24-1.95
			c-3.2-0.08-6.13,0.4-8.79,1.44c-2.66,1.04-4.78,2.5-6.36,4.38c-1.58,1.88-2.37,4.04-2.37,6.48c0,2.4,0.7,4.34,2.1,5.82
			c1.4,1.48,3.13,2.65,5.19,3.51c2.06,0.86,4.11,1.57,6.15,2.13l15.96,4.5c2,0.56,4.27,1.31,6.81,2.25c2.54,0.94,5,2.25,7.38,3.93
			c2.38,1.68,4.35,3.91,5.91,6.69s2.34,6.27,2.34,10.47c0,4.36-0.88,8.19-2.64,11.49c-1.76,3.3-4.17,6.06-7.23,8.28
			c-3.06,2.22-6.59,3.89-10.59,5.01C242.15,616.51,237.93,617.07,233.49,617.07z"/>
		<path class="st3" d="M279.93,615.27l0.06-86.4h12.72v52.8l25.44-31.2h15.96l-26.88,32.4l29.64,32.4h-17.04l-27.12-31.2v31.2
			H279.93z"/>
		<path class="st3" d="M344.67,539.85v-12.18h12.54v12.18H344.67z M344.67,615.27v-64.8h12.54v64.8H344.67z"/>
		<path class="st3" d="M377.01,615.27v-88.2h12.54v88.2H377.01z"/>
		<path class="st3" d="M409.35,615.27v-88.2h12.54v88.2H409.35z"/>
		<path class="st3" d="M465.27,617.01c-7.88,0-14.3-1.74-19.26-5.22c-4.96-3.48-8-8.38-9.12-14.7l12.84-1.98
			c0.8,3.36,2.65,6.01,5.55,7.95c2.9,1.94,6.51,2.91,10.83,2.91c3.92,0,6.99-0.8,9.21-2.4c2.22-1.6,3.33-3.8,3.33-6.6
			c0-1.64-0.39-2.97-1.17-3.99c-0.78-1.02-2.41-1.99-4.89-2.91c-2.48-0.92-6.26-2.06-11.34-3.42c-5.56-1.44-9.97-2.99-13.23-4.65
			c-3.26-1.66-5.58-3.6-6.96-5.82s-2.07-4.91-2.07-8.07c0-3.92,1.04-7.34,3.12-10.26s5.01-5.18,8.79-6.78
			c3.78-1.6,8.21-2.4,13.29-2.4c4.96,0,9.38,0.78,13.26,2.34c3.88,1.56,7.02,3.77,9.42,6.63c2.4,2.86,3.84,6.21,4.32,10.05
			l-12.84,2.34c-0.44-3.12-1.9-5.58-4.38-7.38c-2.48-1.8-5.7-2.78-9.66-2.94c-3.8-0.16-6.88,0.47-9.24,1.89
			c-2.36,1.42-3.54,3.37-3.54,5.85c0,1.44,0.45,2.66,1.35,3.66c0.9,1,2.65,1.96,5.25,2.88c2.6,0.92,6.44,2.02,11.52,3.3
			c5.44,1.4,9.76,2.95,12.96,4.65c3.2,1.7,5.49,3.72,6.87,6.06c1.38,2.34,2.07,5.17,2.07,8.49c0,6.4-2.33,11.42-6.99,15.06
			C479.9,615.19,473.47,617.01,465.27,617.01z"/>
		<path class="st3" d="M505.41,615.27v-86.4h11.34l31.32,64.98l31.14-64.98h11.46v86.34h-11.88v-59.1l-27.9,59.16h-5.7l-27.96-59.16
			v59.16H505.41z"/>
		<path class="st3" d="M626.37,617.07c-4.8,0-8.82-0.89-12.06-2.67c-3.24-1.78-5.69-4.14-7.35-7.08c-1.66-2.94-2.49-6.17-2.49-9.69
			c0-3.28,0.58-6.16,1.74-8.64c1.16-2.48,2.88-4.59,5.16-6.33c2.28-1.74,5.08-3.15,8.4-4.23c2.88-0.84,6.14-1.58,9.78-2.22
			c3.64-0.64,7.47-1.24,11.49-1.8c4.02-0.56,8.01-1.12,11.97-1.68l-4.56,2.52c0.08-5.08-0.99-8.85-3.21-11.31
			c-2.22-2.46-6.03-3.69-11.43-3.69c-3.4,0-6.52,0.79-9.36,2.37c-2.84,1.58-4.82,4.19-5.94,7.83l-11.7-3.6
			c1.6-5.56,4.65-9.98,9.15-13.26c4.5-3.28,10.49-4.92,17.97-4.92c5.8,0,10.85,0.99,15.15,2.97c4.3,1.98,7.45,5.11,9.45,9.39
			c1.04,2.12,1.68,4.36,1.92,6.72c0.24,2.36,0.36,4.9,0.36,7.62v39.9h-11.1v-14.82l2.16,1.92c-2.68,4.96-6.09,8.65-10.23,11.07
			C637.5,615.86,632.4,617.07,626.37,617.07z M628.59,606.81c3.56,0,6.62-0.63,9.18-1.89c2.56-1.26,4.62-2.87,6.18-4.83
			c1.56-1.96,2.58-4,3.06-6.12c0.68-1.92,1.07-4.08,1.17-6.48c0.1-2.4,0.15-4.32,0.15-5.76l4.08,1.5c-3.96,0.6-7.56,1.14-10.8,1.62
			c-3.24,0.48-6.17,0.95-8.79,1.41c-2.62,0.46-4.95,1.01-6.99,1.65c-1.72,0.6-3.25,1.32-4.59,2.16c-1.34,0.84-2.4,1.86-3.18,3.06
			c-0.78,1.2-1.17,2.66-1.17,4.38c0,1.68,0.42,3.23,1.26,4.65c0.84,1.42,2.12,2.55,3.84,3.39
			C623.7,606.39,625.9,606.81,628.59,606.81z"/>
		<path class="st3" d="M676.94,644.07v-93.6h11.16v46.62h1.44v46.98H676.94z M707.42,617.07c-6.2,0-11.4-1.51-15.6-4.53
			c-4.2-3.02-7.38-7.11-9.54-12.27s-3.24-10.98-3.24-17.46c0-6.48,1.07-12.3,3.21-17.46c2.14-5.16,5.3-9.23,9.48-12.21
			c4.18-2.98,9.33-4.47,15.45-4.47c6.08,0,11.33,1.49,15.75,4.47c4.42,2.98,7.83,7.04,10.23,12.18c2.4,5.14,3.6,10.97,3.6,17.49
			c0,6.48-1.19,12.31-3.57,17.49c-2.38,5.18-5.76,9.27-10.14,12.27S713.46,617.07,707.42,617.07z M705.68,605.73
			c4,0,7.31-1.02,9.93-3.06c2.62-2.04,4.58-4.79,5.88-8.25s1.95-7.33,1.95-11.61c0-4.24-0.65-8.08-1.95-11.52
			c-1.3-3.44-3.29-6.18-5.97-8.22c-2.68-2.04-6.1-3.06-10.26-3.06c-3.92,0-7.15,0.96-9.69,2.88s-4.42,4.6-5.64,8.04
			c-1.22,3.44-1.83,7.4-1.83,11.88c0,4.48,0.6,8.44,1.8,11.88c1.2,3.44,3.1,6.14,5.7,8.1C698.2,604.75,701.56,605.73,705.68,605.73z
			"/>
		<path class="st3" d="M818.24,621.09c-6.6,0-12.8-1.24-18.6-3.72c-5.8-2.48-10.89-5.92-15.27-10.32s-7.81-9.5-10.29-15.3
			c-2.48-5.8-3.72-12-3.72-18.6c0-6.64,1.24-12.85,3.72-18.63c2.48-5.78,5.91-10.87,10.29-15.27s9.47-7.84,15.27-10.32
			c5.8-2.48,12-3.72,18.6-3.72c6.68,0,12.91,1.25,18.69,3.75c5.78,2.5,10.86,5.94,15.24,10.32s7.81,9.46,10.29,15.24
			c2.48,5.78,3.72,11.99,3.72,18.63c0,6.6-1.24,12.8-3.72,18.6c-2.48,5.8-5.91,10.89-10.29,15.27s-9.46,7.82-15.24,10.32
			C831.15,619.84,824.92,621.09,818.24,621.09z M818.3,609.15c4.96,0,9.61-0.93,13.95-2.79c4.34-1.86,8.16-4.44,11.46-7.74
			c3.3-3.3,5.88-7.13,7.74-11.49c1.86-4.36,2.79-9.04,2.79-14.04c0-4.96-0.93-9.61-2.79-13.95c-1.86-4.34-4.44-8.16-7.74-11.46
			s-7.12-5.88-11.46-7.74c-4.34-1.86-8.99-2.79-13.95-2.79c-5,0-9.68,0.93-14.04,2.79c-4.36,1.86-8.19,4.44-11.49,7.74
			s-5.88,7.12-7.74,11.46c-1.86,4.34-2.79,8.99-2.79,13.95c0,5,0.93,9.68,2.79,14.04c1.86,4.36,4.44,8.19,7.74,11.49
			c3.3,3.3,7.13,5.88,11.49,7.74C808.62,608.22,813.3,609.15,818.3,609.15z M819.08,598.65c-3.88,0-7.26-0.64-10.14-1.92
			c-2.88-1.28-5.44-3.28-7.68-6c-2.08-2.64-3.55-5.45-4.41-8.43c-0.86-2.98-1.29-6.05-1.29-9.21c0.04-3.32,0.51-6.46,1.41-9.42
			s2.33-5.66,4.29-8.1c2.2-2.68,4.78-4.68,7.74-6c2.96-1.32,6.48-1.98,10.56-1.98c2.24,0,4.3,0.22,6.18,0.66
			c1.88,0.44,3.8,1.28,5.76,2.52c2.12,1.24,3.95,2.86,5.49,4.86c1.54,2,2.63,4.32,3.27,6.96l-9.78,2.7c-0.4-1.16-0.96-2.26-1.68-3.3
			c-0.72-1.04-1.62-1.98-2.7-2.82c-0.96-0.84-2.05-1.44-3.27-1.8c-1.22-0.36-2.49-0.54-3.81-0.54c-2.04,0-3.89,0.41-5.55,1.23
			c-1.66,0.82-3.09,1.99-4.29,3.51c-1.2,1.52-2.02,3.3-2.46,5.34c-0.44,2.04-0.66,4.08-0.66,6.12c0,2.16,0.25,4.24,0.75,6.24
			c0.5,2,1.29,3.78,2.37,5.34c1.12,1.52,2.52,2.68,4.2,3.48c1.68,0.8,3.6,1.2,5.76,1.2c2.96,0,5.36-0.72,7.2-2.16
			c0.96-0.8,1.74-1.66,2.34-2.58s1.14-1.96,1.62-3.12l9.96,2.28c-0.76,2.32-1.81,4.41-3.15,6.27s-2.87,3.43-4.59,4.71
			c-1.8,1.28-3.76,2.26-5.88,2.94C824.52,598.31,822,598.65,819.08,598.65z"/>
	</g>
</g>
<g id="PNG_in_Blue" class="st0">
</g>
<g id="Final_2_Black" class="st0">
	<circle class="st11" cx="330.18" cy="391.52" r="45.1"/>
	<path class="st12" d="M633.58,333.3c0,0-129.6-81.26-258.18,24.69"/>
	<circle class="st13" cx="705.15" cy="378.99" r="59.69"/>
	<circle class="st1" cx="493.84" cy="439.01" r="29.84"/>
	<path class="st13" d="M651.54,405.32c0,0-72.8,98.43-137.16,47.31"/>
	<circle class="st14" cx="201.8" cy="437.73" r="32.35"/>
	<circle class="st14" cx="107.71" cy="406.83" r="22.16"/>
	<circle class="st14" cx="142.46" cy="524.71" r="22.16"/>
</g>
<g id="Final_1_Black" class="st0">
	<g class="st1">
		<rect x="193.77" y="528.87" class="st2" width="692.51" height="194"/>
		<path d="M233.49,617.07c-6.2,0-11.79-1.07-16.77-3.21s-9.08-5.2-12.3-9.18c-3.22-3.98-5.31-8.71-6.27-14.19l13.08-1.98
			c1.32,5.28,4.08,9.39,8.28,12.33c4.2,2.94,9.1,4.41,14.7,4.41c3.48,0,6.68-0.55,9.6-1.65c2.92-1.1,5.27-2.68,7.05-4.74
			c1.78-2.06,2.67-4.53,2.67-7.41c0-1.56-0.27-2.94-0.81-4.14s-1.28-2.25-2.22-3.15c-0.94-0.9-2.08-1.68-3.42-2.34
			c-1.34-0.66-2.81-1.23-4.41-1.71l-22.14-6.54c-2.16-0.64-4.36-1.47-6.6-2.49c-2.24-1.02-4.29-2.36-6.15-4.02
			c-1.86-1.66-3.37-3.72-4.53-6.18c-1.16-2.46-1.74-5.45-1.74-8.97c0-5.32,1.37-9.83,4.11-13.53c2.74-3.7,6.45-6.5,11.13-8.4
			c4.68-1.9,9.92-2.85,15.72-2.85c5.84,0.08,11.07,1.12,15.69,3.12c4.62,2,8.46,4.87,11.52,8.61c3.06,3.74,5.17,8.27,6.33,13.59
			l-13.44,2.28c-0.6-3.24-1.88-6.03-3.84-8.37c-1.96-2.34-4.36-4.14-7.2-5.4c-2.84-1.26-5.92-1.91-9.24-1.95
			c-3.2-0.08-6.13,0.4-8.79,1.44c-2.66,1.04-4.78,2.5-6.36,4.38c-1.58,1.88-2.37,4.04-2.37,6.48c0,2.4,0.7,4.34,2.1,5.82
			c1.4,1.48,3.13,2.65,5.19,3.51c2.06,0.86,4.11,1.57,6.15,2.13l15.96,4.5c2,0.56,4.27,1.31,6.81,2.25c2.54,0.94,5,2.25,7.38,3.93
			c2.38,1.68,4.35,3.91,5.91,6.69s2.34,6.27,2.34,10.47c0,4.36-0.88,8.19-2.64,11.49c-1.76,3.3-4.17,6.06-7.23,8.28
			c-3.06,2.22-6.59,3.89-10.59,5.01C242.15,616.51,237.93,617.07,233.49,617.07z"/>
		<path d="M279.93,615.27l0.06-86.4h12.72v52.8l25.44-31.2h15.96l-26.88,32.4l29.64,32.4h-17.04l-27.12-31.2v31.2H279.93z"/>
		<path d="M345.51,539.85v-12.18h12.54v12.18H345.51z M345.51,615.27v-64.8h12.54v64.8H345.51z"/>
		<path d="M377.85,615.27v-88.2h12.54v88.2H377.85z"/>
		<path d="M410.19,615.27v-88.2h12.54v88.2H410.19z"/>
		<path d="M466.11,617.01c-7.88,0-14.3-1.74-19.26-5.22c-4.96-3.48-8-8.38-9.12-14.7l12.84-1.98c0.8,3.36,2.65,6.01,5.55,7.95
			c2.9,1.94,6.51,2.91,10.83,2.91c3.92,0,6.99-0.8,9.21-2.4c2.22-1.6,3.33-3.8,3.33-6.6c0-1.64-0.39-2.97-1.17-3.99
			c-0.78-1.02-2.41-1.99-4.89-2.91c-2.48-0.92-6.26-2.06-11.34-3.42c-5.56-1.44-9.97-2.99-13.23-4.65c-3.26-1.66-5.58-3.6-6.96-5.82
			s-2.07-4.91-2.07-8.07c0-3.92,1.04-7.34,3.12-10.26s5.01-5.18,8.79-6.78c3.78-1.6,8.21-2.4,13.29-2.4c4.96,0,9.38,0.78,13.26,2.34
			c3.88,1.56,7.02,3.77,9.42,6.63c2.4,2.86,3.84,6.21,4.32,10.05l-12.84,2.34c-0.44-3.12-1.9-5.58-4.38-7.38
			c-2.48-1.8-5.7-2.78-9.66-2.94c-3.8-0.16-6.88,0.47-9.24,1.89c-2.36,1.42-3.54,3.37-3.54,5.85c0,1.44,0.45,2.66,1.35,3.66
			c0.9,1,2.65,1.96,5.25,2.88c2.6,0.92,6.44,2.02,11.52,3.3c5.44,1.4,9.76,2.95,12.96,4.65c3.2,1.7,5.49,3.72,6.87,6.06
			c1.38,2.34,2.07,5.17,2.07,8.49c0,6.4-2.33,11.42-6.99,15.06C480.74,615.19,474.31,617.01,466.11,617.01z"/>
		<path d="M507.09,615.27v-86.4h11.34l31.32,64.98l31.14-64.98h11.46v86.34h-11.88v-59.1l-27.9,59.16h-5.7l-27.96-59.16v59.16
			H507.09z"/>
		<path d="M628.05,617.07c-4.8,0-8.82-0.89-12.06-2.67c-3.24-1.78-5.69-4.14-7.35-7.08c-1.66-2.94-2.49-6.17-2.49-9.69
			c0-3.28,0.58-6.16,1.74-8.64c1.16-2.48,2.88-4.59,5.16-6.33c2.28-1.74,5.08-3.15,8.4-4.23c2.88-0.84,6.14-1.58,9.78-2.22
			c3.64-0.64,7.47-1.24,11.49-1.8c4.02-0.56,8.01-1.12,11.97-1.68l-4.56,2.52c0.08-5.08-0.99-8.85-3.21-11.31
			c-2.22-2.46-6.03-3.69-11.43-3.69c-3.4,0-6.52,0.79-9.36,2.37c-2.84,1.58-4.82,4.19-5.94,7.83l-11.7-3.6
			c1.6-5.56,4.65-9.98,9.15-13.26c4.5-3.28,10.49-4.92,17.97-4.92c5.8,0,10.85,0.99,15.15,2.97c4.3,1.98,7.45,5.11,9.45,9.39
			c1.04,2.12,1.68,4.36,1.92,6.72c0.24,2.36,0.36,4.9,0.36,7.62v39.9h-11.1v-14.82l2.16,1.92c-2.68,4.96-6.09,8.65-10.23,11.07
			C639.18,615.86,634.08,617.07,628.05,617.07z M630.27,606.81c3.56,0,6.62-0.63,9.18-1.89c2.56-1.26,4.62-2.87,6.18-4.83
			c1.56-1.96,2.58-4,3.06-6.12c0.68-1.92,1.07-4.08,1.17-6.48c0.1-2.4,0.15-4.32,0.15-5.76l4.08,1.5c-3.96,0.6-7.56,1.14-10.8,1.62
			c-3.24,0.48-6.17,0.95-8.79,1.41c-2.62,0.46-4.95,1.01-6.99,1.65c-1.72,0.6-3.25,1.32-4.59,2.16c-1.34,0.84-2.4,1.86-3.18,3.06
			c-0.78,1.2-1.17,2.66-1.17,4.38c0,1.68,0.42,3.23,1.26,4.65c0.84,1.42,2.12,2.55,3.84,3.39
			C625.38,606.39,627.58,606.81,630.27,606.81z"/>
		<path d="M678.62,644.07v-93.6h11.16v46.62h1.44v46.98H678.62z M709.11,617.07c-6.2,0-11.4-1.51-15.6-4.53
			c-4.2-3.02-7.38-7.11-9.54-12.27s-3.24-10.98-3.24-17.46c0-6.48,1.07-12.3,3.21-17.46c2.14-5.16,5.3-9.23,9.48-12.21
			c4.18-2.98,9.33-4.47,15.45-4.47c6.08,0,11.33,1.49,15.75,4.47c4.42,2.98,7.83,7.04,10.23,12.18c2.4,5.14,3.6,10.97,3.6,17.49
			c0,6.48-1.19,12.31-3.57,17.49c-2.38,5.18-5.76,9.27-10.14,12.27S715.14,617.07,709.11,617.07z M707.36,605.73
			c4,0,7.31-1.02,9.93-3.06c2.62-2.04,4.58-4.79,5.88-8.25s1.95-7.33,1.95-11.61c0-4.24-0.65-8.08-1.95-11.52
			c-1.3-3.44-3.29-6.18-5.97-8.22c-2.68-2.04-6.1-3.06-10.26-3.06c-3.92,0-7.15,0.96-9.69,2.88s-4.42,4.6-5.64,8.04
			c-1.22,3.44-1.83,7.4-1.83,11.88c0,4.48,0.6,8.44,1.8,11.88c1.2,3.44,3.1,6.14,5.7,8.1C699.88,604.75,703.24,605.73,707.36,605.73
			z"/>
		<path d="M783.14,581.97c-4.2,0-8.13-0.79-11.79-2.37s-6.87-3.76-9.63-6.54c-2.76-2.78-4.93-6-6.51-9.66s-2.37-7.59-2.37-11.79
			c0-4.16,0.79-8.07,2.37-11.73c1.58-3.66,3.75-6.88,6.51-9.66c2.76-2.78,5.97-4.95,9.63-6.51c3.66-1.56,7.59-2.34,11.79-2.34
			c4.16,0,8.07,0.78,11.73,2.34c3.66,1.56,6.88,3.73,9.66,6.51s4.96,6,6.54,9.66c1.58,3.66,2.37,7.57,2.37,11.73
			c0,4.2-0.79,8.13-2.37,11.79s-3.76,6.88-6.54,9.66c-2.78,2.78-6,4.96-9.66,6.54S787.3,581.97,783.14,581.97z M783.2,573.21
			c3.92,0,7.52-0.98,10.8-2.94c3.28-1.96,5.9-4.58,7.86-7.86c1.96-3.28,2.94-6.88,2.94-10.8c0-4-0.98-7.63-2.94-10.89
			c-1.96-3.26-4.58-5.86-7.86-7.8s-6.88-2.91-10.8-2.91c-4,0-7.64,0.97-10.92,2.91c-3.28,1.94-5.89,4.54-7.83,7.8
			c-1.94,3.26-2.91,6.89-2.91,10.89c0,3.92,0.97,7.52,2.91,10.8c1.94,3.28,4.55,5.9,7.83,7.86
			C775.56,572.23,779.2,573.21,783.2,573.21z M773.24,565.65v-28.26h12.06c2.84,0,5.13,0.87,6.87,2.61
			c1.74,1.74,2.65,3.97,2.73,6.69c0,1.64-0.43,3.21-1.29,4.71c-0.86,1.5-2.11,2.69-3.75,3.57l5.28,10.68h-5.76l-4.68-9.78h-6.42
			v9.78H773.24z M778.28,551.13h7.14c1.2,0,2.22-0.43,3.06-1.29s1.26-1.91,1.26-3.15c0-1.44-0.4-2.55-1.2-3.33s-1.84-1.17-3.12-1.17
			h-7.14V551.13z"/>
	</g>
</g>
<g id="Final_2_PPT_Grey" class="st0">
	<circle class="st15" cx="330.18" cy="391.52" r="45.1"/>
	<path class="st16" d="M633.58,333.3c0,0-129.6-81.26-258.18,24.69"/>
	<circle class="st17" cx="705.15" cy="378.99" r="59.69"/>
	<circle class="st18" cx="493.84" cy="439.01" r="29.84"/>
	<path class="st17" d="M651.54,405.32c0,0-72.8,98.43-137.16,47.31"/>
	<circle class="st19" cx="201.8" cy="437.73" r="32.35"/>
	<circle class="st19" cx="107.71" cy="406.83" r="22.16"/>
	<circle class="st19" cx="142.46" cy="524.71" r="22.16"/>
</g>
<g id="Final_1_PPT_Grey" class="st0">
	<g class="st1">
		<rect x="193.77" y="528.87" class="st2" width="692.51" height="194"/>
		<path class="st20" d="M233.49,617.07c-6.2,0-11.79-1.07-16.77-3.21s-9.08-5.2-12.3-9.18c-3.22-3.98-5.31-8.71-6.27-14.19
			l13.08-1.98c1.32,5.28,4.08,9.39,8.28,12.33c4.2,2.94,9.1,4.41,14.7,4.41c3.48,0,6.68-0.55,9.6-1.65c2.92-1.1,5.27-2.68,7.05-4.74
			c1.78-2.06,2.67-4.53,2.67-7.41c0-1.56-0.27-2.94-0.81-4.14s-1.28-2.25-2.22-3.15c-0.94-0.9-2.08-1.68-3.42-2.34
			c-1.34-0.66-2.81-1.23-4.41-1.71l-22.14-6.54c-2.16-0.64-4.36-1.47-6.6-2.49c-2.24-1.02-4.29-2.36-6.15-4.02
			c-1.86-1.66-3.37-3.72-4.53-6.18c-1.16-2.46-1.74-5.45-1.74-8.97c0-5.32,1.37-9.83,4.11-13.53c2.74-3.7,6.45-6.5,11.13-8.4
			c4.68-1.9,9.92-2.85,15.72-2.85c5.84,0.08,11.07,1.12,15.69,3.12c4.62,2,8.46,4.87,11.52,8.61c3.06,3.74,5.17,8.27,6.33,13.59
			l-13.44,2.28c-0.6-3.24-1.88-6.03-3.84-8.37c-1.96-2.34-4.36-4.14-7.2-5.4c-2.84-1.26-5.92-1.91-9.24-1.95
			c-3.2-0.08-6.13,0.4-8.79,1.44c-2.66,1.04-4.78,2.5-6.36,4.38c-1.58,1.88-2.37,4.04-2.37,6.48c0,2.4,0.7,4.34,2.1,5.82
			c1.4,1.48,3.13,2.65,5.19,3.51c2.06,0.86,4.11,1.57,6.15,2.13l15.96,4.5c2,0.56,4.27,1.31,6.81,2.25c2.54,0.94,5,2.25,7.38,3.93
			c2.38,1.68,4.35,3.91,5.91,6.69s2.34,6.27,2.34,10.47c0,4.36-0.88,8.19-2.64,11.49c-1.76,3.3-4.17,6.06-7.23,8.28
			c-3.06,2.22-6.59,3.89-10.59,5.01C242.15,616.51,237.93,617.07,233.49,617.07z"/>
		<path class="st20" d="M279.93,615.27l0.06-86.4h12.72v52.8l25.44-31.2h15.96l-26.88,32.4l29.64,32.4h-17.04l-27.12-31.2v31.2
			H279.93z"/>
		<path class="st20" d="M345.51,539.85v-12.18h12.54v12.18H345.51z M345.51,615.27v-64.8h12.54v64.8H345.51z"/>
		<path class="st20" d="M377.85,615.27v-88.2h12.54v88.2H377.85z"/>
		<path class="st20" d="M410.19,615.27v-88.2h12.54v88.2H410.19z"/>
		<path class="st20" d="M466.11,617.01c-7.88,0-14.3-1.74-19.26-5.22c-4.96-3.48-8-8.38-9.12-14.7l12.84-1.98
			c0.8,3.36,2.65,6.01,5.55,7.95c2.9,1.94,6.51,2.91,10.83,2.91c3.92,0,6.99-0.8,9.21-2.4c2.22-1.6,3.33-3.8,3.33-6.6
			c0-1.64-0.39-2.97-1.17-3.99c-0.78-1.02-2.41-1.99-4.89-2.91c-2.48-0.92-6.26-2.06-11.34-3.42c-5.56-1.44-9.97-2.99-13.23-4.65
			c-3.26-1.66-5.58-3.6-6.96-5.82s-2.07-4.91-2.07-8.07c0-3.92,1.04-7.34,3.12-10.26s5.01-5.18,8.79-6.78
			c3.78-1.6,8.21-2.4,13.29-2.4c4.96,0,9.38,0.78,13.26,2.34c3.88,1.56,7.02,3.77,9.42,6.63c2.4,2.86,3.84,6.21,4.32,10.05
			l-12.84,2.34c-0.44-3.12-1.9-5.58-4.38-7.38c-2.48-1.8-5.7-2.78-9.66-2.94c-3.8-0.16-6.88,0.47-9.24,1.89
			c-2.36,1.42-3.54,3.37-3.54,5.85c0,1.44,0.45,2.66,1.35,3.66c0.9,1,2.65,1.96,5.25,2.88c2.6,0.92,6.44,2.02,11.52,3.3
			c5.44,1.4,9.76,2.95,12.96,4.65c3.2,1.7,5.49,3.72,6.87,6.06c1.38,2.34,2.07,5.17,2.07,8.49c0,6.4-2.33,11.42-6.99,15.06
			C480.74,615.19,474.31,617.01,466.11,617.01z"/>
		<path class="st20" d="M507.09,615.27v-86.4h11.34l31.32,64.98l31.14-64.98h11.46v86.34h-11.88v-59.1l-27.9,59.16h-5.7
			l-27.96-59.16v59.16H507.09z"/>
		<path class="st20" d="M628.05,617.07c-4.8,0-8.82-0.89-12.06-2.67c-3.24-1.78-5.69-4.14-7.35-7.08c-1.66-2.94-2.49-6.17-2.49-9.69
			c0-3.28,0.58-6.16,1.74-8.64c1.16-2.48,2.88-4.59,5.16-6.33c2.28-1.74,5.08-3.15,8.4-4.23c2.88-0.84,6.14-1.58,9.78-2.22
			c3.64-0.64,7.47-1.24,11.49-1.8c4.02-0.56,8.01-1.12,11.97-1.68l-4.56,2.52c0.08-5.08-0.99-8.85-3.21-11.31
			c-2.22-2.46-6.03-3.69-11.43-3.69c-3.4,0-6.52,0.79-9.36,2.37c-2.84,1.58-4.82,4.19-5.94,7.83l-11.7-3.6
			c1.6-5.56,4.65-9.98,9.15-13.26c4.5-3.28,10.49-4.92,17.97-4.92c5.8,0,10.85,0.99,15.15,2.97c4.3,1.98,7.45,5.11,9.45,9.39
			c1.04,2.12,1.68,4.36,1.92,6.72c0.24,2.36,0.36,4.9,0.36,7.62v39.9h-11.1v-14.82l2.16,1.92c-2.68,4.96-6.09,8.65-10.23,11.07
			C639.18,615.86,634.08,617.07,628.05,617.07z M630.27,606.81c3.56,0,6.62-0.63,9.18-1.89c2.56-1.26,4.62-2.87,6.18-4.83
			c1.56-1.96,2.58-4,3.06-6.12c0.68-1.92,1.07-4.08,1.17-6.48c0.1-2.4,0.15-4.32,0.15-5.76l4.08,1.5c-3.96,0.6-7.56,1.14-10.8,1.62
			c-3.24,0.48-6.17,0.95-8.79,1.41c-2.62,0.46-4.95,1.01-6.99,1.65c-1.72,0.6-3.25,1.32-4.59,2.16c-1.34,0.84-2.4,1.86-3.18,3.06
			c-0.78,1.2-1.17,2.66-1.17,4.38c0,1.68,0.42,3.23,1.26,4.65c0.84,1.42,2.12,2.55,3.84,3.39
			C625.38,606.39,627.58,606.81,630.27,606.81z"/>
		<path class="st20" d="M678.62,644.07v-93.6h11.16v46.62h1.44v46.98H678.62z M709.11,617.07c-6.2,0-11.4-1.51-15.6-4.53
			c-4.2-3.02-7.38-7.11-9.54-12.27s-3.24-10.98-3.24-17.46c0-6.48,1.07-12.3,3.21-17.46c2.14-5.16,5.3-9.23,9.48-12.21
			c4.18-2.98,9.33-4.47,15.45-4.47c6.08,0,11.33,1.49,15.75,4.47c4.42,2.98,7.83,7.04,10.23,12.18c2.4,5.14,3.6,10.97,3.6,17.49
			c0,6.48-1.19,12.31-3.57,17.49c-2.38,5.18-5.76,9.27-10.14,12.27S715.14,617.07,709.11,617.07z M707.36,605.73
			c4,0,7.31-1.02,9.93-3.06c2.62-2.04,4.58-4.79,5.88-8.25s1.95-7.33,1.95-11.61c0-4.24-0.65-8.08-1.95-11.52
			c-1.3-3.44-3.29-6.18-5.97-8.22c-2.68-2.04-6.1-3.06-10.26-3.06c-3.92,0-7.15,0.96-9.69,2.88s-4.42,4.6-5.64,8.04
			c-1.22,3.44-1.83,7.4-1.83,11.88c0,4.48,0.6,8.44,1.8,11.88c1.2,3.44,3.1,6.14,5.7,8.1C699.88,604.75,703.24,605.73,707.36,605.73
			z"/>
		<path class="st20" d="M783.14,581.97c-4.2,0-8.13-0.79-11.79-2.37s-6.87-3.76-9.63-6.54c-2.76-2.78-4.93-6-6.51-9.66
			s-2.37-7.59-2.37-11.79c0-4.16,0.79-8.07,2.37-11.73c1.58-3.66,3.75-6.88,6.51-9.66c2.76-2.78,5.97-4.95,9.63-6.51
			c3.66-1.56,7.59-2.34,11.79-2.34c4.16,0,8.07,0.78,11.73,2.34c3.66,1.56,6.88,3.73,9.66,6.51s4.96,6,6.54,9.66
			c1.58,3.66,2.37,7.57,2.37,11.73c0,4.2-0.79,8.13-2.37,11.79s-3.76,6.88-6.54,9.66c-2.78,2.78-6,4.96-9.66,6.54
			S787.3,581.97,783.14,581.97z M783.2,573.21c3.92,0,7.52-0.98,10.8-2.94c3.28-1.96,5.9-4.58,7.86-7.86
			c1.96-3.28,2.94-6.88,2.94-10.8c0-4-0.98-7.63-2.94-10.89c-1.96-3.26-4.58-5.86-7.86-7.8s-6.88-2.91-10.8-2.91
			c-4,0-7.64,0.97-10.92,2.91c-3.28,1.94-5.89,4.54-7.83,7.8c-1.94,3.26-2.91,6.89-2.91,10.89c0,3.92,0.97,7.52,2.91,10.8
			c1.94,3.28,4.55,5.9,7.83,7.86C775.56,572.23,779.2,573.21,783.2,573.21z M773.24,565.65v-28.26h12.06c2.84,0,5.13,0.87,6.87,2.61
			c1.74,1.74,2.65,3.97,2.73,6.69c0,1.64-0.43,3.21-1.29,4.71c-0.86,1.5-2.11,2.69-3.75,3.57l5.28,10.68h-5.76l-4.68-9.78h-6.42
			v9.78H773.24z M778.28,551.13h7.14c1.2,0,2.22-0.43,3.06-1.29s1.26-1.91,1.26-3.15c0-1.44-0.4-2.55-1.2-3.33s-1.84-1.17-3.12-1.17
			h-7.14V551.13z"/>
	</g>
</g>
<g id="Final_2_Book_Grey_FINAL_GREYSCALE" class="st0">
	<g class="st1">
		<rect x="224.99" y="440.87" class="st2" width="692.51" height="194"/>
		<path class="st21" d="M264.71,529.07c-6.2,0-11.79-1.07-16.77-3.21s-9.08-5.2-12.3-9.18c-3.22-3.98-5.31-8.71-6.27-14.19
			l13.08-1.98c1.32,5.28,4.08,9.39,8.28,12.33c4.2,2.94,9.1,4.41,14.7,4.41c3.48,0,6.68-0.55,9.6-1.65c2.92-1.1,5.27-2.68,7.05-4.74
			c1.78-2.06,2.67-4.53,2.67-7.41c0-1.56-0.27-2.94-0.81-4.14s-1.28-2.25-2.22-3.15c-0.94-0.9-2.08-1.68-3.42-2.34
			c-1.34-0.66-2.81-1.23-4.41-1.71l-22.14-6.54c-2.16-0.64-4.36-1.47-6.6-2.49c-2.24-1.02-4.29-2.36-6.15-4.02
			c-1.86-1.66-3.37-3.72-4.53-6.18c-1.16-2.46-1.74-5.45-1.74-8.97c0-5.32,1.37-9.83,4.11-13.53c2.74-3.7,6.45-6.5,11.13-8.4
			c4.68-1.9,9.92-2.85,15.72-2.85c5.84,0.08,11.07,1.12,15.69,3.12c4.62,2,8.46,4.87,11.52,8.61c3.06,3.74,5.17,8.27,6.33,13.59
			l-13.44,2.28c-0.6-3.24-1.88-6.03-3.84-8.37c-1.96-2.34-4.36-4.14-7.2-5.4c-2.84-1.26-5.92-1.91-9.24-1.95
			c-3.2-0.08-6.13,0.4-8.79,1.44c-2.66,1.04-4.78,2.5-6.36,4.38c-1.58,1.88-2.37,4.04-2.37,6.48c0,2.4,0.7,4.34,2.1,5.82
			c1.4,1.48,3.13,2.65,5.19,3.51c2.06,0.86,4.11,1.57,6.15,2.13l15.96,4.5c2,0.56,4.27,1.31,6.81,2.25c2.54,0.94,5,2.25,7.38,3.93
			c2.38,1.68,4.35,3.91,5.91,6.69s2.34,6.27,2.34,10.47c0,4.36-0.88,8.19-2.64,11.49c-1.76,3.3-4.17,6.06-7.23,8.28
			c-3.06,2.22-6.59,3.89-10.59,5.01C273.37,528.51,269.15,529.07,264.71,529.07z"/>
		<path class="st21" d="M311.15,527.27l0.06-86.4h12.72v52.8l25.44-31.2h15.96l-26.88,32.4l29.64,32.4h-17.04l-27.12-31.2v31.2
			H311.15z"/>
		<path class="st21" d="M376.73,451.85v-12.18h12.54v12.18H376.73z M376.73,527.27v-64.8h12.54v64.8H376.73z"/>
		<path class="st21" d="M409.07,527.27v-88.2h12.54v88.2H409.07z"/>
		<path class="st21" d="M441.4,527.27v-88.2h12.54v88.2H441.4z"/>
		<path class="st21" d="M497.32,529.01c-7.88,0-14.3-1.74-19.26-5.22c-4.96-3.48-8-8.38-9.12-14.7l12.84-1.98
			c0.8,3.36,2.65,6.01,5.55,7.95c2.9,1.94,6.51,2.91,10.83,2.91c3.92,0,6.99-0.8,9.21-2.4c2.22-1.6,3.33-3.8,3.33-6.6
			c0-1.64-0.39-2.97-1.17-3.99c-0.78-1.02-2.41-1.99-4.89-2.91c-2.48-0.92-6.26-2.06-11.34-3.42c-5.56-1.44-9.97-2.99-13.23-4.65
			c-3.26-1.66-5.58-3.6-6.96-5.82s-2.07-4.91-2.07-8.07c0-3.92,1.04-7.34,3.12-10.26s5.01-5.18,8.79-6.78
			c3.78-1.6,8.21-2.4,13.29-2.4c4.96,0,9.38,0.78,13.26,2.34c3.88,1.56,7.02,3.77,9.42,6.63c2.4,2.86,3.84,6.21,4.32,10.05
			l-12.84,2.34c-0.44-3.12-1.9-5.58-4.38-7.38c-2.48-1.8-5.7-2.78-9.66-2.94c-3.8-0.16-6.88,0.47-9.24,1.89
			c-2.36,1.42-3.54,3.37-3.54,5.85c0,1.44,0.45,2.66,1.35,3.66c0.9,1,2.65,1.96,5.25,2.88c2.6,0.92,6.44,2.02,11.52,3.3
			c5.44,1.4,9.76,2.95,12.96,4.65c3.2,1.7,5.49,3.72,6.87,6.06c1.38,2.34,2.07,5.17,2.07,8.49c0,6.4-2.33,11.42-6.99,15.06
			C511.95,527.19,505.52,529.01,497.32,529.01z"/>
		<path class="st21" d="M538.3,527.27v-86.4h11.34l31.32,64.98l31.14-64.98h11.46v86.34h-11.88v-59.1l-27.9,59.16h-5.7l-27.96-59.16
			v59.16H538.3z"/>
		<path class="st21" d="M659.26,529.07c-4.8,0-8.82-0.89-12.06-2.67c-3.24-1.78-5.69-4.14-7.35-7.08c-1.66-2.94-2.49-6.17-2.49-9.69
			c0-3.28,0.58-6.16,1.74-8.64c1.16-2.48,2.88-4.59,5.16-6.33c2.28-1.74,5.08-3.15,8.4-4.23c2.88-0.84,6.14-1.58,9.78-2.22
			c3.64-0.64,7.47-1.24,11.49-1.8c4.02-0.56,8.01-1.12,11.97-1.68l-4.56,2.52c0.08-5.08-0.99-8.85-3.21-11.31
			c-2.22-2.46-6.03-3.69-11.43-3.69c-3.4,0-6.52,0.79-9.36,2.37c-2.84,1.58-4.82,4.19-5.94,7.83l-11.7-3.6
			c1.6-5.56,4.65-9.98,9.15-13.26c4.5-3.28,10.49-4.92,17.97-4.92c5.8,0,10.85,0.99,15.15,2.97c4.3,1.98,7.45,5.11,9.45,9.39
			c1.04,2.12,1.68,4.36,1.92,6.72c0.24,2.36,0.36,4.9,0.36,7.62v39.9h-11.1v-14.82l2.16,1.92c-2.68,4.96-6.09,8.65-10.23,11.07
			C670.39,527.86,665.3,529.07,659.26,529.07z M661.48,518.81c3.56,0,6.62-0.63,9.18-1.89c2.56-1.26,4.62-2.87,6.18-4.83
			c1.56-1.96,2.58-4,3.06-6.12c0.68-1.92,1.07-4.08,1.17-6.48c0.1-2.4,0.15-4.32,0.15-5.76l4.08,1.5c-3.96,0.6-7.56,1.14-10.8,1.62
			c-3.24,0.48-6.17,0.95-8.79,1.41c-2.62,0.46-4.95,1.01-6.99,1.65c-1.72,0.6-3.25,1.32-4.59,2.16c-1.34,0.84-2.4,1.86-3.18,3.06
			c-0.78,1.2-1.17,2.66-1.17,4.38c0,1.68,0.42,3.23,1.26,4.65c0.84,1.42,2.12,2.55,3.84,3.39
			C656.6,518.39,658.8,518.81,661.48,518.81z"/>
		<path class="st21" d="M709.84,556.07v-93.6H721v46.62h1.44v46.98H709.84z M740.32,529.07c-6.2,0-11.4-1.51-15.6-4.53
			c-4.2-3.02-7.38-7.11-9.54-12.27s-3.24-10.98-3.24-17.46c0-6.48,1.07-12.3,3.21-17.46c2.14-5.16,5.3-9.23,9.48-12.21
			c4.18-2.98,9.33-4.47,15.45-4.47c6.08,0,11.33,1.49,15.75,4.47c4.42,2.98,7.83,7.04,10.23,12.18c2.4,5.14,3.6,10.97,3.6,17.49
			c0,6.48-1.19,12.31-3.57,17.49c-2.38,5.18-5.76,9.27-10.14,12.27S746.36,529.07,740.32,529.07z M738.58,517.73
			c4,0,7.31-1.02,9.93-3.06c2.62-2.04,4.58-4.79,5.88-8.25s1.95-7.33,1.95-11.61c0-4.24-0.65-8.08-1.95-11.52
			c-1.3-3.44-3.29-6.18-5.97-8.22c-2.68-2.04-6.1-3.06-10.26-3.06c-3.92,0-7.15,0.96-9.69,2.88s-4.42,4.6-5.64,8.04
			c-1.22,3.44-1.83,7.4-1.83,11.88c0,4.48,0.6,8.44,1.8,11.88c1.2,3.44,3.1,6.14,5.7,8.1C731.1,516.75,734.46,517.73,738.58,517.73z
			"/>
		<path class="st21" d="M814.36,493.97c-4.2,0-8.13-0.79-11.79-2.37s-6.87-3.76-9.63-6.54c-2.76-2.78-4.93-6-6.51-9.66
			s-2.37-7.59-2.37-11.79c0-4.16,0.79-8.07,2.37-11.73c1.58-3.66,3.75-6.88,6.51-9.66c2.76-2.78,5.97-4.95,9.63-6.51
			c3.66-1.56,7.59-2.34,11.79-2.34c4.16,0,8.07,0.78,11.73,2.34c3.66,1.56,6.88,3.73,9.66,6.51s4.96,6,6.54,9.66
			c1.58,3.66,2.37,7.57,2.37,11.73c0,4.2-0.79,8.13-2.37,11.79s-3.76,6.88-6.54,9.66c-2.78,2.78-6,4.96-9.66,6.54
			S818.52,493.97,814.36,493.97z M814.42,485.21c3.92,0,7.52-0.98,10.8-2.94c3.28-1.96,5.9-4.58,7.86-7.86
			c1.96-3.28,2.94-6.88,2.94-10.8c0-4-0.98-7.63-2.94-10.89c-1.96-3.26-4.58-5.86-7.86-7.8s-6.88-2.91-10.8-2.91
			c-4,0-7.64,0.97-10.92,2.91c-3.28,1.94-5.89,4.54-7.83,7.8c-1.94,3.26-2.91,6.89-2.91,10.89c0,3.92,0.97,7.52,2.91,10.8
			c1.94,3.28,4.55,5.9,7.83,7.86C806.78,484.23,810.42,485.21,814.42,485.21z M804.46,477.65v-28.26h12.06
			c2.84,0,5.13,0.87,6.87,2.61c1.74,1.74,2.65,3.97,2.73,6.69c0,1.64-0.43,3.21-1.29,4.71c-0.86,1.5-2.11,2.69-3.75,3.57l5.28,10.68
			h-5.76l-4.68-9.78h-6.42v9.78H804.46z M809.5,463.13h7.14c1.2,0,2.22-0.43,3.06-1.29s1.26-1.91,1.26-3.15
			c0-1.44-0.4-2.55-1.2-3.33s-1.84-1.17-3.12-1.17h-7.14V463.13z"/>
	</g>
</g>
<g id="Final_1_Book_Grey_FINAL_GREYSCALE_copy" class="st0">
	<g class="st1">
		<rect x="224.99" y="440.87" class="st2" width="692.51" height="194"/>
		<path class="st21" d="M264.71,529.07c-6.2,0-11.79-1.07-16.77-3.21s-9.08-5.2-12.3-9.18c-3.22-3.98-5.31-8.71-6.27-14.19
			l13.08-1.98c1.32,5.28,4.08,9.39,8.28,12.33c4.2,2.94,9.1,4.41,14.7,4.41c3.48,0,6.68-0.55,9.6-1.65c2.92-1.1,5.27-2.68,7.05-4.74
			c1.78-2.06,2.67-4.53,2.67-7.41c0-1.56-0.27-2.94-0.81-4.14s-1.28-2.25-2.22-3.15c-0.94-0.9-2.08-1.68-3.42-2.34
			c-1.34-0.66-2.81-1.23-4.41-1.71l-22.14-6.54c-2.16-0.64-4.36-1.47-6.6-2.49c-2.24-1.02-4.29-2.36-6.15-4.02
			c-1.86-1.66-3.37-3.72-4.53-6.18c-1.16-2.46-1.74-5.45-1.74-8.97c0-5.32,1.37-9.83,4.11-13.53c2.74-3.7,6.45-6.5,11.13-8.4
			c4.68-1.9,9.92-2.85,15.72-2.85c5.84,0.08,11.07,1.12,15.69,3.12c4.62,2,8.46,4.87,11.52,8.61c3.06,3.74,5.17,8.27,6.33,13.59
			l-13.44,2.28c-0.6-3.24-1.88-6.03-3.84-8.37c-1.96-2.34-4.36-4.14-7.2-5.4c-2.84-1.26-5.92-1.91-9.24-1.95
			c-3.2-0.08-6.13,0.4-8.79,1.44c-2.66,1.04-4.78,2.5-6.36,4.38c-1.58,1.88-2.37,4.04-2.37,6.48c0,2.4,0.7,4.34,2.1,5.82
			c1.4,1.48,3.13,2.65,5.19,3.51c2.06,0.86,4.11,1.57,6.15,2.13l15.96,4.5c2,0.56,4.27,1.31,6.81,2.25c2.54,0.94,5,2.25,7.38,3.93
			c2.38,1.68,4.35,3.91,5.91,6.69s2.34,6.27,2.34,10.47c0,4.36-0.88,8.19-2.64,11.49c-1.76,3.3-4.17,6.06-7.23,8.28
			c-3.06,2.22-6.59,3.89-10.59,5.01C273.37,528.51,269.15,529.07,264.71,529.07z"/>
		<path class="st21" d="M311.15,527.27l0.06-86.4h12.72v52.8l25.44-31.2h15.96l-26.88,32.4l29.64,32.4h-17.04l-27.12-31.2v31.2
			H311.15z"/>
		<path class="st21" d="M376.73,451.85v-12.18h12.54v12.18H376.73z M376.73,527.27v-64.8h12.54v64.8H376.73z"/>
		<path class="st21" d="M409.07,527.27v-88.2h12.54v88.2H409.07z"/>
		<path class="st21" d="M441.4,527.27v-88.2h12.54v88.2H441.4z"/>
		<path class="st21" d="M497.32,529.01c-7.88,0-14.3-1.74-19.26-5.22c-4.96-3.48-8-8.38-9.12-14.7l12.84-1.98
			c0.8,3.36,2.65,6.01,5.55,7.95c2.9,1.94,6.51,2.91,10.83,2.91c3.92,0,6.99-0.8,9.21-2.4c2.22-1.6,3.33-3.8,3.33-6.6
			c0-1.64-0.39-2.97-1.17-3.99c-0.78-1.02-2.41-1.99-4.89-2.91c-2.48-0.92-6.26-2.06-11.34-3.42c-5.56-1.44-9.97-2.99-13.23-4.65
			c-3.26-1.66-5.58-3.6-6.96-5.82s-2.07-4.91-2.07-8.07c0-3.92,1.04-7.34,3.12-10.26s5.01-5.18,8.79-6.78
			c3.78-1.6,8.21-2.4,13.29-2.4c4.96,0,9.38,0.78,13.26,2.34c3.88,1.56,7.02,3.77,9.42,6.63c2.4,2.86,3.84,6.21,4.32,10.05
			l-12.84,2.34c-0.44-3.12-1.9-5.58-4.38-7.38c-2.48-1.8-5.7-2.78-9.66-2.94c-3.8-0.16-6.88,0.47-9.24,1.89
			c-2.36,1.42-3.54,3.37-3.54,5.85c0,1.44,0.45,2.66,1.35,3.66c0.9,1,2.65,1.96,5.25,2.88c2.6,0.92,6.44,2.02,11.52,3.3
			c5.44,1.4,9.76,2.95,12.96,4.65c3.2,1.7,5.49,3.72,6.87,6.06c1.38,2.34,2.07,5.17,2.07,8.49c0,6.4-2.33,11.42-6.99,15.06
			C511.95,527.19,505.52,529.01,497.32,529.01z"/>
		<path class="st21" d="M538.3,527.27v-86.4h11.34l31.32,64.98l31.14-64.98h11.46v86.34h-11.88v-59.1l-27.9,59.16h-5.7l-27.96-59.16
			v59.16H538.3z"/>
		<path class="st21" d="M659.26,529.07c-4.8,0-8.82-0.89-12.06-2.67c-3.24-1.78-5.69-4.14-7.35-7.08c-1.66-2.94-2.49-6.17-2.49-9.69
			c0-3.28,0.58-6.16,1.74-8.64c1.16-2.48,2.88-4.59,5.16-6.33c2.28-1.74,5.08-3.15,8.4-4.23c2.88-0.84,6.14-1.58,9.78-2.22
			c3.64-0.64,7.47-1.24,11.49-1.8c4.02-0.56,8.01-1.12,11.97-1.68l-4.56,2.52c0.08-5.08-0.99-8.85-3.21-11.31
			c-2.22-2.46-6.03-3.69-11.43-3.69c-3.4,0-6.52,0.79-9.36,2.37c-2.84,1.58-4.82,4.19-5.94,7.83l-11.7-3.6
			c1.6-5.56,4.65-9.98,9.15-13.26c4.5-3.28,10.49-4.92,17.97-4.92c5.8,0,10.85,0.99,15.15,2.97c4.3,1.98,7.45,5.11,9.45,9.39
			c1.04,2.12,1.68,4.36,1.92,6.72c0.24,2.36,0.36,4.9,0.36,7.62v39.9h-11.1v-14.82l2.16,1.92c-2.68,4.96-6.09,8.65-10.23,11.07
			C670.39,527.86,665.3,529.07,659.26,529.07z M661.48,518.81c3.56,0,6.62-0.63,9.18-1.89c2.56-1.26,4.62-2.87,6.18-4.83
			c1.56-1.96,2.58-4,3.06-6.12c0.68-1.92,1.07-4.08,1.17-6.48c0.1-2.4,0.15-4.32,0.15-5.76l4.08,1.5c-3.96,0.6-7.56,1.14-10.8,1.62
			c-3.24,0.48-6.17,0.95-8.79,1.41c-2.62,0.46-4.95,1.01-6.99,1.65c-1.72,0.6-3.25,1.32-4.59,2.16c-1.34,0.84-2.4,1.86-3.18,3.06
			c-0.78,1.2-1.17,2.66-1.17,4.38c0,1.68,0.42,3.23,1.26,4.65c0.84,1.42,2.12,2.55,3.84,3.39
			C656.6,518.39,658.8,518.81,661.48,518.81z"/>
		<path class="st21" d="M709.84,556.07v-93.6H721v46.62h1.44v46.98H709.84z M740.32,529.07c-6.2,0-11.4-1.51-15.6-4.53
			c-4.2-3.02-7.38-7.11-9.54-12.27s-3.24-10.98-3.24-17.46c0-6.48,1.07-12.3,3.21-17.46c2.14-5.16,5.3-9.23,9.48-12.21
			c4.18-2.98,9.33-4.47,15.45-4.47c6.08,0,11.33,1.49,15.75,4.47c4.42,2.98,7.83,7.04,10.23,12.18c2.4,5.14,3.6,10.97,3.6,17.49
			c0,6.48-1.19,12.31-3.57,17.49c-2.38,5.18-5.76,9.27-10.14,12.27S746.36,529.07,740.32,529.07z M738.58,517.73
			c4,0,7.31-1.02,9.93-3.06c2.62-2.04,4.58-4.79,5.88-8.25s1.95-7.33,1.95-11.61c0-4.24-0.65-8.08-1.95-11.52
			c-1.3-3.44-3.29-6.18-5.97-8.22c-2.68-2.04-6.1-3.06-10.26-3.06c-3.92,0-7.15,0.96-9.69,2.88s-4.42,4.6-5.64,8.04
			c-1.22,3.44-1.83,7.4-1.83,11.88c0,4.48,0.6,8.44,1.8,11.88c1.2,3.44,3.1,6.14,5.7,8.1C731.1,516.75,734.46,517.73,738.58,517.73z
			"/>
	</g>
</g>
<g id="Final_1_Book_Grey__FINAL_GREYSCALE">
	<circle class="st22" cx="361.4" cy="303.52" r="45.1"/>
	<path class="st23" d="M664.8,245.3c0,0-129.6-81.26-258.18,24.69"/>
	<circle class="st24" cx="736.37" cy="290.99" r="59.69"/>
	<circle class="st21" cx="525.06" cy="351.01" r="29.84"/>
	<path class="st24" d="M682.76,317.32c0,0-72.8,98.43-137.16,47.31"/>
	<circle class="st25" cx="233.02" cy="349.73" r="32.35"/>
	<circle class="st25" cx="138.92" cy="318.83" r="22.16"/>
	<circle class="st25" cx="173.68" cy="436.71" r="22.16"/>
</g>
<g id="Final_2_FINAL_BLUE_1_" class="st0">
	<g class="st1">
		<rect x="224.99" y="440.87" class="st2" width="692.51" height="194"/>
		<path class="st3" d="M264.71,529.07c-6.2,0-11.79-1.07-16.77-3.21s-9.08-5.2-12.3-9.18c-3.22-3.98-5.31-8.71-6.27-14.19
			l13.08-1.98c1.32,5.28,4.08,9.39,8.28,12.33c4.2,2.94,9.1,4.41,14.7,4.41c3.48,0,6.68-0.55,9.6-1.65c2.92-1.1,5.27-2.68,7.05-4.74
			c1.78-2.06,2.67-4.53,2.67-7.41c0-1.56-0.27-2.94-0.81-4.14s-1.28-2.25-2.22-3.15c-0.94-0.9-2.08-1.68-3.42-2.34
			c-1.34-0.66-2.81-1.23-4.41-1.71l-22.14-6.54c-2.16-0.64-4.36-1.47-6.6-2.49c-2.24-1.02-4.29-2.36-6.15-4.02
			c-1.86-1.66-3.37-3.72-4.53-6.18c-1.16-2.46-1.74-5.45-1.74-8.97c0-5.32,1.37-9.83,4.11-13.53c2.74-3.7,6.45-6.5,11.13-8.4
			c4.68-1.9,9.92-2.85,15.72-2.85c5.84,0.08,11.07,1.12,15.69,3.12c4.62,2,8.46,4.87,11.52,8.61c3.06,3.74,5.17,8.27,6.33,13.59
			l-13.44,2.28c-0.6-3.24-1.88-6.03-3.84-8.37c-1.96-2.34-4.36-4.14-7.2-5.4c-2.84-1.26-5.92-1.91-9.24-1.95
			c-3.2-0.08-6.13,0.4-8.79,1.44c-2.66,1.04-4.78,2.5-6.36,4.38c-1.58,1.88-2.37,4.04-2.37,6.48c0,2.4,0.7,4.34,2.1,5.82
			c1.4,1.48,3.13,2.65,5.19,3.51c2.06,0.86,4.11,1.57,6.15,2.13l15.96,4.5c2,0.56,4.27,1.31,6.81,2.25c2.54,0.94,5,2.25,7.38,3.93
			c2.38,1.68,4.35,3.91,5.91,6.69s2.34,6.27,2.34,10.47c0,4.36-0.88,8.19-2.64,11.49c-1.76,3.3-4.17,6.06-7.23,8.28
			c-3.06,2.22-6.59,3.89-10.59,5.01C273.37,528.51,269.15,529.07,264.71,529.07z"/>
		<path class="st3" d="M311.15,527.27l0.06-86.4h12.72v52.8l25.44-31.2h15.96l-26.88,32.4l29.64,32.4h-17.04l-27.12-31.2v31.2
			H311.15z"/>
		<path class="st3" d="M376.73,451.85v-12.18h12.54v12.18H376.73z M376.73,527.27v-64.8h12.54v64.8H376.73z"/>
		<path class="st3" d="M409.07,527.27v-88.2h12.54v88.2H409.07z"/>
		<path class="st3" d="M441.4,527.27v-88.2h12.54v88.2H441.4z"/>
		<path class="st3" d="M497.32,529.01c-7.88,0-14.3-1.74-19.26-5.22c-4.96-3.48-8-8.38-9.12-14.7l12.84-1.98
			c0.8,3.36,2.65,6.01,5.55,7.95c2.9,1.94,6.51,2.91,10.83,2.91c3.92,0,6.99-0.8,9.21-2.4c2.22-1.6,3.33-3.8,3.33-6.6
			c0-1.64-0.39-2.97-1.17-3.99c-0.78-1.02-2.41-1.99-4.89-2.91c-2.48-0.92-6.26-2.06-11.34-3.42c-5.56-1.44-9.97-2.99-13.23-4.65
			c-3.26-1.66-5.58-3.6-6.96-5.82s-2.07-4.91-2.07-8.07c0-3.92,1.04-7.34,3.12-10.26s5.01-5.18,8.79-6.78
			c3.78-1.6,8.21-2.4,13.29-2.4c4.96,0,9.38,0.78,13.26,2.34c3.88,1.56,7.02,3.77,9.42,6.63c2.4,2.86,3.84,6.21,4.32,10.05
			l-12.84,2.34c-0.44-3.12-1.9-5.58-4.38-7.38c-2.48-1.8-5.7-2.78-9.66-2.94c-3.8-0.16-6.88,0.47-9.24,1.89
			c-2.36,1.42-3.54,3.37-3.54,5.85c0,1.44,0.45,2.66,1.35,3.66c0.9,1,2.65,1.96,5.25,2.88c2.6,0.92,6.44,2.02,11.52,3.3
			c5.44,1.4,9.76,2.95,12.96,4.65c3.2,1.7,5.49,3.72,6.87,6.06c1.38,2.34,2.07,5.17,2.07,8.49c0,6.4-2.33,11.42-6.99,15.06
			C511.95,527.19,505.52,529.01,497.32,529.01z"/>
		<path class="st3" d="M538.3,527.27v-86.4h11.34l31.32,64.98l31.14-64.98h11.46v86.34h-11.88v-59.1l-27.9,59.16h-5.7l-27.96-59.16
			v59.16H538.3z"/>
		<path class="st3" d="M659.26,529.07c-4.8,0-8.82-0.89-12.06-2.67c-3.24-1.78-5.69-4.14-7.35-7.08c-1.66-2.94-2.49-6.17-2.49-9.69
			c0-3.28,0.58-6.16,1.74-8.64c1.16-2.48,2.88-4.59,5.16-6.33c2.28-1.74,5.08-3.15,8.4-4.23c2.88-0.84,6.14-1.58,9.78-2.22
			c3.64-0.64,7.47-1.24,11.49-1.8c4.02-0.56,8.01-1.12,11.97-1.68l-4.56,2.52c0.08-5.08-0.99-8.85-3.21-11.31
			c-2.22-2.46-6.03-3.69-11.43-3.69c-3.4,0-6.52,0.79-9.36,2.37c-2.84,1.58-4.82,4.19-5.94,7.83l-11.7-3.6
			c1.6-5.56,4.65-9.98,9.15-13.26c4.5-3.28,10.49-4.92,17.97-4.92c5.8,0,10.85,0.99,15.15,2.97c4.3,1.98,7.45,5.11,9.45,9.39
			c1.04,2.12,1.68,4.36,1.92,6.72c0.24,2.36,0.36,4.9,0.36,7.62v39.9h-11.1v-14.82l2.16,1.92c-2.68,4.96-6.09,8.65-10.23,11.07
			C670.39,527.86,665.3,529.07,659.26,529.07z M661.48,518.81c3.56,0,6.62-0.63,9.18-1.89c2.56-1.26,4.62-2.87,6.18-4.83
			c1.56-1.96,2.58-4,3.06-6.12c0.68-1.92,1.07-4.08,1.17-6.48c0.1-2.4,0.15-4.32,0.15-5.76l4.08,1.5c-3.96,0.6-7.56,1.14-10.8,1.62
			c-3.24,0.48-6.17,0.95-8.79,1.41c-2.62,0.46-4.95,1.01-6.99,1.65c-1.72,0.6-3.25,1.32-4.59,2.16c-1.34,0.84-2.4,1.86-3.18,3.06
			c-0.78,1.2-1.17,2.66-1.17,4.38c0,1.68,0.42,3.23,1.26,4.65c0.84,1.42,2.12,2.55,3.84,3.39
			C656.6,518.39,658.8,518.81,661.48,518.81z"/>
		<path class="st3" d="M709.84,556.07v-93.6H721v46.62h1.44v46.98H709.84z M740.32,529.07c-6.2,0-11.4-1.51-15.6-4.53
			c-4.2-3.02-7.38-7.11-9.54-12.27s-3.24-10.98-3.24-17.46c0-6.48,1.07-12.3,3.21-17.46c2.14-5.16,5.3-9.23,9.48-12.21
			c4.18-2.98,9.33-4.47,15.45-4.47c6.08,0,11.33,1.49,15.75,4.47c4.42,2.98,7.83,7.04,10.23,12.18c2.4,5.14,3.6,10.97,3.6,17.49
			c0,6.48-1.19,12.31-3.57,17.49c-2.38,5.18-5.76,9.27-10.14,12.27S746.36,529.07,740.32,529.07z M738.58,517.73
			c4,0,7.31-1.02,9.93-3.06c2.62-2.04,4.58-4.79,5.88-8.25s1.95-7.33,1.95-11.61c0-4.24-0.65-8.08-1.95-11.52
			c-1.3-3.44-3.29-6.18-5.97-8.22c-2.68-2.04-6.1-3.06-10.26-3.06c-3.92,0-7.15,0.96-9.69,2.88s-4.42,4.6-5.64,8.04
			c-1.22,3.44-1.83,7.4-1.83,11.88c0,4.48,0.6,8.44,1.8,11.88c1.2,3.44,3.1,6.14,5.7,8.1C731.1,516.75,734.46,517.73,738.58,517.73z
			"/>
		<path class="st3" d="M814.36,493.97c-4.2,0-8.13-0.79-11.79-2.37s-6.87-3.76-9.63-6.54c-2.76-2.78-4.93-6-6.51-9.66
			s-2.37-7.59-2.37-11.79c0-4.16,0.79-8.07,2.37-11.73c1.58-3.66,3.75-6.88,6.51-9.66c2.76-2.78,5.97-4.95,9.63-6.51
			c3.66-1.56,7.59-2.34,11.79-2.34c4.16,0,8.07,0.78,11.73,2.34c3.66,1.56,6.88,3.73,9.66,6.51s4.96,6,6.54,9.66
			c1.58,3.66,2.37,7.57,2.37,11.73c0,4.2-0.79,8.13-2.37,11.79s-3.76,6.88-6.54,9.66c-2.78,2.78-6,4.96-9.66,6.54
			S818.52,493.97,814.36,493.97z M814.42,485.21c3.92,0,7.52-0.98,10.8-2.94c3.28-1.96,5.9-4.58,7.86-7.86
			c1.96-3.28,2.94-6.88,2.94-10.8c0-4-0.98-7.63-2.94-10.89c-1.96-3.26-4.58-5.86-7.86-7.8s-6.88-2.91-10.8-2.91
			c-4,0-7.64,0.97-10.92,2.91c-3.28,1.94-5.89,4.54-7.83,7.8c-1.94,3.26-2.91,6.89-2.91,10.89c0,3.92,0.97,7.52,2.91,10.8
			c1.94,3.28,4.55,5.9,7.83,7.86C806.78,484.23,810.42,485.21,814.42,485.21z M804.46,477.65v-28.26h12.06
			c2.84,0,5.13,0.87,6.87,2.61c1.74,1.74,2.65,3.97,2.73,6.69c0,1.64-0.43,3.21-1.29,4.71c-0.86,1.5-2.11,2.69-3.75,3.57l5.28,10.68
			h-5.76l-4.68-9.78h-6.42v9.78H804.46z M809.5,463.13h7.14c1.2,0,2.22-0.43,3.06-1.29s1.26-1.91,1.26-3.15
			c0-1.44-0.4-2.55-1.2-3.33s-1.84-1.17-3.12-1.17h-7.14V463.13z"/>
	</g>
</g>
<g id="Final_2_FINAL_BLUE" class="st0">
	<g class="st1">
		<rect x="224.99" y="440.87" class="st2" width="692.51" height="194"/>
		<path class="st3" d="M264.71,529.07c-6.2,0-11.79-1.07-16.77-3.21s-9.08-5.2-12.3-9.18c-3.22-3.98-5.31-8.71-6.27-14.19
			l13.08-1.98c1.32,5.28,4.08,9.39,8.28,12.33c4.2,2.94,9.1,4.41,14.7,4.41c3.48,0,6.68-0.55,9.6-1.65c2.92-1.1,5.27-2.68,7.05-4.74
			c1.78-2.06,2.67-4.53,2.67-7.41c0-1.56-0.27-2.94-0.81-4.14s-1.28-2.25-2.22-3.15c-0.94-0.9-2.08-1.68-3.42-2.34
			c-1.34-0.66-2.81-1.23-4.41-1.71l-22.14-6.54c-2.16-0.64-4.36-1.47-6.6-2.49c-2.24-1.02-4.29-2.36-6.15-4.02
			c-1.86-1.66-3.37-3.72-4.53-6.18c-1.16-2.46-1.74-5.45-1.74-8.97c0-5.32,1.37-9.83,4.11-13.53c2.74-3.7,6.45-6.5,11.13-8.4
			c4.68-1.9,9.92-2.85,15.72-2.85c5.84,0.08,11.07,1.12,15.69,3.12c4.62,2,8.46,4.87,11.52,8.61c3.06,3.74,5.17,8.27,6.33,13.59
			l-13.44,2.28c-0.6-3.24-1.88-6.03-3.84-8.37c-1.96-2.34-4.36-4.14-7.2-5.4c-2.84-1.26-5.92-1.91-9.24-1.95
			c-3.2-0.08-6.13,0.4-8.79,1.44c-2.66,1.04-4.78,2.5-6.36,4.38c-1.58,1.88-2.37,4.04-2.37,6.48c0,2.4,0.7,4.34,2.1,5.82
			c1.4,1.48,3.13,2.65,5.19,3.51c2.06,0.86,4.11,1.57,6.15,2.13l15.96,4.5c2,0.56,4.27,1.31,6.81,2.25c2.54,0.94,5,2.25,7.38,3.93
			c2.38,1.68,4.35,3.91,5.91,6.69s2.34,6.27,2.34,10.47c0,4.36-0.88,8.19-2.64,11.49c-1.76,3.3-4.17,6.06-7.23,8.28
			c-3.06,2.22-6.59,3.89-10.59,5.01C273.37,528.51,269.15,529.07,264.71,529.07z"/>
		<path class="st3" d="M311.15,527.27l0.06-86.4h12.72v52.8l25.44-31.2h15.96l-26.88,32.4l29.64,32.4h-17.04l-27.12-31.2v31.2
			H311.15z"/>
		<path class="st3" d="M376.73,451.85v-12.18h12.54v12.18H376.73z M376.73,527.27v-64.8h12.54v64.8H376.73z"/>
		<path class="st3" d="M409.07,527.27v-88.2h12.54v88.2H409.07z"/>
		<path class="st3" d="M441.4,527.27v-88.2h12.54v88.2H441.4z"/>
		<path class="st3" d="M497.32,529.01c-7.88,0-14.3-1.74-19.26-5.22c-4.96-3.48-8-8.38-9.12-14.7l12.84-1.98
			c0.8,3.36,2.65,6.01,5.55,7.95c2.9,1.94,6.51,2.91,10.83,2.91c3.92,0,6.99-0.8,9.21-2.4c2.22-1.6,3.33-3.8,3.33-6.6
			c0-1.64-0.39-2.97-1.17-3.99c-0.78-1.02-2.41-1.99-4.89-2.91c-2.48-0.92-6.26-2.06-11.34-3.42c-5.56-1.44-9.97-2.99-13.23-4.65
			c-3.26-1.66-5.58-3.6-6.96-5.82s-2.07-4.91-2.07-8.07c0-3.92,1.04-7.34,3.12-10.26s5.01-5.18,8.79-6.78
			c3.78-1.6,8.21-2.4,13.29-2.4c4.96,0,9.38,0.78,13.26,2.34c3.88,1.56,7.02,3.77,9.42,6.63c2.4,2.86,3.84,6.21,4.32,10.05
			l-12.84,2.34c-0.44-3.12-1.9-5.58-4.38-7.38c-2.48-1.8-5.7-2.78-9.66-2.94c-3.8-0.16-6.88,0.47-9.24,1.89
			c-2.36,1.42-3.54,3.37-3.54,5.85c0,1.44,0.45,2.66,1.35,3.66c0.9,1,2.65,1.96,5.25,2.88c2.6,0.92,6.44,2.02,11.52,3.3
			c5.44,1.4,9.76,2.95,12.96,4.65c3.2,1.7,5.49,3.72,6.87,6.06c1.38,2.34,2.07,5.17,2.07,8.49c0,6.4-2.33,11.42-6.99,15.06
			C511.95,527.19,505.52,529.01,497.32,529.01z"/>
		<path class="st3" d="M538.3,527.27v-86.4h11.34l31.32,64.98l31.14-64.98h11.46v86.34h-11.88v-59.1l-27.9,59.16h-5.7l-27.96-59.16
			v59.16H538.3z"/>
		<path class="st3" d="M659.26,529.07c-4.8,0-8.82-0.89-12.06-2.67c-3.24-1.78-5.69-4.14-7.35-7.08c-1.66-2.94-2.49-6.17-2.49-9.69
			c0-3.28,0.58-6.16,1.74-8.64c1.16-2.48,2.88-4.59,5.16-6.33c2.28-1.74,5.08-3.15,8.4-4.23c2.88-0.84,6.14-1.58,9.78-2.22
			c3.64-0.64,7.47-1.24,11.49-1.8c4.02-0.56,8.01-1.12,11.97-1.68l-4.56,2.52c0.08-5.08-0.99-8.85-3.21-11.31
			c-2.22-2.46-6.03-3.69-11.43-3.69c-3.4,0-6.52,0.79-9.36,2.37c-2.84,1.58-4.82,4.19-5.94,7.83l-11.7-3.6
			c1.6-5.56,4.65-9.98,9.15-13.26c4.5-3.28,10.49-4.92,17.97-4.92c5.8,0,10.85,0.99,15.15,2.97c4.3,1.98,7.45,5.11,9.45,9.39
			c1.04,2.12,1.68,4.36,1.92,6.72c0.24,2.36,0.36,4.9,0.36,7.62v39.9h-11.1v-14.82l2.16,1.92c-2.68,4.96-6.09,8.65-10.23,11.07
			C670.39,527.86,665.3,529.07,659.26,529.07z M661.48,518.81c3.56,0,6.62-0.63,9.18-1.89c2.56-1.26,4.62-2.87,6.18-4.83
			c1.56-1.96,2.58-4,3.06-6.12c0.68-1.92,1.07-4.08,1.17-6.48c0.1-2.4,0.15-4.32,0.15-5.76l4.08,1.5c-3.96,0.6-7.56,1.14-10.8,1.62
			c-3.24,0.48-6.17,0.95-8.79,1.41c-2.62,0.46-4.95,1.01-6.99,1.65c-1.72,0.6-3.25,1.32-4.59,2.16c-1.34,0.84-2.4,1.86-3.18,3.06
			c-0.78,1.2-1.17,2.66-1.17,4.38c0,1.68,0.42,3.23,1.26,4.65c0.84,1.42,2.12,2.55,3.84,3.39
			C656.6,518.39,658.8,518.81,661.48,518.81z"/>
		<path class="st3" d="M709.84,556.07v-93.6H721v46.62h1.44v46.98H709.84z M740.32,529.07c-6.2,0-11.4-1.51-15.6-4.53
			c-4.2-3.02-7.38-7.11-9.54-12.27s-3.24-10.98-3.24-17.46c0-6.48,1.07-12.3,3.21-17.46c2.14-5.16,5.3-9.23,9.48-12.21
			c4.18-2.98,9.33-4.47,15.45-4.47c6.08,0,11.33,1.49,15.75,4.47c4.42,2.98,7.83,7.04,10.23,12.18c2.4,5.14,3.6,10.97,3.6,17.49
			c0,6.48-1.19,12.31-3.57,17.49c-2.38,5.18-5.76,9.27-10.14,12.27S746.36,529.07,740.32,529.07z M738.58,517.73
			c4,0,7.31-1.02,9.93-3.06c2.62-2.04,4.58-4.79,5.88-8.25s1.95-7.33,1.95-11.61c0-4.24-0.65-8.08-1.95-11.52
			c-1.3-3.44-3.29-6.18-5.97-8.22c-2.68-2.04-6.1-3.06-10.26-3.06c-3.92,0-7.15,0.96-9.69,2.88s-4.42,4.6-5.64,8.04
			c-1.22,3.44-1.83,7.4-1.83,11.88c0,4.48,0.6,8.44,1.8,11.88c1.2,3.44,3.1,6.14,5.7,8.1C731.1,516.75,734.46,517.73,738.58,517.73z
			"/>
	</g>
</g>
<g id="Final_2__FINAL_BLUE" class="st0">
	<circle class="st7" cx="361.4" cy="303.52" r="45.1"/>
	<path class="st26" d="M664.8,245.3c0,0-129.6-81.26-258.18,24.69"/>
	<circle class="st8" cx="736.37" cy="290.99" r="59.69"/>
	<circle class="st27" cx="525.06" cy="351.01" r="29.84"/>
	<path class="st8" d="M682.76,317.32c0,0-72.8,98.43-137.16,47.31"/>
	<circle class="st9" cx="233.02" cy="349.73" r="32.35"/>
	<circle class="st9" cx="138.92" cy="318.83" r="22.16"/>
	<circle class="st9" cx="173.68" cy="436.71" r="22.16"/>
</g>
<g id="Final_2__FINAL_BLUE_copy" class="st0">
	<circle class="st7" cx="361.4" cy="303.52" r="45.1"/>
	<path class="st26" d="M664.8,245.3c0,0-129.6-81.26-258.18,24.69"/>
	<circle class="st8" cx="736.37" cy="290.99" r="59.69"/>
	<circle class="st27" cx="525.06" cy="351.01" r="29.84"/>
	<path class="st8" d="M682.76,317.32c0,0-72.8,98.43-137.16,47.31"/>
	<circle class="st9" cx="233.02" cy="349.73" r="32.35"/>
	<circle class="st9" cx="138.92" cy="318.83" r="22.16"/>
	<circle class="st9" cx="173.68" cy="436.71" r="22.16"/>
</g>
<g id="Final_2_FINAL_WHITE" class="st0">
	<g class="st1">
		<rect x="224.99" y="440.87" class="st2" width="692.51" height="194"/>
		<path class="st28" d="M264.71,529.07c-6.2,0-11.79-1.07-16.77-3.21s-9.08-5.2-12.3-9.18c-3.22-3.98-5.31-8.71-6.27-14.19
			l13.08-1.98c1.32,5.28,4.08,9.39,8.28,12.33c4.2,2.94,9.1,4.41,14.7,4.41c3.48,0,6.68-0.55,9.6-1.65c2.92-1.1,5.27-2.68,7.05-4.74
			c1.78-2.06,2.67-4.53,2.67-7.41c0-1.56-0.27-2.94-0.81-4.14s-1.28-2.25-2.22-3.15c-0.94-0.9-2.08-1.68-3.42-2.34
			c-1.34-0.66-2.81-1.23-4.41-1.71l-22.14-6.54c-2.16-0.64-4.36-1.47-6.6-2.49c-2.24-1.02-4.29-2.36-6.15-4.02
			c-1.86-1.66-3.37-3.72-4.53-6.18c-1.16-2.46-1.74-5.45-1.74-8.97c0-5.32,1.37-9.83,4.11-13.53c2.74-3.7,6.45-6.5,11.13-8.4
			c4.68-1.9,9.92-2.85,15.72-2.85c5.84,0.08,11.07,1.12,15.69,3.12c4.62,2,8.46,4.87,11.52,8.61c3.06,3.74,5.17,8.27,6.33,13.59
			l-13.44,2.28c-0.6-3.24-1.88-6.03-3.84-8.37c-1.96-2.34-4.36-4.14-7.2-5.4c-2.84-1.26-5.92-1.91-9.24-1.95
			c-3.2-0.08-6.13,0.4-8.79,1.44c-2.66,1.04-4.78,2.5-6.36,4.38c-1.58,1.88-2.37,4.04-2.37,6.48c0,2.4,0.7,4.34,2.1,5.82
			c1.4,1.48,3.13,2.65,5.19,3.51c2.06,0.86,4.11,1.57,6.15,2.13l15.96,4.5c2,0.56,4.27,1.31,6.81,2.25c2.54,0.94,5,2.25,7.38,3.93
			c2.38,1.68,4.35,3.91,5.91,6.69s2.34,6.27,2.34,10.47c0,4.36-0.88,8.19-2.64,11.49c-1.76,3.3-4.17,6.06-7.23,8.28
			c-3.06,2.22-6.59,3.89-10.59,5.01C273.37,528.51,269.15,529.07,264.71,529.07z"/>
		<path class="st28" d="M311.15,527.27l0.06-86.4h12.72v52.8l25.44-31.2h15.96l-26.88,32.4l29.64,32.4h-17.04l-27.12-31.2v31.2
			H311.15z"/>
		<path class="st28" d="M376.73,451.85v-12.18h12.54v12.18H376.73z M376.73,527.27v-64.8h12.54v64.8H376.73z"/>
		<path class="st28" d="M409.07,527.27v-88.2h12.54v88.2H409.07z"/>
		<path class="st28" d="M441.4,527.27v-88.2h12.54v88.2H441.4z"/>
		<path class="st28" d="M497.32,529.01c-7.88,0-14.3-1.74-19.26-5.22c-4.96-3.48-8-8.38-9.12-14.7l12.84-1.98
			c0.8,3.36,2.65,6.01,5.55,7.95c2.9,1.94,6.51,2.91,10.83,2.91c3.92,0,6.99-0.8,9.21-2.4c2.22-1.6,3.33-3.8,3.33-6.6
			c0-1.64-0.39-2.97-1.17-3.99c-0.78-1.02-2.41-1.99-4.89-2.91c-2.48-0.92-6.26-2.06-11.34-3.42c-5.56-1.44-9.97-2.99-13.23-4.65
			c-3.26-1.66-5.58-3.6-6.96-5.82s-2.07-4.91-2.07-8.07c0-3.92,1.04-7.34,3.12-10.26s5.01-5.18,8.79-6.78
			c3.78-1.6,8.21-2.4,13.29-2.4c4.96,0,9.38,0.78,13.26,2.34c3.88,1.56,7.02,3.77,9.42,6.63c2.4,2.86,3.84,6.21,4.32,10.05
			l-12.84,2.34c-0.44-3.12-1.9-5.58-4.38-7.38c-2.48-1.8-5.7-2.78-9.66-2.94c-3.8-0.16-6.88,0.47-9.24,1.89
			c-2.36,1.42-3.54,3.37-3.54,5.85c0,1.44,0.45,2.66,1.35,3.66c0.9,1,2.65,1.96,5.25,2.88c2.6,0.92,6.44,2.02,11.52,3.3
			c5.44,1.4,9.76,2.95,12.96,4.65c3.2,1.7,5.49,3.72,6.87,6.06c1.38,2.34,2.07,5.17,2.07,8.49c0,6.4-2.33,11.42-6.99,15.06
			C511.95,527.19,505.52,529.01,497.32,529.01z"/>
		<path class="st28" d="M538.3,527.27v-86.4h11.34l31.32,64.98l31.14-64.98h11.46v86.34h-11.88v-59.1l-27.9,59.16h-5.7l-27.96-59.16
			v59.16H538.3z"/>
		<path class="st28" d="M659.26,529.07c-4.8,0-8.82-0.89-12.06-2.67c-3.24-1.78-5.69-4.14-7.35-7.08c-1.66-2.94-2.49-6.17-2.49-9.69
			c0-3.28,0.58-6.16,1.74-8.64c1.16-2.48,2.88-4.59,5.16-6.33c2.28-1.74,5.08-3.15,8.4-4.23c2.88-0.84,6.14-1.58,9.78-2.22
			c3.64-0.64,7.47-1.24,11.49-1.8c4.02-0.56,8.01-1.12,11.97-1.68l-4.56,2.52c0.08-5.08-0.99-8.85-3.21-11.31
			c-2.22-2.46-6.03-3.69-11.43-3.69c-3.4,0-6.52,0.79-9.36,2.37c-2.84,1.58-4.82,4.19-5.94,7.83l-11.7-3.6
			c1.6-5.56,4.65-9.98,9.15-13.26c4.5-3.28,10.49-4.92,17.97-4.92c5.8,0,10.85,0.99,15.15,2.97c4.3,1.98,7.45,5.11,9.45,9.39
			c1.04,2.12,1.68,4.36,1.92,6.72c0.24,2.36,0.36,4.9,0.36,7.62v39.9h-11.1v-14.82l2.16,1.92c-2.68,4.96-6.09,8.65-10.23,11.07
			C670.39,527.86,665.3,529.07,659.26,529.07z M661.48,518.81c3.56,0,6.62-0.63,9.18-1.89c2.56-1.26,4.62-2.87,6.18-4.83
			c1.56-1.96,2.58-4,3.06-6.12c0.68-1.92,1.07-4.08,1.17-6.48c0.1-2.4,0.15-4.32,0.15-5.76l4.08,1.5c-3.96,0.6-7.56,1.14-10.8,1.62
			c-3.24,0.48-6.17,0.95-8.79,1.41c-2.62,0.46-4.95,1.01-6.99,1.65c-1.72,0.6-3.25,1.32-4.59,2.16c-1.34,0.84-2.4,1.86-3.18,3.06
			c-0.78,1.2-1.17,2.66-1.17,4.38c0,1.68,0.42,3.23,1.26,4.65c0.84,1.42,2.12,2.55,3.84,3.39
			C656.6,518.39,658.8,518.81,661.48,518.81z"/>
		<path class="st28" d="M709.84,556.07v-93.6H721v46.62h1.44v46.98H709.84z M740.32,529.07c-6.2,0-11.4-1.51-15.6-4.53
			c-4.2-3.02-7.38-7.11-9.54-12.27s-3.24-10.98-3.24-17.46c0-6.48,1.07-12.3,3.21-17.46c2.14-5.16,5.3-9.23,9.48-12.21
			c4.18-2.98,9.33-4.47,15.45-4.47c6.08,0,11.33,1.49,15.75,4.47c4.42,2.98,7.83,7.04,10.23,12.18c2.4,5.14,3.6,10.97,3.6,17.49
			c0,6.48-1.19,12.31-3.57,17.49c-2.38,5.18-5.76,9.27-10.14,12.27S746.36,529.07,740.32,529.07z M738.58,517.73
			c4,0,7.31-1.02,9.93-3.06c2.62-2.04,4.58-4.79,5.88-8.25s1.95-7.33,1.95-11.61c0-4.24-0.65-8.08-1.95-11.52
			c-1.3-3.44-3.29-6.18-5.97-8.22c-2.68-2.04-6.1-3.06-10.26-3.06c-3.92,0-7.15,0.96-9.69,2.88s-4.42,4.6-5.64,8.04
			c-1.22,3.44-1.83,7.4-1.83,11.88c0,4.48,0.6,8.44,1.8,11.88c1.2,3.44,3.1,6.14,5.7,8.1C731.1,516.75,734.46,517.73,738.58,517.73z
			"/>
		<path class="st28" d="M814.36,493.97c-4.2,0-8.13-0.79-11.79-2.37s-6.87-3.76-9.63-6.54c-2.76-2.78-4.93-6-6.51-9.66
			s-2.37-7.59-2.37-11.79c0-4.16,0.79-8.07,2.37-11.73c1.58-3.66,3.75-6.88,6.51-9.66c2.76-2.78,5.97-4.95,9.63-6.51
			c3.66-1.56,7.59-2.34,11.79-2.34c4.16,0,8.07,0.78,11.73,2.34c3.66,1.56,6.88,3.73,9.66,6.51s4.96,6,6.54,9.66
			c1.58,3.66,2.37,7.57,2.37,11.73c0,4.2-0.79,8.13-2.37,11.79s-3.76,6.88-6.54,9.66c-2.78,2.78-6,4.96-9.66,6.54
			S818.52,493.97,814.36,493.97z M814.42,485.21c3.92,0,7.52-0.98,10.8-2.94c3.28-1.96,5.9-4.58,7.86-7.86
			c1.96-3.28,2.94-6.88,2.94-10.8c0-4-0.98-7.63-2.94-10.89c-1.96-3.26-4.58-5.86-7.86-7.8s-6.88-2.91-10.8-2.91
			c-4,0-7.64,0.97-10.92,2.91c-3.28,1.94-5.89,4.54-7.83,7.8c-1.94,3.26-2.91,6.89-2.91,10.89c0,3.92,0.97,7.52,2.91,10.8
			c1.94,3.28,4.55,5.9,7.83,7.86C806.78,484.23,810.42,485.21,814.42,485.21z M804.46,477.65v-28.26h12.06
			c2.84,0,5.13,0.87,6.87,2.61c1.74,1.74,2.65,3.97,2.73,6.69c0,1.64-0.43,3.21-1.29,4.71c-0.86,1.5-2.11,2.69-3.75,3.57l5.28,10.68
			h-5.76l-4.68-9.78h-6.42v9.78H804.46z M809.5,463.13h7.14c1.2,0,2.22-0.43,3.06-1.29s1.26-1.91,1.26-3.15
			c0-1.44-0.4-2.55-1.2-3.33s-1.84-1.17-3.12-1.17h-7.14V463.13z"/>
	</g>
</g>
<g id="Final_2__FINAL_WHITE" class="st0">
	<circle class="st29" cx="361.4" cy="303.52" r="45.1"/>
	<path class="st30" d="M664.8,245.3c0,0-129.6-81.26-258.18,24.69"/>
	<circle class="st31" cx="736.37" cy="290.99" r="59.69"/>
	<circle class="st32" cx="525.06" cy="351.01" r="29.84"/>
	<path class="st31" d="M682.76,317.32c0,0-72.8,98.43-137.16,47.31"/>
	<circle class="st33" cx="233.02" cy="349.73" r="32.35"/>
	<circle class="st33" cx="138.92" cy="318.83" r="22.16"/>
	<circle class="st33" cx="173.68" cy="436.71" r="22.16"/>
</g>
</svg>
