<?xml version="1.0" encoding="utf-8"?>
<!-- Generator: Adobe Illustrator 26.3.1, SVG Export Plug-In . SVG Version: 6.00 Build 0)  -->
<svg version="1.1" xmlns="http://www.w3.org/2000/svg" xmlns:xlink="http://www.w3.org/1999/xlink" x="0px" y="0px" 
	 viewBox="0 0 1000 1000" style="enable-background:new 0 0 1000 1000;" xml:space="preserve">
<style type="text/css">
	.subject0{fill:none;stroke:#000000;stroke-width:30;stroke-miterlimit:10;}
	.subject1{stroke:#000000;stroke-width:20;stroke-miterlimit:10;}
	.subject2{fill:none;stroke:#000000;stroke-width:20;stroke-miterlimit:10;}
	.subject3{display:none;}
	.subject4{display:inline;fill:none;stroke:#6495ED;stroke-width:30;stroke-miterlimit:10;}
	.subject5{display:inline;fill:#6495ED;stroke:#6495ED;stroke-width:20;stroke-miterlimit:10;}
	.subject6{display:inline;fill:none;stroke:#6495ED;stroke-width:20;stroke-miterlimit:10;}
	.subject7{display:inline;}
	.subject8{fill:#6495ED;}
	.subject9{fill:none;stroke:#6495ED;stroke-width:20;stroke-miterlimit:10;}
	.subject10{display:inline;fill:#6495ED;}
	.subject11{display:inline;fill:none;stroke:#A6D785;stroke-width:30;stroke-miterlimit:10;}
	.subject12{display:inline;fill:#A6D785;stroke:#A6D785;stroke-width:20;stroke-miterlimit:10;}
	.subject13{display:inline;fill:none;stroke:#A6D785;stroke-width:20;stroke-miterlimit:10;}
	.subject14{fill:#A6D785;}
	.subject15{fill:none;stroke:#A6D785;stroke-width:20;stroke-miterlimit:10;}
	.subject16{display:inline;fill:#A6D785;}
	.subject17{display:inline;fill:none;stroke:#7F7F7F;stroke-width:30;stroke-miterlimit:10;}
	.subject18{display:inline;fill:#7F7F7F;stroke:#7F7F7F;stroke-width:20;stroke-miterlimit:10;}
	.subject19{display:inline;fill:none;stroke:#7F7F7F;stroke-width:20;stroke-miterlimit:10;}
	.subject20{fill:#7F7F7F;}
	.subject21{fill:none;stroke:#7F7F7F;stroke-width:20;stroke-miterlimit:10;}
	.subject22{display:inline;fill:#7F7F7F;}
	.subject23{display:inline;fill:none;stroke:#873A8A;stroke-width:30;stroke-miterlimit:10;}
	.subject24{display:inline;fill:#873A8A;stroke:#873A8A;stroke-width:20;stroke-miterlimit:10;}
	.subject25{display:inline;fill:none;stroke:#873A8A;stroke-width:20;stroke-miterlimit:10;}
	.subject26{fill:#873A8A;}
	.subject27{fill:none;stroke:#873A8A;stroke-width:20;stroke-miterlimit:10;}
	.subject28{display:inline;fill:#873A8A;}
	.subject29{display:inline;fill:none;stroke:#FFFFFF;stroke-width:30;stroke-miterlimit:10;}
	.subject30{display:inline;fill:#FFFFFF;stroke:#FFFFFF;stroke-width:20;stroke-miterlimit:10;}
	.subject31{display:inline;fill:none;stroke:#FFFFFF;stroke-width:20;stroke-miterlimit:10;}
	.subject32{fill:#FFFFFF;}
	.subject33{fill:none;stroke:#FFFFFF;stroke-width:20;stroke-miterlimit:10;}
	.subject34{display:inline;fill:#FFFFFF;}
</style>
<g id="BLACK">
	<circle class="subject0" cx="499.62" cy="499.62" r="474.14"/>
	<circle class="subject1" cx="202.8" cy="449.11" r="23.66"/>
	<circle class="subject1" cx="368.07" cy="430.02" r="23.66"/>
	<path class="subject2" d="M226.46,449.11v-153.3c0-0.21,0.16-0.38,0.37-0.4l164.46-15.61c0.24-0.02,0.44,0.16,0.44,0.4v150.24"/>
	<line class="subject2" x1="226.46" y1="325.7" x2="391.73" y2="310.19"/>
	<g>
		<path d="M739.15,412.84L788,364.95c2.13-2.09,2.13-5.52,0-7.61l-48.85-47.88c-2.12-2.07-2.13-5.48-0.04-7.57l13.2-13.2
			c2.08-2.08,5.45-2.08,7.53,0l68.7,68.7c2.08,2.08,2.08,5.45,0,7.53l-68.7,68.7c-2.08,2.08-5.45,2.08-7.53,0l-13.2-13.2
			C737.02,418.31,737.03,414.91,739.15,412.84z"/>
	</g>
	<g>
		<path d="M622.52,420.6l-13.2,13.2c-2.08,2.08-5.45,2.08-7.53,0l-68.7-68.7c-2.08-2.08-2.08-5.45,0-7.53l68.7-68.7
			c2.08-2.08,5.45-2.08,7.53,0l13.2,13.2c2.1,2.1,2.08,5.5-0.04,7.57l-48.85,47.88c-2.13,2.09-2.13,5.52,0,7.61l48.85,47.88
			C624.59,415.1,624.61,418.5,622.52,420.6z"/>
	</g>
	<g>
		<line class="subject2" x1="715.33" y1="220" x2="645.84" y2="502.31"/>
		<path class="subject2" d="M645.89,502.3l-0.11,0.02c-0.14,0.02-0.29,0.04-0.43,0.06c-3.34,0.31-5.86-2.4-5.11-5.28
			c5.74-22.15,70.43-271.81,70.53-272.15c0.76-2.57,1.8-4.5,4.51-4.94l0.11-0.02c0.14-0.02,0.29-0.04,0.43-0.06
			c3.34-0.31,5.86,2.41,5.11,5.28l-70.4,271.05C650.43,496.62,649.18,502.37,645.89,502.3z"/>
	</g>
	<path d="M548.35,537.95h-99.97c-3.51,0-6.36-2.85-6.36-6.36v-12.67c0-3.51,2.85-6.36,6.36-6.36h99.97c3.51,0,6.36,2.85,6.36,6.36
		v12.67C554.7,535.11,551.86,537.95,548.35,537.95z"/>
	<path class="subject2" d="M464.24,537.19v63.27c0,21.66-8.6,42.42-23.92,57.74l-59.32,59.32c-3.58,3.58-5.59,8.43-5.59,13.49v29.83
		c0,10.53,8.54,19.07,19.07,19.07h103.87h103.87c10.53,0,19.07-8.54,19.07-19.07v-29.83c0-5.06-2.01-9.91-5.59-13.49l-59.32-59.32
		c-15.31-15.31-23.92-36.08-23.92-57.74v-63.27"/>
	<g>
		<path d="M470.35,632.99h-9.8c-3.09,0-5.6-2.51-5.6-5.6v-0.11c0-3.09,2.51-5.6,5.6-5.6h9.8c3.09,0,5.6,2.51,5.6,5.6v0.11
			C475.95,630.48,473.44,632.99,470.35,632.99z"/>
	</g>
	<g>
		<path d="M465.97,655.21h-23.14l5.36-11.31h17.67c3.12,0,5.66,2.53,5.66,5.66v0.11C471.51,652.73,469.03,655.21,465.97,655.21z"/>
	</g>
	<g>
		<path d="M461.23,677.84h-42.43l9.59-11.31h32.84c3.09,0,5.6,2.51,5.6,5.6v0.11C466.83,675.33,464.33,677.84,461.23,677.84z"/>
	</g>
	<g>
		<path d="M456.74,700.46h-62.3l13.6-11.31h48.7c3.09,0,5.6,2.51,5.6,5.6v0.11C462.34,697.95,459.84,700.46,456.74,700.46z"/>
	</g>
	<g>
		<path d="M452.25,723.08h-76.83l10.29-11.31h66.55c3.09,0,5.6,2.51,5.6,5.6v0.11C457.85,720.58,455.34,723.08,452.25,723.08z"/>
	</g>
</g>
<g id="BLUE" class="subject3">
	<circle class="subject4" cx="499.62" cy="499.62" r="474.14"/>
	<circle class="subject5" cx="202.8" cy="449.11" r="23.66"/>
	<circle class="subject5" cx="368.07" cy="430.02" r="23.66"/>
	<path class="subject6" d="M226.46,449.11v-153.3c0-0.21,0.16-0.38,0.37-0.4l164.46-15.61c0.24-0.02,0.44,0.16,0.44,0.4v150.24"/>
	<line class="subject6" x1="226.46" y1="325.7" x2="391.73" y2="310.19"/>
	<g class="subject7">
		<path class="subject8" d="M739.15,412.84L788,364.95c2.13-2.09,2.13-5.52,0-7.61l-48.85-47.88c-2.12-2.07-2.13-5.48-0.04-7.57
			l13.2-13.2c2.08-2.08,5.45-2.08,7.53,0l68.7,68.7c2.08,2.08,2.08,5.45,0,7.53l-68.7,68.7c-2.08,2.08-5.45,2.08-7.53,0l-13.2-13.2
			C737.02,418.31,737.03,414.91,739.15,412.84z"/>
	</g>
	<g class="subject7">
		<path class="subject8" d="M622.52,420.6l-13.2,13.2c-2.08,2.08-5.45,2.08-7.53,0l-68.7-68.7c-2.08-2.08-2.08-5.45,0-7.53l68.7-68.7
			c2.08-2.08,5.45-2.08,7.53,0l13.2,13.2c2.1,2.1,2.08,5.5-0.04,7.57l-48.85,47.88c-2.13,2.09-2.13,5.52,0,7.61l48.85,47.88
			C624.59,415.1,624.61,418.5,622.52,420.6z"/>
	</g>
	<g class="subject7">
		<line class="subject9" x1="715.33" y1="220" x2="645.84" y2="502.31"/>
		<path class="subject9" d="M645.89,502.3l-0.11,0.02c-0.14,0.02-0.29,0.04-0.43,0.06c-3.34,0.31-5.86-2.4-5.11-5.28
			c5.74-22.15,70.43-271.81,70.53-272.15c0.76-2.57,1.8-4.5,4.51-4.94l0.11-0.02c0.14-0.02,0.29-0.04,0.43-0.06
			c3.34-0.31,5.86,2.41,5.11,5.28l-70.4,271.05C650.43,496.62,649.18,502.37,645.89,502.3z"/>
	</g>
	<path class="subject10" d="M548.35,537.95h-99.97c-3.51,0-6.36-2.85-6.36-6.36v-12.67c0-3.51,2.85-6.36,6.36-6.36h99.97
		c3.51,0,6.36,2.85,6.36,6.36v12.67C554.7,535.11,551.86,537.95,548.35,537.95z"/>
	<path class="subject6" d="M464.24,537.19v63.27c0,21.66-8.6,42.42-23.92,57.74l-59.32,59.32c-3.58,3.58-5.59,8.43-5.59,13.49v29.83
		c0,10.53,8.54,19.07,19.07,19.07h103.87h103.87c10.53,0,19.07-8.54,19.07-19.07v-29.83c0-5.06-2.01-9.91-5.59-13.49l-59.32-59.32
		c-15.31-15.31-23.92-36.08-23.92-57.74v-63.27"/>
	<g class="subject7">
		<path class="subject8" d="M470.35,632.99h-9.8c-3.09,0-5.6-2.51-5.6-5.6v-0.11c0-3.09,2.51-5.6,5.6-5.6h9.8c3.09,0,5.6,2.51,5.6,5.6
			v0.11C475.95,630.48,473.44,632.99,470.35,632.99z"/>
	</g>
	<g class="subject7">
		<path class="subject8" d="M465.97,655.21h-23.14l5.36-11.31h17.67c3.12,0,5.66,2.53,5.66,5.66v0.11
			C471.51,652.73,469.03,655.21,465.97,655.21z"/>
	</g>
	<g class="subject7">
		<path class="subject8" d="M461.23,677.84h-42.43l9.59-11.31h32.84c3.09,0,5.6,2.51,5.6,5.6v0.11
			C466.83,675.33,464.33,677.84,461.23,677.84z"/>
	</g>
	<g class="subject7">
		<path class="subject8" d="M456.74,700.46h-62.3l13.6-11.31h48.7c3.09,0,5.6,2.51,5.6,5.6v0.11
			C462.34,697.95,459.84,700.46,456.74,700.46z"/>
	</g>
	<g class="subject7">
		<path class="subject8" d="M452.25,723.08h-76.83l10.29-11.31h66.55c3.09,0,5.6,2.51,5.6,5.6v0.11
			C457.85,720.58,455.34,723.08,452.25,723.08z"/>
	</g>
</g>
<g id="GREEN" class="subject3">
	<circle class="subject11" cx="499.62" cy="499.62" r="474.14"/>
	<circle class="subject12" cx="202.8" cy="449.11" r="23.66"/>
	<circle class="subject12" cx="368.07" cy="430.02" r="23.66"/>
	<path class="subject13" d="M226.46,449.11v-153.3c0-0.21,0.16-0.38,0.37-0.4l164.46-15.61c0.24-0.02,0.44,0.16,0.44,0.4v150.24"/>
	<line class="subject13" x1="226.46" y1="325.7" x2="391.73" y2="310.19"/>
	<g class="subject7">
		<path class="subject14" d="M739.15,412.84L788,364.95c2.13-2.09,2.13-5.52,0-7.61l-48.85-47.88c-2.12-2.07-2.13-5.48-0.04-7.57
			l13.2-13.2c2.08-2.08,5.45-2.08,7.53,0l68.7,68.7c2.08,2.08,2.08,5.45,0,7.53l-68.7,68.7c-2.08,2.08-5.45,2.08-7.53,0l-13.2-13.2
			C737.02,418.31,737.03,414.91,739.15,412.84z"/>
	</g>
	<g class="subject7">
		<path class="subject14" d="M622.52,420.6l-13.2,13.2c-2.08,2.08-5.45,2.08-7.53,0l-68.7-68.7c-2.08-2.08-2.08-5.45,0-7.53l68.7-68.7
			c2.08-2.08,5.45-2.08,7.53,0l13.2,13.2c2.1,2.1,2.08,5.5-0.04,7.57l-48.85,47.88c-2.13,2.09-2.13,5.52,0,7.61l48.85,47.88
			C624.59,415.1,624.61,418.5,622.52,420.6z"/>
	</g>
	<g class="subject7">
		<line class="subject15" x1="715.33" y1="220" x2="645.84" y2="502.31"/>
		<path class="subject15" d="M645.89,502.3l-0.11,0.02c-0.14,0.02-0.29,0.04-0.43,0.06c-3.34,0.31-5.86-2.4-5.11-5.28
			c5.74-22.15,70.43-271.81,70.53-272.15c0.76-2.57,1.8-4.5,4.51-4.94l0.11-0.02c0.14-0.02,0.29-0.04,0.43-0.06
			c3.34-0.31,5.86,2.41,5.11,5.28l-70.4,271.05C650.43,496.62,649.18,502.37,645.89,502.3z"/>
	</g>
	<path class="subject16" d="M548.35,537.95h-99.97c-3.51,0-6.36-2.85-6.36-6.36v-12.67c0-3.51,2.85-6.36,6.36-6.36h99.97
		c3.51,0,6.36,2.85,6.36,6.36v12.67C554.7,535.11,551.86,537.95,548.35,537.95z"/>
	<path class="subject13" d="M464.24,537.19v63.27c0,21.66-8.6,42.42-23.92,57.74l-59.32,59.32c-3.58,3.58-5.59,8.43-5.59,13.49v29.83
		c0,10.53,8.54,19.07,19.07,19.07h103.87h103.87c10.53,0,19.07-8.54,19.07-19.07v-29.83c0-5.06-2.01-9.91-5.59-13.49l-59.32-59.32
		c-15.31-15.31-23.92-36.08-23.92-57.74v-63.27"/>
	<g class="subject7">
		<path class="subject14" d="M470.35,632.99h-9.8c-3.09,0-5.6-2.51-5.6-5.6v-0.11c0-3.09,2.51-5.6,5.6-5.6h9.8c3.09,0,5.6,2.51,5.6,5.6
			v0.11C475.95,630.48,473.44,632.99,470.35,632.99z"/>
	</g>
	<g class="subject7">
		<path class="subject14" d="M465.97,655.21h-23.14l5.36-11.31h17.67c3.12,0,5.66,2.53,5.66,5.66v0.11
			C471.51,652.73,469.03,655.21,465.97,655.21z"/>
	</g>
	<g class="subject7">
		<path class="subject14" d="M461.23,677.84h-42.43l9.59-11.31h32.84c3.09,0,5.6,2.51,5.6,5.6v0.11
			C466.83,675.33,464.33,677.84,461.23,677.84z"/>
	</g>
	<g class="subject7">
		<path class="subject14" d="M456.74,700.46h-62.3l13.6-11.31h48.7c3.09,0,5.6,2.51,5.6,5.6v0.11
			C462.34,697.95,459.84,700.46,456.74,700.46z"/>
	</g>
	<g class="subject7">
		<path class="subject14" d="M452.25,723.08h-76.83l10.29-11.31h66.55c3.09,0,5.6,2.51,5.6,5.6v0.11
			C457.85,720.58,455.34,723.08,452.25,723.08z"/>
	</g>
</g>
<g id="GREY" class="subject3">
	<circle class="subject17" cx="499.62" cy="499.62" r="474.14"/>
	<circle class="subject18" cx="202.8" cy="449.11" r="23.66"/>
	<circle class="subject18" cx="368.07" cy="430.02" r="23.66"/>
	<path class="subject19" d="M226.46,449.11v-153.3c0-0.21,0.16-0.38,0.37-0.4l164.46-15.61c0.24-0.02,0.44,0.16,0.44,0.4v150.24"/>
	<line class="subject19" x1="226.46" y1="325.7" x2="391.73" y2="310.19"/>
	<g class="subject7">
		<path class="subject20" d="M739.15,412.84L788,364.95c2.13-2.09,2.13-5.52,0-7.61l-48.85-47.88c-2.12-2.07-2.13-5.48-0.04-7.57
			l13.2-13.2c2.08-2.08,5.45-2.08,7.53,0l68.7,68.7c2.08,2.08,2.08,5.45,0,7.53l-68.7,68.7c-2.08,2.08-5.45,2.08-7.53,0l-13.2-13.2
			C737.02,418.31,737.03,414.91,739.15,412.84z"/>
	</g>
	<g class="subject7">
		<path class="subject20" d="M622.52,420.6l-13.2,13.2c-2.08,2.08-5.45,2.08-7.53,0l-68.7-68.7c-2.08-2.08-2.08-5.45,0-7.53l68.7-68.7
			c2.08-2.08,5.45-2.08,7.53,0l13.2,13.2c2.1,2.1,2.08,5.5-0.04,7.57l-48.85,47.88c-2.13,2.09-2.13,5.52,0,7.61l48.85,47.88
			C624.59,415.1,624.61,418.5,622.52,420.6z"/>
	</g>
	<g class="subject7">
		<line class="subject21" x1="715.33" y1="220" x2="645.84" y2="502.31"/>
		<path class="subject21" d="M645.89,502.3l-0.11,0.02c-0.14,0.02-0.29,0.04-0.43,0.06c-3.34,0.31-5.86-2.4-5.11-5.28
			c5.74-22.15,70.43-271.81,70.53-272.15c0.76-2.57,1.8-4.5,4.51-4.94l0.11-0.02c0.14-0.02,0.29-0.04,0.43-0.06
			c3.34-0.31,5.86,2.41,5.11,5.28l-70.4,271.05C650.43,496.62,649.18,502.37,645.89,502.3z"/>
	</g>
	<path class="subject22" d="M548.35,537.95h-99.97c-3.51,0-6.36-2.85-6.36-6.36v-12.67c0-3.51,2.85-6.36,6.36-6.36h99.97
		c3.51,0,6.36,2.85,6.36,6.36v12.67C554.7,535.11,551.86,537.95,548.35,537.95z"/>
	<path class="subject19" d="M464.24,537.19v63.27c0,21.66-8.6,42.42-23.92,57.74l-59.32,59.32c-3.58,3.58-5.59,8.43-5.59,13.49v29.83
		c0,10.53,8.54,19.07,19.07,19.07h103.87h103.87c10.53,0,19.07-8.54,19.07-19.07v-29.83c0-5.06-2.01-9.91-5.59-13.49l-59.32-59.32
		c-15.31-15.31-23.92-36.08-23.92-57.74v-63.27"/>
	<g class="subject7">
		<path class="subject20" d="M470.35,632.99h-9.8c-3.09,0-5.6-2.51-5.6-5.6v-0.11c0-3.09,2.51-5.6,5.6-5.6h9.8c3.09,0,5.6,2.51,5.6,5.6
			v0.11C475.95,630.48,473.44,632.99,470.35,632.99z"/>
	</g>
	<g class="subject7">
		<path class="subject20" d="M465.97,655.21h-23.14l5.36-11.31h17.67c3.12,0,5.66,2.53,5.66,5.66v0.11
			C471.51,652.73,469.03,655.21,465.97,655.21z"/>
	</g>
	<g class="subject7">
		<path class="subject20" d="M461.23,677.84h-42.43l9.59-11.31h32.84c3.09,0,5.6,2.51,5.6,5.6v0.11
			C466.83,675.33,464.33,677.84,461.23,677.84z"/>
	</g>
	<g class="subject7">
		<path class="subject20" d="M456.74,700.46h-62.3l13.6-11.31h48.7c3.09,0,5.6,2.51,5.6,5.6v0.11
			C462.34,697.95,459.84,700.46,456.74,700.46z"/>
	</g>
	<g class="subject7">
		<path class="subject20" d="M452.25,723.08h-76.83l10.29-11.31h66.55c3.09,0,5.6,2.51,5.6,5.6v0.11
			C457.85,720.58,455.34,723.08,452.25,723.08z"/>
	</g>
</g>
<g id="VIOLET" class="subject3">
	<circle class="subject23" cx="499.62" cy="499.62" r="474.14"/>
	<circle class="subject24" cx="202.8" cy="449.11" r="23.66"/>
	<circle class="subject24" cx="368.07" cy="430.02" r="23.66"/>
	<path class="subject25" d="M226.46,449.11v-153.3c0-0.21,0.16-0.38,0.37-0.4l164.46-15.61c0.24-0.02,0.44,0.16,0.44,0.4v150.24"/>
	<line class="subject25" x1="226.46" y1="325.7" x2="391.73" y2="310.19"/>
	<g class="subject7">
		<path class="subject26" d="M739.15,412.84L788,364.95c2.13-2.09,2.13-5.52,0-7.61l-48.85-47.88c-2.12-2.07-2.13-5.48-0.04-7.57
			l13.2-13.2c2.08-2.08,5.45-2.08,7.53,0l68.7,68.7c2.08,2.08,2.08,5.45,0,7.53l-68.7,68.7c-2.08,2.08-5.45,2.08-7.53,0l-13.2-13.2
			C737.02,418.31,737.03,414.91,739.15,412.84z"/>
	</g>
	<g class="subject7">
		<path class="subject26" d="M622.52,420.6l-13.2,13.2c-2.08,2.08-5.45,2.08-7.53,0l-68.7-68.7c-2.08-2.08-2.08-5.45,0-7.53l68.7-68.7
			c2.08-2.08,5.45-2.08,7.53,0l13.2,13.2c2.1,2.1,2.08,5.5-0.04,7.57l-48.85,47.88c-2.13,2.09-2.13,5.52,0,7.61l48.85,47.88
			C624.59,415.1,624.61,418.5,622.52,420.6z"/>
	</g>
	<g class="subject7">
		<line class="subject27" x1="715.33" y1="220" x2="645.84" y2="502.31"/>
		<path class="subject27" d="M645.89,502.3l-0.11,0.02c-0.14,0.02-0.29,0.04-0.43,0.06c-3.34,0.31-5.86-2.4-5.11-5.28
			c5.74-22.15,70.43-271.81,70.53-272.15c0.76-2.57,1.8-4.5,4.51-4.94l0.11-0.02c0.14-0.02,0.29-0.04,0.43-0.06
			c3.34-0.31,5.86,2.41,5.11,5.28l-70.4,271.05C650.43,496.62,649.18,502.37,645.89,502.3z"/>
	</g>
	<path class="subject28" d="M548.35,537.95h-99.97c-3.51,0-6.36-2.85-6.36-6.36v-12.67c0-3.51,2.85-6.36,6.36-6.36h99.97
		c3.51,0,6.36,2.85,6.36,6.36v12.67C554.7,535.11,551.86,537.95,548.35,537.95z"/>
	<path class="subject25" d="M464.24,537.19v63.27c0,21.66-8.6,42.42-23.92,57.74l-59.32,59.32c-3.58,3.58-5.59,8.43-5.59,13.49v29.83
		c0,10.53,8.54,19.07,19.07,19.07h103.87h103.87c10.53,0,19.07-8.54,19.07-19.07v-29.83c0-5.06-2.01-9.91-5.59-13.49l-59.32-59.32
		c-15.31-15.31-23.92-36.08-23.92-57.74v-63.27"/>
	<g class="subject7">
		<path class="subject26" d="M470.35,632.99h-9.8c-3.09,0-5.6-2.51-5.6-5.6v-0.11c0-3.09,2.51-5.6,5.6-5.6h9.8c3.09,0,5.6,2.51,5.6,5.6
			v0.11C475.95,630.48,473.44,632.99,470.35,632.99z"/>
	</g>
	<g class="subject7">
		<path class="subject26" d="M465.97,655.21h-23.14l5.36-11.31h17.67c3.12,0,5.66,2.53,5.66,5.66v0.11
			C471.51,652.73,469.03,655.21,465.97,655.21z"/>
	</g>
	<g class="subject7">
		<path class="subject26" d="M461.23,677.84h-42.43l9.59-11.31h32.84c3.09,0,5.6,2.51,5.6,5.6v0.11
			C466.83,675.33,464.33,677.84,461.23,677.84z"/>
	</g>
	<g class="subject7">
		<path class="subject26" d="M456.74,700.46h-62.3l13.6-11.31h48.7c3.09,0,5.6,2.51,5.6,5.6v0.11
			C462.34,697.95,459.84,700.46,456.74,700.46z"/>
	</g>
	<g class="subject7">
		<path class="subject26" d="M452.25,723.08h-76.83l10.29-11.31h66.55c3.09,0,5.6,2.51,5.6,5.6v0.11
			C457.85,720.58,455.34,723.08,452.25,723.08z"/>
	</g>
</g>
<g id="WHITE" class="subject3">
	<circle class="subject29" cx="499.62" cy="499.62" r="474.14"/>
	<circle class="subject30" cx="202.8" cy="449.11" r="23.66"/>
	<circle class="subject30" cx="368.07" cy="430.02" r="23.66"/>
	<path class="subject31" d="M226.46,449.11v-153.3c0-0.21,0.16-0.38,0.37-0.4l164.46-15.61c0.24-0.02,0.44,0.16,0.44,0.4v150.24"/>
	<line class="subject31" x1="226.46" y1="325.7" x2="391.73" y2="310.19"/>
	<g class="subject7">
		<path class="subject32" d="M739.15,412.84L788,364.95c2.13-2.09,2.13-5.52,0-7.61l-48.85-47.88c-2.12-2.07-2.13-5.48-0.04-7.57
			l13.2-13.2c2.08-2.08,5.45-2.08,7.53,0l68.7,68.7c2.08,2.08,2.08,5.45,0,7.53l-68.7,68.7c-2.08,2.08-5.45,2.08-7.53,0l-13.2-13.2
			C737.02,418.31,737.03,414.91,739.15,412.84z"/>
	</g>
	<g class="subject7">
		<path class="subject32" d="M622.52,420.6l-13.2,13.2c-2.08,2.08-5.45,2.08-7.53,0l-68.7-68.7c-2.08-2.08-2.08-5.45,0-7.53l68.7-68.7
			c2.08-2.08,5.45-2.08,7.53,0l13.2,13.2c2.1,2.1,2.08,5.5-0.04,7.57l-48.85,47.88c-2.13,2.09-2.13,5.52,0,7.61l48.85,47.88
			C624.59,415.1,624.61,418.5,622.52,420.6z"/>
	</g>
	<g class="subject7">
		<line class="subject33" x1="715.33" y1="220" x2="645.84" y2="502.31"/>
		<path class="subject33" d="M645.89,502.3l-0.11,0.02c-0.14,0.02-0.29,0.04-0.43,0.06c-3.34,0.31-5.86-2.4-5.11-5.28
			c5.74-22.15,70.43-271.81,70.53-272.15c0.76-2.57,1.8-4.5,4.51-4.94l0.11-0.02c0.14-0.02,0.29-0.04,0.43-0.06
			c3.34-0.31,5.86,2.41,5.11,5.28l-70.4,271.05C650.43,496.62,649.18,502.37,645.89,502.3z"/>
	</g>
	<path class="subject34" d="M548.35,537.95h-99.97c-3.51,0-6.36-2.85-6.36-6.36v-12.67c0-3.51,2.85-6.36,6.36-6.36h99.97
		c3.51,0,6.36,2.85,6.36,6.36v12.67C554.7,535.11,551.86,537.95,548.35,537.95z"/>
	<path class="subject31" d="M464.24,537.19v63.27c0,21.66-8.6,42.42-23.92,57.74l-59.32,59.32c-3.58,3.58-5.59,8.43-5.59,13.49v29.83
		c0,10.53,8.54,19.07,19.07,19.07h103.87h103.87c10.53,0,19.07-8.54,19.07-19.07v-29.83c0-5.06-2.01-9.91-5.59-13.49l-59.32-59.32
		c-15.31-15.31-23.92-36.08-23.92-57.74v-63.27"/>
	<g class="subject7">
		<path class="subject32" d="M470.35,632.99h-9.8c-3.09,0-5.6-2.51-5.6-5.6v-0.11c0-3.09,2.51-5.6,5.6-5.6h9.8c3.09,0,5.6,2.51,5.6,5.6
			v0.11C475.95,630.48,473.44,632.99,470.35,632.99z"/>
	</g>
	<g class="subject7">
		<path class="subject32" d="M465.97,655.21h-23.14l5.36-11.31h17.67c3.12,0,5.66,2.53,5.66,5.66v0.11
			C471.51,652.73,469.03,655.21,465.97,655.21z"/>
	</g>
	<g class="subject7">
		<path class="subject32" d="M461.23,677.84h-42.43l9.59-11.31h32.84c3.09,0,5.6,2.51,5.6,5.6v0.11
			C466.83,675.33,464.33,677.84,461.23,677.84z"/>
	</g>
	<g class="subject7">
		<path class="subject32" d="M456.74,700.46h-62.3l13.6-11.31h48.7c3.09,0,5.6,2.51,5.6,5.6v0.11
			C462.34,697.95,459.84,700.46,456.74,700.46z"/>
	</g>
	<g class="subject7">
		<path class="subject32" d="M452.25,723.08h-76.83l10.29-11.31h66.55c3.09,0,5.6,2.51,5.6,5.6v0.11
			C457.85,720.58,455.34,723.08,452.25,723.08z"/>
	</g>
</g>
</svg>
