<svg width="35" height="40" viewBox="0 0 35 40" fill="none" xmlns="http://www.w3.org/2000/svg">
<path d="M10 11.5625V8.4375C10 7.92188 10.4219 7.5 10.9375 7.5H14.0625C14.5781 7.5 15 7.92188 15 8.4375V11.5625C15 12.0781 14.5781 12.5 14.0625 12.5H10.9375C10.4219 12.5 10 12.0781 10 11.5625ZM20.9375 12.5H24.0625C24.5781 12.5 25 12.0781 25 11.5625V8.4375C25 7.92188 24.5781 7.5 24.0625 7.5H20.9375C20.4219 7.5 20 7.92188 20 8.4375V11.5625C20 12.0781 20.4219 12.5 20.9375 12.5ZM10.9375 20H14.0625C14.5781 20 15 19.5781 15 19.0625V15.9375C15 15.4219 14.5781 15 14.0625 15H10.9375C10.4219 15 10 15.4219 10 15.9375V19.0625C10 19.5781 10.4219 20 10.9375 20ZM20.9375 20H24.0625C24.5781 20 25 19.5781 25 19.0625V15.9375C25 15.4219 24.5781 15 24.0625 15H20.9375C20.4219 15 20 15.4219 20 15.9375V19.0625C20 19.5781 20.4219 20 20.9375 20ZM15 26.5625V23.4375C15 22.9219 14.5781 22.5 14.0625 22.5H10.9375C10.4219 22.5 10 22.9219 10 23.4375V26.5625C10 27.0781 10.4219 27.5 10.9375 27.5H14.0625C14.5781 27.5 15 27.0781 15 26.5625ZM20.9375 27.5H24.0625C24.5781 27.5 25 27.0781 25 26.5625V23.4375C25 22.9219 24.5781 22.5 24.0625 22.5H20.9375C20.4219 22.5 20 22.9219 20 23.4375V26.5625C20 27.0781 20.4219 27.5 20.9375 27.5ZM35 37.1875V40H0V37.1875C0 36.6719 0.421875 36.25 0.9375 36.25H2.46094V1.875C2.46094 0.835937 3.29687 0 4.33594 0H30.6641C31.7031 0 32.5391 0.835937 32.5391 1.875V36.25H34.0625C34.5781 36.25 35 36.6719 35 37.1875ZM6.21094 36.1719H15V30.9375C15 30.4219 15.4219 30 15.9375 30H19.0625C19.5781 30 20 30.4219 20 30.9375V36.1719H28.7891V3.82812L6.25 3.75L6.21094 36.1719Z" fill="black"/>
</svg>
